M48
; DRILL file {KiCad 6.0.8-f2edbf62ab~116~ubuntu20.04.1} date Thu 10 Nov 2022 01:37:22 AM PST
; FORMAT={-:-/ absolute / inch / decimal}
; #@! TF.CreationDate,2022-11-10T01:37:22-08:00
; #@! TF.GenerationSoftware,Kicad,Pcbnew,6.0.8-f2edbf62ab~116~ubuntu20.04.1
; #@! TF.FileFunction,Plated,1,2,PTH
FMAT,2
INCH
; #@! TA.AperFunction,Plated,PTH,ViaDrill
T1C0.0157
; #@! TA.AperFunction,Plated,PTH,ComponentDrill
T2C0.0394
%
G90
G05
T1
X4.15Y-2.55
X4.9Y-2.95
X4.9Y-3.35
X5.1Y-2.95
X5.1Y-3.1
X5.1Y-3.2
X5.15Y-2.85
X5.35Y-2.9
X5.9Y-3.35
X6.05Y-2.6
X6.05Y-3.0
X6.1Y-3.1
T2
X3.9732Y-2.9992
X3.9732Y-3.0992
X3.9732Y-3.1992
X3.9732Y-3.2992
X3.9732Y-3.3992
X4.0512Y-2.6508
X4.0512Y-2.7508
X4.1512Y-2.6508
X4.1512Y-2.7508
X4.2512Y-2.6508
X4.2512Y-2.7508
X4.3512Y-2.6508
X4.3512Y-2.7508
X4.4215Y-2.9882
X4.4215Y-3.0882
X4.4512Y-2.6508
X4.4512Y-2.7508
X4.5215Y-2.9882
X4.5215Y-3.0882
X4.5512Y-2.6508
X4.5512Y-2.7508
X4.6215Y-2.9882
X4.6215Y-3.0882
X4.6512Y-2.6508
X4.6512Y-2.7508
X4.7215Y-2.9882
X4.7215Y-3.0882
X4.7512Y-2.6508
X4.7512Y-2.7508
X4.8512Y-2.6508
X4.8512Y-2.7508
X4.9512Y-2.6508
X4.9512Y-2.7508
X5.0512Y-2.6508
X5.0512Y-2.7508
X5.1512Y-2.6508
X5.1512Y-2.7508
X5.2512Y-2.6508
X5.2512Y-2.7508
X5.3512Y-2.6508
X5.3512Y-2.7508
X5.4215Y-2.9882
X5.4215Y-3.0882
X5.4512Y-2.6508
X5.4512Y-2.7508
X5.5215Y-2.9882
X5.5215Y-3.0882
X5.5512Y-2.6508
X5.5512Y-2.7508
X5.6215Y-2.9882
X5.6215Y-3.0882
X5.6512Y-2.6508
X5.6512Y-2.7508
X5.7215Y-2.9882
X5.7215Y-3.0882
X5.7512Y-2.6508
X5.7512Y-2.7508
X5.8512Y-2.6508
X5.8512Y-2.7508
X5.9512Y-2.6508
X5.9512Y-2.7508
T0
M30
