%TF.GenerationSoftware,KiCad,Pcbnew,6.0.8-f2edbf62ab~116~ubuntu20.04.1*%
%TF.CreationDate,2022-11-10T01:37:22-08:00*%
%TF.ProjectId,parthiv_pcb,70617274-6869-4765-9f70-63622e6b6963,rev?*%
%TF.SameCoordinates,Original*%
%TF.FileFunction,Legend,Top*%
%TF.FilePolarity,Positive*%
%FSLAX46Y46*%
G04 Gerber Fmt 4.6, Leading zero omitted, Abs format (unit mm)*
G04 Created by KiCad (PCBNEW 6.0.8-f2edbf62ab~116~ubuntu20.04.1) date 2022-11-10 01:37:22*
%MOMM*%
%LPD*%
G01*
G04 APERTURE LIST*
G04 Aperture macros list*
%AMRoundRect*
0 Rectangle with rounded corners*
0 $1 Rounding radius*
0 $2 $3 $4 $5 $6 $7 $8 $9 X,Y pos of 4 corners*
0 Add a 4 corners polygon primitive as box body*
4,1,4,$2,$3,$4,$5,$6,$7,$8,$9,$2,$3,0*
0 Add four circle primitives for the rounded corners*
1,1,$1+$1,$2,$3*
1,1,$1+$1,$4,$5*
1,1,$1+$1,$6,$7*
1,1,$1+$1,$8,$9*
0 Add four rect primitives between the rounded corners*
20,1,$1+$1,$2,$3,$4,$5,0*
20,1,$1+$1,$4,$5,$6,$7,0*
20,1,$1+$1,$6,$7,$8,$9,0*
20,1,$1+$1,$8,$9,$2,$3,0*%
G04 Aperture macros list end*
%ADD10C,0.150000*%
%ADD11C,0.080000*%
%ADD12C,0.120000*%
%ADD13R,1.700000X1.700000*%
%ADD14C,1.700000*%
%ADD15RoundRect,0.250000X-1.050000X-0.550000X1.050000X-0.550000X1.050000X0.550000X-1.050000X0.550000X0*%
%ADD16O,1.700000X1.700000*%
G04 APERTURE END LIST*
D10*
X140152380Y-94170000D02*
X139152380Y-94170000D01*
X140152380Y-93598571D01*
X139152380Y-93598571D01*
X140152380Y-92550952D02*
X139676190Y-92884285D01*
X140152380Y-93122380D02*
X139152380Y-93122380D01*
X139152380Y-92741428D01*
X139200000Y-92646190D01*
X139247619Y-92598571D01*
X139342857Y-92550952D01*
X139485714Y-92550952D01*
X139580952Y-92598571D01*
X139628571Y-92646190D01*
X139676190Y-92741428D01*
X139676190Y-93122380D01*
X139628571Y-91789047D02*
X139628571Y-92122380D01*
X140152380Y-92122380D02*
X139152380Y-92122380D01*
X139152380Y-91646190D01*
X139247619Y-91312857D02*
X139200000Y-91265238D01*
X139152380Y-91170000D01*
X139152380Y-90931904D01*
X139200000Y-90836666D01*
X139247619Y-90789047D01*
X139342857Y-90741428D01*
X139438095Y-90741428D01*
X139580952Y-90789047D01*
X140152380Y-91360476D01*
X140152380Y-90741428D01*
X139485714Y-89884285D02*
X140152380Y-89884285D01*
X139104761Y-90122380D02*
X139819047Y-90360476D01*
X139819047Y-89741428D01*
X139152380Y-89170000D02*
X139152380Y-89074761D01*
X139200000Y-88979523D01*
X139247619Y-88931904D01*
X139342857Y-88884285D01*
X139533333Y-88836666D01*
X139771428Y-88836666D01*
X139961904Y-88884285D01*
X140057142Y-88931904D01*
X140104761Y-88979523D01*
X140152380Y-89074761D01*
X140152380Y-89170000D01*
X140104761Y-89265238D01*
X140057142Y-89312857D01*
X139961904Y-89360476D01*
X139771428Y-89408095D01*
X139533333Y-89408095D01*
X139342857Y-89360476D01*
X139247619Y-89312857D01*
X139200000Y-89265238D01*
X139152380Y-89170000D01*
X140152380Y-87931904D02*
X140152380Y-88408095D01*
X139152380Y-88408095D01*
X139152380Y-87408095D02*
X139152380Y-87312857D01*
X139200000Y-87217619D01*
X139247619Y-87170000D01*
X139342857Y-87122380D01*
X139533333Y-87074761D01*
X139771428Y-87074761D01*
X139961904Y-87122380D01*
X140057142Y-87170000D01*
X140104761Y-87217619D01*
X140152380Y-87312857D01*
X140152380Y-87408095D01*
X140104761Y-87503333D01*
X140057142Y-87550952D01*
X139961904Y-87598571D01*
X139771428Y-87646190D01*
X139533333Y-87646190D01*
X139342857Y-87598571D01*
X139247619Y-87550952D01*
X139200000Y-87503333D01*
X139152380Y-87408095D01*
X140152380Y-86122380D02*
X140152380Y-86693809D01*
X140152380Y-86408095D02*
X139152380Y-86408095D01*
X139295238Y-86503333D01*
X139390476Y-86598571D01*
X139438095Y-86693809D01*
X114752380Y-94170000D02*
X113752380Y-94170000D01*
X114752380Y-93598571D01*
X113752380Y-93598571D01*
X114752380Y-92550952D02*
X114276190Y-92884285D01*
X114752380Y-93122380D02*
X113752380Y-93122380D01*
X113752380Y-92741428D01*
X113800000Y-92646190D01*
X113847619Y-92598571D01*
X113942857Y-92550952D01*
X114085714Y-92550952D01*
X114180952Y-92598571D01*
X114228571Y-92646190D01*
X114276190Y-92741428D01*
X114276190Y-93122380D01*
X114228571Y-91789047D02*
X114228571Y-92122380D01*
X114752380Y-92122380D02*
X113752380Y-92122380D01*
X113752380Y-91646190D01*
X113847619Y-91312857D02*
X113800000Y-91265238D01*
X113752380Y-91170000D01*
X113752380Y-90931904D01*
X113800000Y-90836666D01*
X113847619Y-90789047D01*
X113942857Y-90741428D01*
X114038095Y-90741428D01*
X114180952Y-90789047D01*
X114752380Y-91360476D01*
X114752380Y-90741428D01*
X114085714Y-89884285D02*
X114752380Y-89884285D01*
X113704761Y-90122380D02*
X114419047Y-90360476D01*
X114419047Y-89741428D01*
X113752380Y-89170000D02*
X113752380Y-89074761D01*
X113800000Y-88979523D01*
X113847619Y-88931904D01*
X113942857Y-88884285D01*
X114133333Y-88836666D01*
X114371428Y-88836666D01*
X114561904Y-88884285D01*
X114657142Y-88931904D01*
X114704761Y-88979523D01*
X114752380Y-89074761D01*
X114752380Y-89170000D01*
X114704761Y-89265238D01*
X114657142Y-89312857D01*
X114561904Y-89360476D01*
X114371428Y-89408095D01*
X114133333Y-89408095D01*
X113942857Y-89360476D01*
X113847619Y-89312857D01*
X113800000Y-89265238D01*
X113752380Y-89170000D01*
X114752380Y-87931904D02*
X114752380Y-88408095D01*
X113752380Y-88408095D01*
X113752380Y-87408095D02*
X113752380Y-87312857D01*
X113800000Y-87217619D01*
X113847619Y-87170000D01*
X113942857Y-87122380D01*
X114133333Y-87074761D01*
X114371428Y-87074761D01*
X114561904Y-87122380D01*
X114657142Y-87170000D01*
X114704761Y-87217619D01*
X114752380Y-87312857D01*
X114752380Y-87408095D01*
X114704761Y-87503333D01*
X114657142Y-87550952D01*
X114561904Y-87598571D01*
X114371428Y-87646190D01*
X114133333Y-87646190D01*
X113942857Y-87598571D01*
X113847619Y-87550952D01*
X113800000Y-87503333D01*
X113752380Y-87408095D01*
X114752380Y-86122380D02*
X114752380Y-86693809D01*
X114752380Y-86408095D02*
X113752380Y-86408095D01*
X113895238Y-86503333D01*
X113990476Y-86598571D01*
X114038095Y-86693809D01*
X93654761Y-73112380D02*
X93654761Y-73921904D01*
X93702380Y-74017142D01*
X93750000Y-74064761D01*
X93845238Y-74112380D01*
X94035714Y-74112380D01*
X94130952Y-74064761D01*
X94178571Y-74017142D01*
X94226190Y-73921904D01*
X94226190Y-73112380D01*
X94654761Y-73826666D02*
X95130952Y-73826666D01*
X94559523Y-74112380D02*
X94892857Y-73112380D01*
X95226190Y-74112380D01*
X96130952Y-74112380D02*
X95797619Y-73636190D01*
X95559523Y-74112380D02*
X95559523Y-73112380D01*
X95940476Y-73112380D01*
X96035714Y-73160000D01*
X96083333Y-73207619D01*
X96130952Y-73302857D01*
X96130952Y-73445714D01*
X96083333Y-73540952D01*
X96035714Y-73588571D01*
X95940476Y-73636190D01*
X95559523Y-73636190D01*
X96416666Y-73112380D02*
X96988095Y-73112380D01*
X96702380Y-74112380D02*
X96702380Y-73112380D01*
X150185619Y-82367380D02*
X149614190Y-82367380D01*
X149899904Y-82367380D02*
X149899904Y-81367380D01*
X149804666Y-81510238D01*
X149709428Y-81605476D01*
X149614190Y-81653095D01*
X150804666Y-81367380D02*
X150899904Y-81367380D01*
X150995142Y-81415000D01*
X151042761Y-81462619D01*
X151090380Y-81557857D01*
X151138000Y-81748333D01*
X151138000Y-81986428D01*
X151090380Y-82176904D01*
X151042761Y-82272142D01*
X150995142Y-82319761D01*
X150899904Y-82367380D01*
X150804666Y-82367380D01*
X150709428Y-82319761D01*
X150661809Y-82272142D01*
X150614190Y-82176904D01*
X150566571Y-81986428D01*
X150566571Y-81748333D01*
X150614190Y-81557857D01*
X150661809Y-81462619D01*
X150709428Y-81415000D01*
X150804666Y-81367380D01*
X152757047Y-81700714D02*
X152757047Y-82367380D01*
X152328476Y-81700714D02*
X152328476Y-82224523D01*
X152376095Y-82319761D01*
X152471333Y-82367380D01*
X152614190Y-82367380D01*
X152709428Y-82319761D01*
X152757047Y-82272142D01*
X153566571Y-81843571D02*
X153233238Y-81843571D01*
X153233238Y-82367380D02*
X153233238Y-81367380D01*
X153709428Y-81367380D01*
X124277619Y-82367380D02*
X123706190Y-82367380D01*
X123991904Y-82367380D02*
X123991904Y-81367380D01*
X123896666Y-81510238D01*
X123801428Y-81605476D01*
X123706190Y-81653095D01*
X124896666Y-81367380D02*
X124991904Y-81367380D01*
X125087142Y-81415000D01*
X125134761Y-81462619D01*
X125182380Y-81557857D01*
X125230000Y-81748333D01*
X125230000Y-81986428D01*
X125182380Y-82176904D01*
X125134761Y-82272142D01*
X125087142Y-82319761D01*
X124991904Y-82367380D01*
X124896666Y-82367380D01*
X124801428Y-82319761D01*
X124753809Y-82272142D01*
X124706190Y-82176904D01*
X124658571Y-81986428D01*
X124658571Y-81748333D01*
X124706190Y-81557857D01*
X124753809Y-81462619D01*
X124801428Y-81415000D01*
X124896666Y-81367380D01*
X126849047Y-81700714D02*
X126849047Y-82367380D01*
X126420476Y-81700714D02*
X126420476Y-82224523D01*
X126468095Y-82319761D01*
X126563333Y-82367380D01*
X126706190Y-82367380D01*
X126801428Y-82319761D01*
X126849047Y-82272142D01*
X127658571Y-81843571D02*
X127325238Y-81843571D01*
X127325238Y-82367380D02*
X127325238Y-81367380D01*
X127801428Y-81367380D01*
D11*
X140561190Y-83062000D02*
X140561190Y-83347714D01*
X140561190Y-83204857D02*
X140061190Y-83204857D01*
X140132619Y-83252476D01*
X140180238Y-83300095D01*
X140204047Y-83347714D01*
X140061190Y-82752476D02*
X140061190Y-82704857D01*
X140085000Y-82657238D01*
X140108809Y-82633428D01*
X140156428Y-82609619D01*
X140251666Y-82585809D01*
X140370714Y-82585809D01*
X140465952Y-82609619D01*
X140513571Y-82633428D01*
X140537380Y-82657238D01*
X140561190Y-82704857D01*
X140561190Y-82752476D01*
X140537380Y-82800095D01*
X140513571Y-82823904D01*
X140465952Y-82847714D01*
X140370714Y-82871523D01*
X140251666Y-82871523D01*
X140156428Y-82847714D01*
X140108809Y-82823904D01*
X140085000Y-82800095D01*
X140061190Y-82752476D01*
X140370714Y-82371523D02*
X140370714Y-81990571D01*
X140561190Y-81752476D02*
X140061190Y-81752476D01*
X140418333Y-81585809D01*
X140061190Y-81419142D01*
X140561190Y-81419142D01*
X140061190Y-81085809D02*
X140061190Y-80990571D01*
X140085000Y-80942952D01*
X140132619Y-80895333D01*
X140227857Y-80871523D01*
X140394523Y-80871523D01*
X140489761Y-80895333D01*
X140537380Y-80942952D01*
X140561190Y-80990571D01*
X140561190Y-81085809D01*
X140537380Y-81133428D01*
X140489761Y-81181047D01*
X140394523Y-81204857D01*
X140227857Y-81204857D01*
X140132619Y-81181047D01*
X140085000Y-81133428D01*
X140061190Y-81085809D01*
X140537380Y-80681047D02*
X140561190Y-80609619D01*
X140561190Y-80490571D01*
X140537380Y-80442952D01*
X140513571Y-80419142D01*
X140465952Y-80395333D01*
X140418333Y-80395333D01*
X140370714Y-80419142D01*
X140346904Y-80442952D01*
X140323095Y-80490571D01*
X140299285Y-80585809D01*
X140275476Y-80633428D01*
X140251666Y-80657238D01*
X140204047Y-80681047D01*
X140156428Y-80681047D01*
X140108809Y-80657238D01*
X140085000Y-80633428D01*
X140061190Y-80585809D01*
X140061190Y-80466761D01*
X140085000Y-80395333D01*
X140561190Y-80181047D02*
X140061190Y-80181047D01*
X138021190Y-74128952D02*
X137521190Y-74128952D01*
X137878333Y-73962285D01*
X137521190Y-73795619D01*
X138021190Y-73795619D01*
X138021190Y-73557523D02*
X137521190Y-73557523D01*
X137997380Y-73343238D02*
X138021190Y-73271809D01*
X138021190Y-73152761D01*
X137997380Y-73105142D01*
X137973571Y-73081333D01*
X137925952Y-73057523D01*
X137878333Y-73057523D01*
X137830714Y-73081333D01*
X137806904Y-73105142D01*
X137783095Y-73152761D01*
X137759285Y-73248000D01*
X137735476Y-73295619D01*
X137711666Y-73319428D01*
X137664047Y-73343238D01*
X137616428Y-73343238D01*
X137568809Y-73319428D01*
X137545000Y-73295619D01*
X137521190Y-73248000D01*
X137521190Y-73128952D01*
X137545000Y-73057523D01*
X137521190Y-72748000D02*
X137521190Y-72652761D01*
X137545000Y-72605142D01*
X137592619Y-72557523D01*
X137687857Y-72533714D01*
X137854523Y-72533714D01*
X137949761Y-72557523D01*
X137997380Y-72605142D01*
X138021190Y-72652761D01*
X138021190Y-72748000D01*
X137997380Y-72795619D01*
X137949761Y-72843238D01*
X137854523Y-72867047D01*
X137687857Y-72867047D01*
X137592619Y-72843238D01*
X137545000Y-72795619D01*
X137521190Y-72748000D01*
X137830714Y-72319428D02*
X137830714Y-71938476D01*
X138021190Y-71676571D02*
X138021190Y-71581333D01*
X137997380Y-71533714D01*
X137973571Y-71509904D01*
X137902142Y-71462285D01*
X137806904Y-71438476D01*
X137616428Y-71438476D01*
X137568809Y-71462285D01*
X137545000Y-71486095D01*
X137521190Y-71533714D01*
X137521190Y-71628952D01*
X137545000Y-71676571D01*
X137568809Y-71700380D01*
X137616428Y-71724190D01*
X137735476Y-71724190D01*
X137783095Y-71700380D01*
X137806904Y-71676571D01*
X137830714Y-71628952D01*
X137830714Y-71533714D01*
X137806904Y-71486095D01*
X137783095Y-71462285D01*
X137735476Y-71438476D01*
X145165000Y-73862047D02*
X145141190Y-73909666D01*
X145141190Y-73981095D01*
X145165000Y-74052523D01*
X145212619Y-74100142D01*
X145260238Y-74123952D01*
X145355476Y-74147761D01*
X145426904Y-74147761D01*
X145522142Y-74123952D01*
X145569761Y-74100142D01*
X145617380Y-74052523D01*
X145641190Y-73981095D01*
X145641190Y-73933476D01*
X145617380Y-73862047D01*
X145593571Y-73838238D01*
X145426904Y-73838238D01*
X145426904Y-73933476D01*
X145641190Y-73623952D02*
X145141190Y-73623952D01*
X145641190Y-73338238D01*
X145141190Y-73338238D01*
X145641190Y-73100142D02*
X145141190Y-73100142D01*
X145141190Y-72981095D01*
X145165000Y-72909666D01*
X145212619Y-72862047D01*
X145260238Y-72838238D01*
X145355476Y-72814428D01*
X145426904Y-72814428D01*
X145522142Y-72838238D01*
X145569761Y-72862047D01*
X145617380Y-72909666D01*
X145641190Y-72981095D01*
X145641190Y-73100142D01*
X138021190Y-82847714D02*
X137521190Y-82847714D01*
X138021190Y-82562000D01*
X137521190Y-82562000D01*
X137973571Y-82038190D02*
X137997380Y-82062000D01*
X138021190Y-82133428D01*
X138021190Y-82181047D01*
X137997380Y-82252476D01*
X137949761Y-82300095D01*
X137902142Y-82323904D01*
X137806904Y-82347714D01*
X137735476Y-82347714D01*
X137640238Y-82323904D01*
X137592619Y-82300095D01*
X137545000Y-82252476D01*
X137521190Y-82181047D01*
X137521190Y-82133428D01*
X137545000Y-82062000D01*
X137568809Y-82038190D01*
X137830714Y-81823904D02*
X137830714Y-81442952D01*
X138021190Y-81204857D02*
X137521190Y-81204857D01*
X138021190Y-80681047D02*
X137783095Y-80847714D01*
X138021190Y-80966761D02*
X137521190Y-80966761D01*
X137521190Y-80776285D01*
X137545000Y-80728666D01*
X137568809Y-80704857D01*
X137616428Y-80681047D01*
X137687857Y-80681047D01*
X137735476Y-80704857D01*
X137759285Y-80728666D01*
X137783095Y-80776285D01*
X137783095Y-80966761D01*
X138068809Y-80133428D02*
X138045000Y-80181047D01*
X137997380Y-80228666D01*
X137925952Y-80300095D01*
X137902142Y-80347714D01*
X137902142Y-80395333D01*
X138021190Y-80371523D02*
X137997380Y-80419142D01*
X137949761Y-80466761D01*
X137854523Y-80490571D01*
X137687857Y-80490571D01*
X137592619Y-80466761D01*
X137545000Y-80419142D01*
X137521190Y-80371523D01*
X137521190Y-80276285D01*
X137545000Y-80228666D01*
X137592619Y-80181047D01*
X137687857Y-80157238D01*
X137854523Y-80157238D01*
X137949761Y-80181047D01*
X137997380Y-80228666D01*
X138021190Y-80276285D01*
X138021190Y-80371523D01*
X145450714Y-81942952D02*
X145450714Y-81562000D01*
X145641190Y-81752476D02*
X145260238Y-81752476D01*
X145141190Y-81371523D02*
X145141190Y-81062000D01*
X145331666Y-81228666D01*
X145331666Y-81157238D01*
X145355476Y-81109619D01*
X145379285Y-81085809D01*
X145426904Y-81062000D01*
X145545952Y-81062000D01*
X145593571Y-81085809D01*
X145617380Y-81109619D01*
X145641190Y-81157238D01*
X145641190Y-81300095D01*
X145617380Y-81347714D01*
X145593571Y-81371523D01*
X145141190Y-80919142D02*
X145641190Y-80752476D01*
X145141190Y-80585809D01*
X145141190Y-80466761D02*
X145141190Y-80157238D01*
X145331666Y-80323904D01*
X145331666Y-80252476D01*
X145355476Y-80204857D01*
X145379285Y-80181047D01*
X145426904Y-80157238D01*
X145545952Y-80157238D01*
X145593571Y-80181047D01*
X145617380Y-80204857D01*
X145641190Y-80252476D01*
X145641190Y-80395333D01*
X145617380Y-80442952D01*
X145593571Y-80466761D01*
X143053571Y-73838238D02*
X143077380Y-73862047D01*
X143101190Y-73933476D01*
X143101190Y-73981095D01*
X143077380Y-74052523D01*
X143029761Y-74100142D01*
X142982142Y-74123952D01*
X142886904Y-74147761D01*
X142815476Y-74147761D01*
X142720238Y-74123952D01*
X142672619Y-74100142D01*
X142625000Y-74052523D01*
X142601190Y-73981095D01*
X142601190Y-73933476D01*
X142625000Y-73862047D01*
X142648809Y-73838238D01*
X142839285Y-73623952D02*
X142839285Y-73457285D01*
X143101190Y-73385857D02*
X143101190Y-73623952D01*
X142601190Y-73623952D01*
X142601190Y-73385857D01*
X142910714Y-73171571D02*
X142910714Y-72790619D01*
X142601190Y-72338238D02*
X142601190Y-72433476D01*
X142625000Y-72481095D01*
X142648809Y-72504904D01*
X142720238Y-72552523D01*
X142815476Y-72576333D01*
X143005952Y-72576333D01*
X143053571Y-72552523D01*
X143077380Y-72528714D01*
X143101190Y-72481095D01*
X143101190Y-72385857D01*
X143077380Y-72338238D01*
X143053571Y-72314428D01*
X143005952Y-72290619D01*
X142886904Y-72290619D01*
X142839285Y-72314428D01*
X142815476Y-72338238D01*
X142791666Y-72385857D01*
X142791666Y-72481095D01*
X142815476Y-72528714D01*
X142839285Y-72552523D01*
X142886904Y-72576333D01*
X142815476Y-82466761D02*
X142791666Y-82514380D01*
X142767857Y-82538190D01*
X142720238Y-82562000D01*
X142696428Y-82562000D01*
X142648809Y-82538190D01*
X142625000Y-82514380D01*
X142601190Y-82466761D01*
X142601190Y-82371523D01*
X142625000Y-82323904D01*
X142648809Y-82300095D01*
X142696428Y-82276285D01*
X142720238Y-82276285D01*
X142767857Y-82300095D01*
X142791666Y-82323904D01*
X142815476Y-82371523D01*
X142815476Y-82466761D01*
X142839285Y-82514380D01*
X142863095Y-82538190D01*
X142910714Y-82562000D01*
X143005952Y-82562000D01*
X143053571Y-82538190D01*
X143077380Y-82514380D01*
X143101190Y-82466761D01*
X143101190Y-82371523D01*
X143077380Y-82323904D01*
X143053571Y-82300095D01*
X143005952Y-82276285D01*
X142910714Y-82276285D01*
X142863095Y-82300095D01*
X142839285Y-82323904D01*
X142815476Y-82371523D01*
X142910714Y-82062000D02*
X142910714Y-81681047D01*
X143053571Y-81157238D02*
X143077380Y-81181047D01*
X143101190Y-81252476D01*
X143101190Y-81300095D01*
X143077380Y-81371523D01*
X143029761Y-81419142D01*
X142982142Y-81442952D01*
X142886904Y-81466761D01*
X142815476Y-81466761D01*
X142720238Y-81442952D01*
X142672619Y-81419142D01*
X142625000Y-81371523D01*
X142601190Y-81300095D01*
X142601190Y-81252476D01*
X142625000Y-81181047D01*
X142648809Y-81157238D01*
X143077380Y-80966761D02*
X143101190Y-80895333D01*
X143101190Y-80776285D01*
X143077380Y-80728666D01*
X143053571Y-80704857D01*
X143005952Y-80681047D01*
X142958333Y-80681047D01*
X142910714Y-80704857D01*
X142886904Y-80728666D01*
X142863095Y-80776285D01*
X142839285Y-80871523D01*
X142815476Y-80919142D01*
X142791666Y-80942952D01*
X142744047Y-80966761D01*
X142696428Y-80966761D01*
X142648809Y-80942952D01*
X142625000Y-80919142D01*
X142601190Y-80871523D01*
X142601190Y-80752476D01*
X142625000Y-80681047D01*
X143101190Y-80466761D02*
X142601190Y-80466761D01*
X143101190Y-80181047D01*
X142601190Y-80181047D01*
X140537380Y-74147761D02*
X140561190Y-74076333D01*
X140561190Y-73957285D01*
X140537380Y-73909666D01*
X140513571Y-73885857D01*
X140465952Y-73862047D01*
X140418333Y-73862047D01*
X140370714Y-73885857D01*
X140346904Y-73909666D01*
X140323095Y-73957285D01*
X140299285Y-74052523D01*
X140275476Y-74100142D01*
X140251666Y-74123952D01*
X140204047Y-74147761D01*
X140156428Y-74147761D01*
X140108809Y-74123952D01*
X140085000Y-74100142D01*
X140061190Y-74052523D01*
X140061190Y-73933476D01*
X140085000Y-73862047D01*
X140513571Y-73362047D02*
X140537380Y-73385857D01*
X140561190Y-73457285D01*
X140561190Y-73504904D01*
X140537380Y-73576333D01*
X140489761Y-73623952D01*
X140442142Y-73647761D01*
X140346904Y-73671571D01*
X140275476Y-73671571D01*
X140180238Y-73647761D01*
X140132619Y-73623952D01*
X140085000Y-73576333D01*
X140061190Y-73504904D01*
X140061190Y-73457285D01*
X140085000Y-73385857D01*
X140108809Y-73362047D01*
X140561190Y-73147761D02*
X140061190Y-73147761D01*
X140561190Y-72862047D02*
X140275476Y-73076333D01*
X140061190Y-72862047D02*
X140346904Y-73147761D01*
X140370714Y-72647761D02*
X140370714Y-72266809D01*
X140561190Y-71766809D02*
X140561190Y-72052523D01*
X140561190Y-71909666D02*
X140061190Y-71909666D01*
X140132619Y-71957285D01*
X140180238Y-72004904D01*
X140204047Y-72052523D01*
X140561190Y-71290619D02*
X140561190Y-71576333D01*
X140561190Y-71433476D02*
X140061190Y-71433476D01*
X140132619Y-71481095D01*
X140180238Y-71528714D01*
X140204047Y-71576333D01*
X112621190Y-82847714D02*
X112121190Y-82847714D01*
X112621190Y-82562000D01*
X112121190Y-82562000D01*
X112573571Y-82038190D02*
X112597380Y-82062000D01*
X112621190Y-82133428D01*
X112621190Y-82181047D01*
X112597380Y-82252476D01*
X112549761Y-82300095D01*
X112502142Y-82323904D01*
X112406904Y-82347714D01*
X112335476Y-82347714D01*
X112240238Y-82323904D01*
X112192619Y-82300095D01*
X112145000Y-82252476D01*
X112121190Y-82181047D01*
X112121190Y-82133428D01*
X112145000Y-82062000D01*
X112168809Y-82038190D01*
X112430714Y-81823904D02*
X112430714Y-81442952D01*
X112621190Y-81204857D02*
X112121190Y-81204857D01*
X112621190Y-80681047D02*
X112383095Y-80847714D01*
X112621190Y-80966761D02*
X112121190Y-80966761D01*
X112121190Y-80776285D01*
X112145000Y-80728666D01*
X112168809Y-80704857D01*
X112216428Y-80681047D01*
X112287857Y-80681047D01*
X112335476Y-80704857D01*
X112359285Y-80728666D01*
X112383095Y-80776285D01*
X112383095Y-80966761D01*
X112668809Y-80133428D02*
X112645000Y-80181047D01*
X112597380Y-80228666D01*
X112525952Y-80300095D01*
X112502142Y-80347714D01*
X112502142Y-80395333D01*
X112621190Y-80371523D02*
X112597380Y-80419142D01*
X112549761Y-80466761D01*
X112454523Y-80490571D01*
X112287857Y-80490571D01*
X112192619Y-80466761D01*
X112145000Y-80419142D01*
X112121190Y-80371523D01*
X112121190Y-80276285D01*
X112145000Y-80228666D01*
X112192619Y-80181047D01*
X112287857Y-80157238D01*
X112454523Y-80157238D01*
X112549761Y-80181047D01*
X112597380Y-80228666D01*
X112621190Y-80276285D01*
X112621190Y-80371523D01*
X115161190Y-83062000D02*
X115161190Y-83347714D01*
X115161190Y-83204857D02*
X114661190Y-83204857D01*
X114732619Y-83252476D01*
X114780238Y-83300095D01*
X114804047Y-83347714D01*
X114661190Y-82752476D02*
X114661190Y-82704857D01*
X114685000Y-82657238D01*
X114708809Y-82633428D01*
X114756428Y-82609619D01*
X114851666Y-82585809D01*
X114970714Y-82585809D01*
X115065952Y-82609619D01*
X115113571Y-82633428D01*
X115137380Y-82657238D01*
X115161190Y-82704857D01*
X115161190Y-82752476D01*
X115137380Y-82800095D01*
X115113571Y-82823904D01*
X115065952Y-82847714D01*
X114970714Y-82871523D01*
X114851666Y-82871523D01*
X114756428Y-82847714D01*
X114708809Y-82823904D01*
X114685000Y-82800095D01*
X114661190Y-82752476D01*
X114970714Y-82371523D02*
X114970714Y-81990571D01*
X115161190Y-81752476D02*
X114661190Y-81752476D01*
X115018333Y-81585809D01*
X114661190Y-81419142D01*
X115161190Y-81419142D01*
X114661190Y-81085809D02*
X114661190Y-80990571D01*
X114685000Y-80942952D01*
X114732619Y-80895333D01*
X114827857Y-80871523D01*
X114994523Y-80871523D01*
X115089761Y-80895333D01*
X115137380Y-80942952D01*
X115161190Y-80990571D01*
X115161190Y-81085809D01*
X115137380Y-81133428D01*
X115089761Y-81181047D01*
X114994523Y-81204857D01*
X114827857Y-81204857D01*
X114732619Y-81181047D01*
X114685000Y-81133428D01*
X114661190Y-81085809D01*
X115137380Y-80681047D02*
X115161190Y-80609619D01*
X115161190Y-80490571D01*
X115137380Y-80442952D01*
X115113571Y-80419142D01*
X115065952Y-80395333D01*
X115018333Y-80395333D01*
X114970714Y-80419142D01*
X114946904Y-80442952D01*
X114923095Y-80490571D01*
X114899285Y-80585809D01*
X114875476Y-80633428D01*
X114851666Y-80657238D01*
X114804047Y-80681047D01*
X114756428Y-80681047D01*
X114708809Y-80657238D01*
X114685000Y-80633428D01*
X114661190Y-80585809D01*
X114661190Y-80466761D01*
X114685000Y-80395333D01*
X115161190Y-80181047D02*
X114661190Y-80181047D01*
X117201190Y-82585809D02*
X117201190Y-82252476D01*
X117701190Y-82466761D01*
X117510714Y-82062000D02*
X117510714Y-81681047D01*
X117653571Y-81157238D02*
X117677380Y-81181047D01*
X117701190Y-81252476D01*
X117701190Y-81300095D01*
X117677380Y-81371523D01*
X117629761Y-81419142D01*
X117582142Y-81442952D01*
X117486904Y-81466761D01*
X117415476Y-81466761D01*
X117320238Y-81442952D01*
X117272619Y-81419142D01*
X117225000Y-81371523D01*
X117201190Y-81300095D01*
X117201190Y-81252476D01*
X117225000Y-81181047D01*
X117248809Y-81157238D01*
X117677380Y-80966761D02*
X117701190Y-80895333D01*
X117701190Y-80776285D01*
X117677380Y-80728666D01*
X117653571Y-80704857D01*
X117605952Y-80681047D01*
X117558333Y-80681047D01*
X117510714Y-80704857D01*
X117486904Y-80728666D01*
X117463095Y-80776285D01*
X117439285Y-80871523D01*
X117415476Y-80919142D01*
X117391666Y-80942952D01*
X117344047Y-80966761D01*
X117296428Y-80966761D01*
X117248809Y-80942952D01*
X117225000Y-80919142D01*
X117201190Y-80871523D01*
X117201190Y-80752476D01*
X117225000Y-80681047D01*
X117701190Y-80466761D02*
X117201190Y-80466761D01*
X117701190Y-80181047D01*
X117201190Y-80181047D01*
X120050714Y-81942952D02*
X120050714Y-81562000D01*
X120241190Y-81752476D02*
X119860238Y-81752476D01*
X119741190Y-81371523D02*
X119741190Y-81062000D01*
X119931666Y-81228666D01*
X119931666Y-81157238D01*
X119955476Y-81109619D01*
X119979285Y-81085809D01*
X120026904Y-81062000D01*
X120145952Y-81062000D01*
X120193571Y-81085809D01*
X120217380Y-81109619D01*
X120241190Y-81157238D01*
X120241190Y-81300095D01*
X120217380Y-81347714D01*
X120193571Y-81371523D01*
X119741190Y-80919142D02*
X120241190Y-80752476D01*
X119741190Y-80585809D01*
X119741190Y-80466761D02*
X119741190Y-80157238D01*
X119931666Y-80323904D01*
X119931666Y-80252476D01*
X119955476Y-80204857D01*
X119979285Y-80181047D01*
X120026904Y-80157238D01*
X120145952Y-80157238D01*
X120193571Y-80181047D01*
X120217380Y-80204857D01*
X120241190Y-80252476D01*
X120241190Y-80395333D01*
X120217380Y-80442952D01*
X120193571Y-80466761D01*
X112621190Y-74128952D02*
X112121190Y-74128952D01*
X112478333Y-73962285D01*
X112121190Y-73795619D01*
X112621190Y-73795619D01*
X112621190Y-73557523D02*
X112121190Y-73557523D01*
X112597380Y-73343238D02*
X112621190Y-73271809D01*
X112621190Y-73152761D01*
X112597380Y-73105142D01*
X112573571Y-73081333D01*
X112525952Y-73057523D01*
X112478333Y-73057523D01*
X112430714Y-73081333D01*
X112406904Y-73105142D01*
X112383095Y-73152761D01*
X112359285Y-73248000D01*
X112335476Y-73295619D01*
X112311666Y-73319428D01*
X112264047Y-73343238D01*
X112216428Y-73343238D01*
X112168809Y-73319428D01*
X112145000Y-73295619D01*
X112121190Y-73248000D01*
X112121190Y-73128952D01*
X112145000Y-73057523D01*
X112121190Y-72748000D02*
X112121190Y-72652761D01*
X112145000Y-72605142D01*
X112192619Y-72557523D01*
X112287857Y-72533714D01*
X112454523Y-72533714D01*
X112549761Y-72557523D01*
X112597380Y-72605142D01*
X112621190Y-72652761D01*
X112621190Y-72748000D01*
X112597380Y-72795619D01*
X112549761Y-72843238D01*
X112454523Y-72867047D01*
X112287857Y-72867047D01*
X112192619Y-72843238D01*
X112145000Y-72795619D01*
X112121190Y-72748000D01*
X112430714Y-72319428D02*
X112430714Y-71938476D01*
X112621190Y-71676571D02*
X112621190Y-71581333D01*
X112597380Y-71533714D01*
X112573571Y-71509904D01*
X112502142Y-71462285D01*
X112406904Y-71438476D01*
X112216428Y-71438476D01*
X112168809Y-71462285D01*
X112145000Y-71486095D01*
X112121190Y-71533714D01*
X112121190Y-71628952D01*
X112145000Y-71676571D01*
X112168809Y-71700380D01*
X112216428Y-71724190D01*
X112335476Y-71724190D01*
X112383095Y-71700380D01*
X112406904Y-71676571D01*
X112430714Y-71628952D01*
X112430714Y-71533714D01*
X112406904Y-71486095D01*
X112383095Y-71462285D01*
X112335476Y-71438476D01*
X115137380Y-74147761D02*
X115161190Y-74076333D01*
X115161190Y-73957285D01*
X115137380Y-73909666D01*
X115113571Y-73885857D01*
X115065952Y-73862047D01*
X115018333Y-73862047D01*
X114970714Y-73885857D01*
X114946904Y-73909666D01*
X114923095Y-73957285D01*
X114899285Y-74052523D01*
X114875476Y-74100142D01*
X114851666Y-74123952D01*
X114804047Y-74147761D01*
X114756428Y-74147761D01*
X114708809Y-74123952D01*
X114685000Y-74100142D01*
X114661190Y-74052523D01*
X114661190Y-73933476D01*
X114685000Y-73862047D01*
X115113571Y-73362047D02*
X115137380Y-73385857D01*
X115161190Y-73457285D01*
X115161190Y-73504904D01*
X115137380Y-73576333D01*
X115089761Y-73623952D01*
X115042142Y-73647761D01*
X114946904Y-73671571D01*
X114875476Y-73671571D01*
X114780238Y-73647761D01*
X114732619Y-73623952D01*
X114685000Y-73576333D01*
X114661190Y-73504904D01*
X114661190Y-73457285D01*
X114685000Y-73385857D01*
X114708809Y-73362047D01*
X115161190Y-73147761D02*
X114661190Y-73147761D01*
X115161190Y-72862047D02*
X114875476Y-73076333D01*
X114661190Y-72862047D02*
X114946904Y-73147761D01*
X114970714Y-72647761D02*
X114970714Y-72266809D01*
X115161190Y-71766809D02*
X115161190Y-72052523D01*
X115161190Y-71909666D02*
X114661190Y-71909666D01*
X114732619Y-71957285D01*
X114780238Y-72004904D01*
X114804047Y-72052523D01*
X115161190Y-71290619D02*
X115161190Y-71576333D01*
X115161190Y-71433476D02*
X114661190Y-71433476D01*
X114732619Y-71481095D01*
X114780238Y-71528714D01*
X114804047Y-71576333D01*
X117653571Y-73838238D02*
X117677380Y-73862047D01*
X117701190Y-73933476D01*
X117701190Y-73981095D01*
X117677380Y-74052523D01*
X117629761Y-74100142D01*
X117582142Y-74123952D01*
X117486904Y-74147761D01*
X117415476Y-74147761D01*
X117320238Y-74123952D01*
X117272619Y-74100142D01*
X117225000Y-74052523D01*
X117201190Y-73981095D01*
X117201190Y-73933476D01*
X117225000Y-73862047D01*
X117248809Y-73838238D01*
X117439285Y-73623952D02*
X117439285Y-73457285D01*
X117701190Y-73385857D02*
X117701190Y-73623952D01*
X117201190Y-73623952D01*
X117201190Y-73385857D01*
X117510714Y-73171571D02*
X117510714Y-72790619D01*
X117201190Y-72314428D02*
X117201190Y-72552523D01*
X117439285Y-72576333D01*
X117415476Y-72552523D01*
X117391666Y-72504904D01*
X117391666Y-72385857D01*
X117415476Y-72338238D01*
X117439285Y-72314428D01*
X117486904Y-72290619D01*
X117605952Y-72290619D01*
X117653571Y-72314428D01*
X117677380Y-72338238D01*
X117701190Y-72385857D01*
X117701190Y-72504904D01*
X117677380Y-72552523D01*
X117653571Y-72576333D01*
X119765000Y-73862047D02*
X119741190Y-73909666D01*
X119741190Y-73981095D01*
X119765000Y-74052523D01*
X119812619Y-74100142D01*
X119860238Y-74123952D01*
X119955476Y-74147761D01*
X120026904Y-74147761D01*
X120122142Y-74123952D01*
X120169761Y-74100142D01*
X120217380Y-74052523D01*
X120241190Y-73981095D01*
X120241190Y-73933476D01*
X120217380Y-73862047D01*
X120193571Y-73838238D01*
X120026904Y-73838238D01*
X120026904Y-73933476D01*
X120241190Y-73623952D02*
X119741190Y-73623952D01*
X120241190Y-73338238D01*
X119741190Y-73338238D01*
X120241190Y-73100142D02*
X119741190Y-73100142D01*
X119741190Y-72981095D01*
X119765000Y-72909666D01*
X119812619Y-72862047D01*
X119860238Y-72838238D01*
X119955476Y-72814428D01*
X120026904Y-72814428D01*
X120122142Y-72838238D01*
X120169761Y-72862047D01*
X120217380Y-72909666D01*
X120241190Y-72981095D01*
X120241190Y-73100142D01*
D10*
X102878095Y-78192380D02*
X103449523Y-78192380D01*
X103163809Y-79192380D02*
X103163809Y-78192380D01*
X103687619Y-78192380D02*
X104354285Y-79192380D01*
X104354285Y-78192380D02*
X103687619Y-79192380D01*
X104735238Y-79192380D02*
X104735238Y-78192380D01*
X104973333Y-78192380D01*
X105116190Y-78240000D01*
X105211428Y-78335238D01*
X105259047Y-78430476D01*
X105306666Y-78620952D01*
X105306666Y-78763809D01*
X105259047Y-78954285D01*
X105211428Y-79049523D01*
X105116190Y-79144761D01*
X104973333Y-79192380D01*
X104735238Y-79192380D01*
X103473333Y-81732380D02*
X103140000Y-81256190D01*
X102901904Y-81732380D02*
X102901904Y-80732380D01*
X103282857Y-80732380D01*
X103378095Y-80780000D01*
X103425714Y-80827619D01*
X103473333Y-80922857D01*
X103473333Y-81065714D01*
X103425714Y-81160952D01*
X103378095Y-81208571D01*
X103282857Y-81256190D01*
X102901904Y-81256190D01*
X103806666Y-80732380D02*
X104473333Y-81732380D01*
X104473333Y-80732380D02*
X103806666Y-81732380D01*
X104854285Y-81732380D02*
X104854285Y-80732380D01*
X105092380Y-80732380D01*
X105235238Y-80780000D01*
X105330476Y-80875238D01*
X105378095Y-80970476D01*
X105425714Y-81160952D01*
X105425714Y-81303809D01*
X105378095Y-81494285D01*
X105330476Y-81589523D01*
X105235238Y-81684761D01*
X105092380Y-81732380D01*
X104854285Y-81732380D01*
X103378095Y-83320000D02*
X103282857Y-83272380D01*
X103140000Y-83272380D01*
X102997142Y-83320000D01*
X102901904Y-83415238D01*
X102854285Y-83510476D01*
X102806666Y-83700952D01*
X102806666Y-83843809D01*
X102854285Y-84034285D01*
X102901904Y-84129523D01*
X102997142Y-84224761D01*
X103140000Y-84272380D01*
X103235238Y-84272380D01*
X103378095Y-84224761D01*
X103425714Y-84177142D01*
X103425714Y-83843809D01*
X103235238Y-83843809D01*
X103854285Y-84272380D02*
X103854285Y-83272380D01*
X104425714Y-84272380D01*
X104425714Y-83272380D01*
X104901904Y-84272380D02*
X104901904Y-83272380D01*
X105140000Y-83272380D01*
X105282857Y-83320000D01*
X105378095Y-83415238D01*
X105425714Y-83510476D01*
X105473333Y-83700952D01*
X105473333Y-83843809D01*
X105425714Y-84034285D01*
X105378095Y-84129523D01*
X105282857Y-84224761D01*
X105140000Y-84272380D01*
X104901904Y-84272380D01*
X102854285Y-86431428D02*
X103616190Y-86431428D01*
X103235238Y-86812380D02*
X103235238Y-86050476D01*
X104568571Y-85812380D02*
X104092380Y-85812380D01*
X104044761Y-86288571D01*
X104092380Y-86240952D01*
X104187619Y-86193333D01*
X104425714Y-86193333D01*
X104520952Y-86240952D01*
X104568571Y-86288571D01*
X104616190Y-86383809D01*
X104616190Y-86621904D01*
X104568571Y-86717142D01*
X104520952Y-86764761D01*
X104425714Y-86812380D01*
X104187619Y-86812380D01*
X104092380Y-86764761D01*
X104044761Y-86717142D01*
X104901904Y-85812380D02*
X105235238Y-86812380D01*
X105568571Y-85812380D01*
%TO.C,U1*%
X108458095Y-76922380D02*
X108458095Y-77731904D01*
X108505714Y-77827142D01*
X108553333Y-77874761D01*
X108648571Y-77922380D01*
X108839047Y-77922380D01*
X108934285Y-77874761D01*
X108981904Y-77827142D01*
X109029523Y-77731904D01*
X109029523Y-76922380D01*
X110029523Y-77922380D02*
X109458095Y-77922380D01*
X109743809Y-77922380D02*
X109743809Y-76922380D01*
X109648571Y-77065238D01*
X109553333Y-77160476D01*
X109458095Y-77208095D01*
%TO.C,C1*%
X125563333Y-75897142D02*
X125515714Y-75944761D01*
X125372857Y-75992380D01*
X125277619Y-75992380D01*
X125134761Y-75944761D01*
X125039523Y-75849523D01*
X124991904Y-75754285D01*
X124944285Y-75563809D01*
X124944285Y-75420952D01*
X124991904Y-75230476D01*
X125039523Y-75135238D01*
X125134761Y-75040000D01*
X125277619Y-74992380D01*
X125372857Y-74992380D01*
X125515714Y-75040000D01*
X125563333Y-75087619D01*
X126515714Y-75992380D02*
X125944285Y-75992380D01*
X126230000Y-75992380D02*
X126230000Y-74992380D01*
X126134761Y-75135238D01*
X126039523Y-75230476D01*
X125944285Y-75278095D01*
%TO.C,C2*%
X150963333Y-75897142D02*
X150915714Y-75944761D01*
X150772857Y-75992380D01*
X150677619Y-75992380D01*
X150534761Y-75944761D01*
X150439523Y-75849523D01*
X150391904Y-75754285D01*
X150344285Y-75563809D01*
X150344285Y-75420952D01*
X150391904Y-75230476D01*
X150439523Y-75135238D01*
X150534761Y-75040000D01*
X150677619Y-74992380D01*
X150772857Y-74992380D01*
X150915714Y-75040000D01*
X150963333Y-75087619D01*
X151344285Y-75087619D02*
X151391904Y-75040000D01*
X151487142Y-74992380D01*
X151725238Y-74992380D01*
X151820476Y-75040000D01*
X151868095Y-75087619D01*
X151915714Y-75182857D01*
X151915714Y-75278095D01*
X151868095Y-75420952D01*
X151296666Y-75992380D01*
X151915714Y-75992380D01*
%TO.C,U2*%
X133858095Y-76749380D02*
X133858095Y-77558904D01*
X133905714Y-77654142D01*
X133953333Y-77701761D01*
X134048571Y-77749380D01*
X134239047Y-77749380D01*
X134334285Y-77701761D01*
X134381904Y-77654142D01*
X134429523Y-77558904D01*
X134429523Y-76749380D01*
X134858095Y-76844619D02*
X134905714Y-76797000D01*
X135000952Y-76749380D01*
X135239047Y-76749380D01*
X135334285Y-76797000D01*
X135381904Y-76844619D01*
X135429523Y-76939857D01*
X135429523Y-77035095D01*
X135381904Y-77177952D01*
X134810476Y-77749380D01*
X135429523Y-77749380D01*
%TO.C,J1*%
X99996666Y-89622380D02*
X99996666Y-90336666D01*
X99949047Y-90479523D01*
X99853809Y-90574761D01*
X99710952Y-90622380D01*
X99615714Y-90622380D01*
X100996666Y-90622380D02*
X100425238Y-90622380D01*
X100710952Y-90622380D02*
X100710952Y-89622380D01*
X100615714Y-89765238D01*
X100520476Y-89860476D01*
X100425238Y-89908095D01*
D12*
%TO.C,U1*%
X122025000Y-74300000D02*
X122025000Y-74300000D01*
X122025000Y-103500000D02*
X106575000Y-103500000D01*
X106575000Y-103500000D02*
X106575000Y-74300000D01*
X120941000Y-77170000D02*
X118655000Y-77170000D01*
X110781000Y-79964000D02*
X110781000Y-74630000D01*
X110781000Y-74630000D02*
X110781000Y-74630000D01*
X118655000Y-77170000D02*
X118655000Y-74884000D01*
X122025000Y-74300000D02*
X122025000Y-103500000D01*
X118655000Y-74884000D02*
X118655000Y-74884000D01*
X106575000Y-74300000D02*
X122025000Y-74300000D01*
X121449000Y-79964000D02*
X110781000Y-79964000D01*
X121449000Y-74630000D02*
X121449000Y-74630000D01*
X110781000Y-74630000D02*
X121449000Y-74630000D01*
X121449000Y-74630000D02*
X121449000Y-79964000D01*
%TO.C,C1*%
X127990000Y-76480000D02*
X127990000Y-77680000D01*
X122730000Y-77180000D02*
X123230000Y-77180000D01*
X123470000Y-79935563D02*
X123470000Y-79800000D01*
X122980000Y-76930000D02*
X122980000Y-77430000D01*
X124534437Y-81000000D02*
X127990000Y-81000000D01*
X124534437Y-76480000D02*
X127990000Y-76480000D01*
X123470000Y-77544437D02*
X124534437Y-76480000D01*
X127990000Y-81000000D02*
X127990000Y-79800000D01*
X123470000Y-79935563D02*
X124534437Y-81000000D01*
X123470000Y-77544437D02*
X123470000Y-77680000D01*
%TO.C,C2*%
X148870000Y-77544437D02*
X148870000Y-77680000D01*
X148130000Y-77180000D02*
X148630000Y-77180000D01*
X148870000Y-79935563D02*
X149934437Y-81000000D01*
X153390000Y-76480000D02*
X153390000Y-77680000D01*
X149934437Y-76480000D02*
X153390000Y-76480000D01*
X148870000Y-79935563D02*
X148870000Y-79800000D01*
X153390000Y-81000000D02*
X153390000Y-79800000D01*
X149934437Y-81000000D02*
X153390000Y-81000000D01*
X148870000Y-77544437D02*
X149934437Y-76480000D01*
X148380000Y-76930000D02*
X148380000Y-77430000D01*
%TO.C,U2*%
X147425000Y-74300000D02*
X147425000Y-103500000D01*
X146849000Y-74630000D02*
X146849000Y-79964000D01*
X136181000Y-79964000D02*
X136181000Y-74630000D01*
X136181000Y-74630000D02*
X136181000Y-74630000D01*
X146849000Y-79964000D02*
X136181000Y-79964000D01*
X136181000Y-74630000D02*
X146849000Y-74630000D01*
X144055000Y-74884000D02*
X144055000Y-74884000D01*
X146849000Y-74630000D02*
X146849000Y-74630000D01*
X147425000Y-103500000D02*
X131975000Y-103500000D01*
X147425000Y-74300000D02*
X147425000Y-74300000D01*
X131975000Y-74300000D02*
X147425000Y-74300000D01*
X144055000Y-77170000D02*
X144055000Y-74884000D01*
X131975000Y-103500000D02*
X131975000Y-74300000D01*
X146341000Y-77170000D02*
X144055000Y-77170000D01*
%TO.C,J1*%
X99460000Y-79080000D02*
X99870000Y-79080000D01*
X90830000Y-76269045D02*
X99460000Y-76269045D01*
X90830000Y-74970000D02*
X99460000Y-74970000D01*
X90830000Y-74850000D02*
X99460000Y-74850000D01*
X90830000Y-75088095D02*
X99460000Y-75088095D01*
X99460000Y-83440000D02*
X99870000Y-83440000D01*
X90830000Y-76741425D02*
X99460000Y-76741425D01*
X90830000Y-82530000D02*
X99460000Y-82530000D01*
X90830000Y-79990000D02*
X99460000Y-79990000D01*
X90830000Y-76387140D02*
X99460000Y-76387140D01*
X90830000Y-76977615D02*
X99460000Y-76977615D01*
X90830000Y-75796665D02*
X99460000Y-75796665D01*
X90830000Y-75206190D02*
X99460000Y-75206190D01*
X99460000Y-80900000D02*
X99870000Y-80900000D01*
X90830000Y-76032855D02*
X99460000Y-76032855D01*
X99460000Y-78360000D02*
X99870000Y-78360000D01*
X99460000Y-86700000D02*
X99870000Y-86700000D01*
X90830000Y-76859520D02*
X99460000Y-76859520D01*
X90830000Y-75560475D02*
X99460000Y-75560475D01*
X102030000Y-74850000D02*
X102030000Y-76180000D01*
X90830000Y-87670000D02*
X99460000Y-87670000D01*
X90830000Y-74850000D02*
X90830000Y-87670000D01*
X100920000Y-74850000D02*
X102030000Y-74850000D01*
X99460000Y-75820000D02*
X99810000Y-75820000D01*
X99460000Y-84160000D02*
X99870000Y-84160000D01*
X99460000Y-81620000D02*
X99870000Y-81620000D01*
X90830000Y-77213805D02*
X99460000Y-77213805D01*
X90830000Y-77450000D02*
X99460000Y-77450000D01*
X90830000Y-77331900D02*
X99460000Y-77331900D01*
X90830000Y-75442380D02*
X99460000Y-75442380D01*
X90830000Y-76623330D02*
X99460000Y-76623330D01*
X99460000Y-76540000D02*
X99810000Y-76540000D01*
X90830000Y-75324285D02*
X99460000Y-75324285D01*
X90830000Y-77095710D02*
X99460000Y-77095710D01*
X90830000Y-75678570D02*
X99460000Y-75678570D01*
X90830000Y-76505235D02*
X99460000Y-76505235D01*
X90830000Y-75914760D02*
X99460000Y-75914760D01*
X90830000Y-85070000D02*
X99460000Y-85070000D01*
X90830000Y-76150950D02*
X99460000Y-76150950D01*
X99460000Y-85980000D02*
X99870000Y-85980000D01*
X99460000Y-74850000D02*
X99460000Y-87670000D01*
%TD*%
%LPC*%
D13*
%TO.C,U1*%
X119925000Y-75900000D03*
D14*
X119925000Y-78440000D03*
X117385000Y-75900000D03*
X117385000Y-78440000D03*
X114845000Y-75900000D03*
X114845000Y-78440000D03*
X112305000Y-75900000D03*
X112305000Y-78440000D03*
%TD*%
D15*
%TO.C,C1*%
X123930000Y-78740000D03*
X127530000Y-78740000D03*
%TD*%
%TO.C,C2*%
X149330000Y-78740000D03*
X152930000Y-78740000D03*
%TD*%
D13*
%TO.C,U2*%
X145325000Y-75900000D03*
D14*
X145325000Y-78440000D03*
X142785000Y-75900000D03*
X142785000Y-78440000D03*
X140245000Y-75900000D03*
X140245000Y-78440000D03*
X137705000Y-75900000D03*
X137705000Y-78440000D03*
%TD*%
D13*
%TO.C,J1*%
X100920000Y-76180000D03*
D16*
X100920000Y-78720000D03*
X100920000Y-81260000D03*
X100920000Y-83800000D03*
X100920000Y-86340000D03*
%TD*%
D13*
%TO.C,J2*%
X102900000Y-69870000D03*
D16*
X102900000Y-67330000D03*
X105440000Y-69870000D03*
X105440000Y-67330000D03*
X107980000Y-69870000D03*
X107980000Y-67330000D03*
X110520000Y-69870000D03*
X110520000Y-67330000D03*
X113060000Y-69870000D03*
X113060000Y-67330000D03*
X115600000Y-69870000D03*
X115600000Y-67330000D03*
X118140000Y-69870000D03*
X118140000Y-67330000D03*
X120680000Y-69870000D03*
X120680000Y-67330000D03*
X123220000Y-69870000D03*
X123220000Y-67330000D03*
X125760000Y-69870000D03*
X125760000Y-67330000D03*
X128300000Y-69870000D03*
X128300000Y-67330000D03*
X130840000Y-69870000D03*
X130840000Y-67330000D03*
X133380000Y-69870000D03*
X133380000Y-67330000D03*
X135920000Y-69870000D03*
X135920000Y-67330000D03*
X138460000Y-69870000D03*
X138460000Y-67330000D03*
X141000000Y-69870000D03*
X141000000Y-67330000D03*
X143540000Y-69870000D03*
X143540000Y-67330000D03*
X146080000Y-69870000D03*
X146080000Y-67330000D03*
X148620000Y-69870000D03*
X148620000Y-67330000D03*
X151160000Y-69870000D03*
X151160000Y-67330000D03*
%TD*%
M02*
