%TF.GenerationSoftware,KiCad,Pcbnew,6.0.8-f2edbf62ab~116~ubuntu20.04.1*%
%TF.CreationDate,2022-11-10T01:37:22-08:00*%
%TF.ProjectId,parthiv_pcb,70617274-6869-4765-9f70-63622e6b6963,rev?*%
%TF.SameCoordinates,Original*%
%TF.FileFunction,Soldermask,Bot*%
%TF.FilePolarity,Negative*%
%FSLAX46Y46*%
G04 Gerber Fmt 4.6, Leading zero omitted, Abs format (unit mm)*
G04 Created by KiCad (PCBNEW 6.0.8-f2edbf62ab~116~ubuntu20.04.1) date 2022-11-10 01:37:22*
%MOMM*%
%LPD*%
G01*
G04 APERTURE LIST*
%ADD10R,1.700000X1.700000*%
%ADD11C,1.700000*%
%ADD12O,1.700000X1.700000*%
G04 APERTURE END LIST*
D10*
%TO.C,U1*%
X119925000Y-75900000D03*
D11*
X119925000Y-78440000D03*
X117385000Y-75900000D03*
X117385000Y-78440000D03*
X114845000Y-75900000D03*
X114845000Y-78440000D03*
X112305000Y-75900000D03*
X112305000Y-78440000D03*
%TD*%
D10*
%TO.C,U2*%
X145325000Y-75900000D03*
D11*
X145325000Y-78440000D03*
X142785000Y-75900000D03*
X142785000Y-78440000D03*
X140245000Y-75900000D03*
X140245000Y-78440000D03*
X137705000Y-75900000D03*
X137705000Y-78440000D03*
%TD*%
D10*
%TO.C,J1*%
X100920000Y-76180000D03*
D12*
X100920000Y-78720000D03*
X100920000Y-81260000D03*
X100920000Y-83800000D03*
X100920000Y-86340000D03*
%TD*%
D10*
%TO.C,J2*%
X102900000Y-69870000D03*
D12*
X102900000Y-67330000D03*
X105440000Y-69870000D03*
X105440000Y-67330000D03*
X107980000Y-69870000D03*
X107980000Y-67330000D03*
X110520000Y-69870000D03*
X110520000Y-67330000D03*
X113060000Y-69870000D03*
X113060000Y-67330000D03*
X115600000Y-69870000D03*
X115600000Y-67330000D03*
X118140000Y-69870000D03*
X118140000Y-67330000D03*
X120680000Y-69870000D03*
X120680000Y-67330000D03*
X123220000Y-69870000D03*
X123220000Y-67330000D03*
X125760000Y-69870000D03*
X125760000Y-67330000D03*
X128300000Y-69870000D03*
X128300000Y-67330000D03*
X130840000Y-69870000D03*
X130840000Y-67330000D03*
X133380000Y-69870000D03*
X133380000Y-67330000D03*
X135920000Y-69870000D03*
X135920000Y-67330000D03*
X138460000Y-69870000D03*
X138460000Y-67330000D03*
X141000000Y-69870000D03*
X141000000Y-67330000D03*
X143540000Y-69870000D03*
X143540000Y-67330000D03*
X146080000Y-69870000D03*
X146080000Y-67330000D03*
X148620000Y-69870000D03*
X148620000Y-67330000D03*
X151160000Y-69870000D03*
X151160000Y-67330000D03*
%TD*%
M02*
