%TF.GenerationSoftware,KiCad,Pcbnew,6.0.8-f2edbf62ab~116~ubuntu20.04.1*%
%TF.CreationDate,2022-11-10T01:37:22-08:00*%
%TF.ProjectId,parthiv_pcb,70617274-6869-4765-9f70-63622e6b6963,rev?*%
%TF.SameCoordinates,Original*%
%TF.FileFunction,Copper,L2,Bot*%
%TF.FilePolarity,Positive*%
%FSLAX46Y46*%
G04 Gerber Fmt 4.6, Leading zero omitted, Abs format (unit mm)*
G04 Created by KiCad (PCBNEW 6.0.8-f2edbf62ab~116~ubuntu20.04.1) date 2022-11-10 01:37:22*
%MOMM*%
%LPD*%
G01*
G04 APERTURE LIST*
%TA.AperFunction,ComponentPad*%
%ADD10R,1.700000X1.700000*%
%TD*%
%TA.AperFunction,ComponentPad*%
%ADD11C,1.700000*%
%TD*%
%TA.AperFunction,ComponentPad*%
%ADD12O,1.700000X1.700000*%
%TD*%
%TA.AperFunction,ViaPad*%
%ADD13C,0.800000*%
%TD*%
%TA.AperFunction,Conductor*%
%ADD14C,0.250000*%
%TD*%
G04 APERTURE END LIST*
D10*
%TO.P,U1,1,GND*%
%TO.N,GND*%
X119925000Y-75900000D03*
D11*
%TO.P,U1,2,VCC*%
%TO.N,+3V3*%
X119925000Y-78440000D03*
%TO.P,U1,3,CE*%
%TO.N,Net-(J2-Pad29)*%
X117385000Y-75900000D03*
%TO.P,U1,4,~{CSN}*%
%TO.N,Net-(J2-Pad26)*%
X117385000Y-78440000D03*
%TO.P,U1,5,SCK*%
%TO.N,Net-(J2-Pad23)*%
X114845000Y-75900000D03*
%TO.P,U1,6,MOSI*%
%TO.N,Net-(J2-Pad19)*%
X114845000Y-78440000D03*
%TO.P,U1,7,MISO*%
%TO.N,Net-(J2-Pad21)*%
X112305000Y-75900000D03*
%TO.P,U1,8,IRQ*%
%TO.N,unconnected-(U1-Pad8)*%
X112305000Y-78440000D03*
%TD*%
D10*
%TO.P,U2,1,GND*%
%TO.N,GND*%
X145325000Y-75900000D03*
D11*
%TO.P,U2,2,VCC*%
%TO.N,+3V3*%
X145325000Y-78440000D03*
%TO.P,U2,3,CE*%
%TO.N,Net-(J2-Pad31)*%
X142785000Y-75900000D03*
%TO.P,U2,4,~{CSN}*%
%TO.N,Net-(J2-Pad24)*%
X142785000Y-78440000D03*
%TO.P,U2,5,SCK*%
%TO.N,Net-(J2-Pad23)*%
X140245000Y-75900000D03*
%TO.P,U2,6,MOSI*%
%TO.N,Net-(J2-Pad19)*%
X140245000Y-78440000D03*
%TO.P,U2,7,MISO*%
%TO.N,Net-(J2-Pad21)*%
X137705000Y-75900000D03*
%TO.P,U2,8,IRQ*%
%TO.N,unconnected-(U2-Pad8)*%
X137705000Y-78440000D03*
%TD*%
D10*
%TO.P,J1,1,3V3*%
%TO.N,unconnected-(J1-Pad1)*%
X100920000Y-76180000D03*
D12*
%TO.P,J1,2,TX*%
%TO.N,Net-(J1-Pad2)*%
X100920000Y-78720000D03*
%TO.P,J1,3,RX*%
%TO.N,Net-(J1-Pad3)*%
X100920000Y-81260000D03*
%TO.P,J1,4,GND*%
%TO.N,GND*%
X100920000Y-83800000D03*
%TO.P,J1,5,5V*%
%TO.N,+5V*%
X100920000Y-86340000D03*
%TD*%
D10*
%TO.P,J2,1,3V3*%
%TO.N,+3V3*%
X102900000Y-69870000D03*
D12*
%TO.P,J2,2,5V*%
%TO.N,+5V*%
X102900000Y-67330000D03*
%TO.P,J2,3,SDA/GPIO2*%
%TO.N,unconnected-(J2-Pad3)*%
X105440000Y-69870000D03*
%TO.P,J2,4,5V*%
%TO.N,+5V*%
X105440000Y-67330000D03*
%TO.P,J2,5,SCL/GPIO3*%
%TO.N,unconnected-(J2-Pad5)*%
X107980000Y-69870000D03*
%TO.P,J2,6,GND*%
%TO.N,GND*%
X107980000Y-67330000D03*
%TO.P,J2,7,GCLK0/GPIO4*%
%TO.N,unconnected-(J2-Pad7)*%
X110520000Y-69870000D03*
%TO.P,J2,8,GPIO14/TXD*%
%TO.N,Net-(J1-Pad3)*%
X110520000Y-67330000D03*
%TO.P,J2,9,GND*%
%TO.N,GND*%
X113060000Y-69870000D03*
%TO.P,J2,10,GPIO15/RXD*%
%TO.N,Net-(J1-Pad2)*%
X113060000Y-67330000D03*
%TO.P,J2,11,GPIO17*%
%TO.N,unconnected-(J2-Pad11)*%
X115600000Y-69870000D03*
%TO.P,J2,12,GPIO18/PWM0*%
%TO.N,unconnected-(J2-Pad12)*%
X115600000Y-67330000D03*
%TO.P,J2,13,GPIO27*%
%TO.N,unconnected-(J2-Pad13)*%
X118140000Y-69870000D03*
%TO.P,J2,14,GND*%
%TO.N,GND*%
X118140000Y-67330000D03*
%TO.P,J2,15,GPIO22*%
%TO.N,unconnected-(J2-Pad15)*%
X120680000Y-69870000D03*
%TO.P,J2,16,GPIO23*%
%TO.N,unconnected-(J2-Pad16)*%
X120680000Y-67330000D03*
%TO.P,J2,17,3V3*%
%TO.N,+3V3*%
X123220000Y-69870000D03*
%TO.P,J2,18,GPIO24*%
%TO.N,unconnected-(J2-Pad18)*%
X123220000Y-67330000D03*
%TO.P,J2,19,MOSI0/GPIO10*%
%TO.N,Net-(J2-Pad19)*%
X125760000Y-69870000D03*
%TO.P,J2,20,GND*%
%TO.N,GND*%
X125760000Y-67330000D03*
%TO.P,J2,21,MISO0/GPIO9*%
%TO.N,Net-(J2-Pad21)*%
X128300000Y-69870000D03*
%TO.P,J2,22,GPIO25*%
%TO.N,unconnected-(J2-Pad22)*%
X128300000Y-67330000D03*
%TO.P,J2,23,SCLK0/GPIO11*%
%TO.N,Net-(J2-Pad23)*%
X130840000Y-69870000D03*
%TO.P,J2,24,~{CE0}/GPIO8*%
%TO.N,Net-(J2-Pad24)*%
X130840000Y-67330000D03*
%TO.P,J2,25,GND*%
%TO.N,GND*%
X133380000Y-69870000D03*
%TO.P,J2,26,~{CE1}/GPIO7*%
%TO.N,Net-(J2-Pad26)*%
X133380000Y-67330000D03*
%TO.P,J2,27,ID_SD/GPIO0*%
%TO.N,unconnected-(J2-Pad27)*%
X135920000Y-69870000D03*
%TO.P,J2,28,ID_SC/GPIO1*%
%TO.N,unconnected-(J2-Pad28)*%
X135920000Y-67330000D03*
%TO.P,J2,29,GCLK1/GPIO5*%
%TO.N,Net-(J2-Pad29)*%
X138460000Y-69870000D03*
%TO.P,J2,30,GND*%
%TO.N,GND*%
X138460000Y-67330000D03*
%TO.P,J2,31,GCLK2/GPIO6*%
%TO.N,Net-(J2-Pad31)*%
X141000000Y-69870000D03*
%TO.P,J2,32,PWM0/GPIO12*%
%TO.N,unconnected-(J2-Pad32)*%
X141000000Y-67330000D03*
%TO.P,J2,33,PWM1/GPIO13*%
%TO.N,unconnected-(J2-Pad33)*%
X143540000Y-69870000D03*
%TO.P,J2,34,GND*%
%TO.N,GND*%
X143540000Y-67330000D03*
%TO.P,J2,35,GPIO19/MISO1*%
%TO.N,unconnected-(J2-Pad35)*%
X146080000Y-69870000D03*
%TO.P,J2,36,GPIO16*%
%TO.N,unconnected-(J2-Pad36)*%
X146080000Y-67330000D03*
%TO.P,J2,37,GPIO26*%
%TO.N,unconnected-(J2-Pad37)*%
X148620000Y-69870000D03*
%TO.P,J2,38,GPIO20/MOSI1*%
%TO.N,unconnected-(J2-Pad38)*%
X148620000Y-67330000D03*
%TO.P,J2,39,GND*%
%TO.N,GND*%
X151160000Y-69870000D03*
%TO.P,J2,40,GPIO21/SCLK1*%
%TO.N,unconnected-(J2-Pad40)*%
X151160000Y-67330000D03*
%TD*%
D13*
%TO.N,Net-(J2-Pad26)*%
X149860000Y-85090000D03*
X124460000Y-85090000D03*
%TO.N,Net-(J2-Pad24)*%
X153670000Y-66040000D03*
X153670000Y-76200000D03*
%TO.N,Net-(J2-Pad23)*%
X129540000Y-74930000D03*
X124460000Y-74930000D03*
%TO.N,Net-(J2-Pad19)*%
X129540000Y-81280000D03*
%TO.N,Net-(J2-Pad21)*%
X130810000Y-72390000D03*
%TO.N,Net-(J2-Pad29)*%
X135890000Y-73660000D03*
%TO.N,GND*%
X154940000Y-78740000D03*
X129540000Y-78740000D03*
%TO.N,Net-(J1-Pad2)*%
X105410000Y-64770000D03*
%TD*%
D14*
%TO.N,Net-(J2-Pad23)*%
X114845000Y-75900000D02*
X116020000Y-74725000D01*
%TO.N,Net-(J2-Pad26)*%
X124460000Y-85090000D02*
X135890000Y-85090000D01*
X149860000Y-85090000D02*
X135890000Y-85090000D01*
%TO.N,Net-(J2-Pad24)*%
X153670000Y-66040000D02*
X152400000Y-64770000D01*
X152400000Y-64770000D02*
X133400000Y-64770000D01*
X133400000Y-64770000D02*
X130840000Y-67330000D01*
X142785000Y-78440000D02*
X143960000Y-79615000D01*
X143960000Y-79615000D02*
X150255000Y-79615000D01*
X150255000Y-79615000D02*
X153670000Y-76200000D01*
%TO.N,Net-(J2-Pad19)*%
X127000000Y-78740000D02*
X125730000Y-80010000D01*
X125730000Y-80010000D02*
X116415000Y-80010000D01*
X116415000Y-80010000D02*
X114845000Y-78440000D01*
X125760000Y-69870000D02*
X127000000Y-71110000D01*
X127000000Y-71110000D02*
X127000000Y-78740000D01*
X127000000Y-78740000D02*
X129540000Y-81280000D01*
%TO.N,Net-(J2-Pad23)*%
X129540000Y-72390000D02*
X130810000Y-71120000D01*
X129540000Y-74930000D02*
X129540000Y-72390000D01*
X116020000Y-74725000D02*
X124255000Y-74725000D01*
X130840000Y-69870000D02*
X130840000Y-71090000D01*
%TO.N,Net-(J2-Pad21)*%
X134320000Y-75900000D02*
X130810000Y-72390000D01*
X137705000Y-75900000D02*
X134320000Y-75900000D01*
%TO.N,Net-(J2-Pad29)*%
X135890000Y-73660000D02*
X138460000Y-71090000D01*
X138460000Y-71090000D02*
X138460000Y-69870000D01*
%TO.N,Net-(J1-Pad2)*%
X97790000Y-75590000D02*
X97790000Y-66040000D01*
X100920000Y-78720000D02*
X97790000Y-75590000D01*
X97790000Y-66040000D02*
X99060000Y-64770000D01*
X99060000Y-64770000D02*
X105410000Y-64770000D01*
%TO.N,Net-(J1-Pad3)*%
X96520000Y-76860000D02*
X96520000Y-66040000D01*
X100920000Y-81260000D02*
X96520000Y-76860000D01*
X99060000Y-63500000D02*
X106690000Y-63500000D01*
X96520000Y-66040000D02*
X99060000Y-63500000D01*
X106690000Y-63500000D02*
X110520000Y-67330000D01*
%TD*%
%TA.AperFunction,Conductor*%
%TO.N,GND*%
G36*
X156913621Y-61488502D02*
G01*
X156960114Y-61542158D01*
X156971500Y-61594500D01*
X156971500Y-106045500D01*
X156951498Y-106113621D01*
X156897842Y-106160114D01*
X156845500Y-106171500D01*
X90804500Y-106171500D01*
X90736379Y-106151498D01*
X90689886Y-106097842D01*
X90678500Y-106045500D01*
X90678500Y-86306695D01*
X99557251Y-86306695D01*
X99557548Y-86311848D01*
X99557548Y-86311851D01*
X99563011Y-86406590D01*
X99570110Y-86529715D01*
X99571247Y-86534761D01*
X99571248Y-86534767D01*
X99591119Y-86622939D01*
X99619222Y-86747639D01*
X99703266Y-86954616D01*
X99819987Y-87145088D01*
X99966250Y-87313938D01*
X100138126Y-87456632D01*
X100331000Y-87569338D01*
X100539692Y-87649030D01*
X100544760Y-87650061D01*
X100544763Y-87650062D01*
X100652017Y-87671883D01*
X100758597Y-87693567D01*
X100763772Y-87693757D01*
X100763774Y-87693757D01*
X100976673Y-87701564D01*
X100976677Y-87701564D01*
X100981837Y-87701753D01*
X100986957Y-87701097D01*
X100986959Y-87701097D01*
X101198288Y-87674025D01*
X101198289Y-87674025D01*
X101203416Y-87673368D01*
X101208366Y-87671883D01*
X101412429Y-87610661D01*
X101412434Y-87610659D01*
X101417384Y-87609174D01*
X101617994Y-87510896D01*
X101799860Y-87381173D01*
X101958096Y-87223489D01*
X102017594Y-87140689D01*
X102085435Y-87046277D01*
X102088453Y-87042077D01*
X102187430Y-86841811D01*
X102252370Y-86628069D01*
X102281529Y-86406590D01*
X102283156Y-86340000D01*
X102264852Y-86117361D01*
X102210431Y-85900702D01*
X102121354Y-85695840D01*
X102000014Y-85508277D01*
X101849670Y-85343051D01*
X101845619Y-85339852D01*
X101845615Y-85339848D01*
X101678414Y-85207800D01*
X101678410Y-85207798D01*
X101674359Y-85204598D01*
X101632569Y-85181529D01*
X101582598Y-85131097D01*
X101573856Y-85090000D01*
X123546496Y-85090000D01*
X123547186Y-85096565D01*
X123558541Y-85204598D01*
X123566458Y-85279928D01*
X123625473Y-85461556D01*
X123720960Y-85626944D01*
X123725378Y-85631851D01*
X123725379Y-85631852D01*
X123756738Y-85666680D01*
X123848747Y-85768866D01*
X123947843Y-85840864D01*
X123993860Y-85874297D01*
X124003248Y-85881118D01*
X124009276Y-85883802D01*
X124009278Y-85883803D01*
X124058505Y-85905720D01*
X124177712Y-85958794D01*
X124271112Y-85978647D01*
X124358056Y-85997128D01*
X124358061Y-85997128D01*
X124364513Y-85998500D01*
X124555487Y-85998500D01*
X124561939Y-85997128D01*
X124561944Y-85997128D01*
X124648888Y-85978647D01*
X124742288Y-85958794D01*
X124861495Y-85905720D01*
X124910722Y-85883803D01*
X124910724Y-85883802D01*
X124916752Y-85881118D01*
X124926141Y-85874297D01*
X125049671Y-85784546D01*
X125071253Y-85768866D01*
X125075668Y-85763963D01*
X125080580Y-85759540D01*
X125081705Y-85760789D01*
X125135014Y-85727949D01*
X125168200Y-85723500D01*
X149151800Y-85723500D01*
X149219921Y-85743502D01*
X149239147Y-85759843D01*
X149239420Y-85759540D01*
X149244332Y-85763963D01*
X149248747Y-85768866D01*
X149270329Y-85784546D01*
X149393860Y-85874297D01*
X149403248Y-85881118D01*
X149409276Y-85883802D01*
X149409278Y-85883803D01*
X149458505Y-85905720D01*
X149577712Y-85958794D01*
X149671112Y-85978647D01*
X149758056Y-85997128D01*
X149758061Y-85997128D01*
X149764513Y-85998500D01*
X149955487Y-85998500D01*
X149961939Y-85997128D01*
X149961944Y-85997128D01*
X150048887Y-85978647D01*
X150142288Y-85958794D01*
X150261495Y-85905720D01*
X150310722Y-85883803D01*
X150310724Y-85883802D01*
X150316752Y-85881118D01*
X150326141Y-85874297D01*
X150372157Y-85840864D01*
X150471253Y-85768866D01*
X150563262Y-85666680D01*
X150594621Y-85631852D01*
X150594622Y-85631851D01*
X150599040Y-85626944D01*
X150694527Y-85461556D01*
X150753542Y-85279928D01*
X150761460Y-85204598D01*
X150772814Y-85096565D01*
X150773504Y-85090000D01*
X150766364Y-85022069D01*
X150754232Y-84906635D01*
X150754232Y-84906633D01*
X150753542Y-84900072D01*
X150694527Y-84718444D01*
X150599040Y-84553056D01*
X150471253Y-84411134D01*
X150316752Y-84298882D01*
X150310724Y-84296198D01*
X150310722Y-84296197D01*
X150148319Y-84223891D01*
X150148318Y-84223891D01*
X150142288Y-84221206D01*
X150048888Y-84201353D01*
X149961944Y-84182872D01*
X149961939Y-84182872D01*
X149955487Y-84181500D01*
X149764513Y-84181500D01*
X149758061Y-84182872D01*
X149758056Y-84182872D01*
X149671112Y-84201353D01*
X149577712Y-84221206D01*
X149571682Y-84223891D01*
X149571681Y-84223891D01*
X149409278Y-84296197D01*
X149409276Y-84296198D01*
X149403248Y-84298882D01*
X149248747Y-84411134D01*
X149244332Y-84416037D01*
X149239420Y-84420460D01*
X149238295Y-84419211D01*
X149184986Y-84452051D01*
X149151800Y-84456500D01*
X125168200Y-84456500D01*
X125100079Y-84436498D01*
X125080853Y-84420157D01*
X125080580Y-84420460D01*
X125075668Y-84416037D01*
X125071253Y-84411134D01*
X124916752Y-84298882D01*
X124910724Y-84296198D01*
X124910722Y-84296197D01*
X124748319Y-84223891D01*
X124748318Y-84223891D01*
X124742288Y-84221206D01*
X124648888Y-84201353D01*
X124561944Y-84182872D01*
X124561939Y-84182872D01*
X124555487Y-84181500D01*
X124364513Y-84181500D01*
X124358061Y-84182872D01*
X124358056Y-84182872D01*
X124271112Y-84201353D01*
X124177712Y-84221206D01*
X124171682Y-84223891D01*
X124171681Y-84223891D01*
X124009278Y-84296197D01*
X124009276Y-84296198D01*
X124003248Y-84298882D01*
X123848747Y-84411134D01*
X123720960Y-84553056D01*
X123625473Y-84718444D01*
X123566458Y-84900072D01*
X123565768Y-84906633D01*
X123565768Y-84906635D01*
X123553636Y-85022069D01*
X123546496Y-85090000D01*
X101573856Y-85090000D01*
X101567826Y-85061654D01*
X101592942Y-84995248D01*
X101620294Y-84968641D01*
X101795328Y-84843792D01*
X101803200Y-84837139D01*
X101954052Y-84686812D01*
X101960730Y-84678965D01*
X102085003Y-84506020D01*
X102090313Y-84497183D01*
X102184670Y-84306267D01*
X102188469Y-84296672D01*
X102250377Y-84092910D01*
X102252555Y-84082837D01*
X102253986Y-84071962D01*
X102251775Y-84057778D01*
X102238617Y-84054000D01*
X99603225Y-84054000D01*
X99589694Y-84057973D01*
X99588257Y-84067966D01*
X99618565Y-84202446D01*
X99621645Y-84212275D01*
X99701770Y-84409603D01*
X99706413Y-84418794D01*
X99817694Y-84600388D01*
X99823777Y-84608699D01*
X99963213Y-84769667D01*
X99970580Y-84776883D01*
X100134434Y-84912916D01*
X100142881Y-84918831D01*
X100211969Y-84959203D01*
X100260693Y-85010842D01*
X100273764Y-85080625D01*
X100247033Y-85146396D01*
X100206584Y-85179752D01*
X100193607Y-85186507D01*
X100189474Y-85189610D01*
X100189471Y-85189612D01*
X100060820Y-85286206D01*
X100014965Y-85320635D01*
X100011393Y-85324373D01*
X99874829Y-85467279D01*
X99860629Y-85482138D01*
X99734743Y-85666680D01*
X99640688Y-85869305D01*
X99580989Y-86084570D01*
X99557251Y-86306695D01*
X90678500Y-86306695D01*
X90678500Y-66019943D01*
X95881780Y-66019943D01*
X95882526Y-66027835D01*
X95885941Y-66063961D01*
X95886500Y-66075819D01*
X95886500Y-76781233D01*
X95885973Y-76792416D01*
X95884298Y-76799909D01*
X95884547Y-76807835D01*
X95884547Y-76807836D01*
X95886438Y-76867986D01*
X95886500Y-76871945D01*
X95886500Y-76899856D01*
X95886997Y-76903790D01*
X95886997Y-76903791D01*
X95887005Y-76903856D01*
X95887938Y-76915693D01*
X95889327Y-76959889D01*
X95894978Y-76979339D01*
X95898987Y-76998700D01*
X95901526Y-77018797D01*
X95904445Y-77026168D01*
X95904445Y-77026170D01*
X95917804Y-77059912D01*
X95921649Y-77071142D01*
X95924667Y-77081531D01*
X95933982Y-77113593D01*
X95938015Y-77120412D01*
X95938017Y-77120417D01*
X95944293Y-77131028D01*
X95952988Y-77148776D01*
X95960448Y-77167617D01*
X95965110Y-77174033D01*
X95965110Y-77174034D01*
X95986436Y-77203387D01*
X95992952Y-77213307D01*
X96015458Y-77251362D01*
X96029779Y-77265683D01*
X96042619Y-77280716D01*
X96054528Y-77297107D01*
X96060634Y-77302158D01*
X96088605Y-77325298D01*
X96097384Y-77333288D01*
X99569778Y-80805682D01*
X99603804Y-80867994D01*
X99602100Y-80928448D01*
X99580989Y-81004570D01*
X99580441Y-81009700D01*
X99580440Y-81009704D01*
X99571852Y-81090072D01*
X99557251Y-81226695D01*
X99557548Y-81231848D01*
X99557548Y-81231851D01*
X99563011Y-81326590D01*
X99570110Y-81449715D01*
X99571247Y-81454761D01*
X99571248Y-81454767D01*
X99573186Y-81463365D01*
X99619222Y-81667639D01*
X99703266Y-81874616D01*
X99819987Y-82065088D01*
X99966250Y-82233938D01*
X100138126Y-82376632D01*
X100211955Y-82419774D01*
X100260679Y-82471412D01*
X100273750Y-82541195D01*
X100247019Y-82606967D01*
X100206562Y-82640327D01*
X100198457Y-82644546D01*
X100189738Y-82650036D01*
X100019433Y-82777905D01*
X100011726Y-82784748D01*
X99864590Y-82938717D01*
X99858104Y-82946727D01*
X99738098Y-83122649D01*
X99733000Y-83131623D01*
X99643338Y-83324783D01*
X99639775Y-83334470D01*
X99584389Y-83534183D01*
X99585912Y-83542607D01*
X99598292Y-83546000D01*
X102238344Y-83546000D01*
X102251875Y-83542027D01*
X102253180Y-83532947D01*
X102211214Y-83365875D01*
X102207894Y-83356124D01*
X102122972Y-83160814D01*
X102118105Y-83151739D01*
X102002426Y-82972926D01*
X101996136Y-82964757D01*
X101852806Y-82807240D01*
X101845273Y-82800215D01*
X101678139Y-82668222D01*
X101669556Y-82662520D01*
X101632602Y-82642120D01*
X101582631Y-82591687D01*
X101567859Y-82522245D01*
X101592975Y-82455839D01*
X101620327Y-82429232D01*
X101643797Y-82412491D01*
X101799860Y-82301173D01*
X101958096Y-82143489D01*
X102017594Y-82060689D01*
X102085435Y-81966277D01*
X102088453Y-81962077D01*
X102187430Y-81761811D01*
X102252370Y-81548069D01*
X102281529Y-81326590D01*
X102282507Y-81286565D01*
X102283074Y-81263365D01*
X102283074Y-81263361D01*
X102283156Y-81260000D01*
X102264852Y-81037361D01*
X102210431Y-80820702D01*
X102121354Y-80615840D01*
X102000014Y-80428277D01*
X101849670Y-80263051D01*
X101845619Y-80259852D01*
X101845615Y-80259848D01*
X101678414Y-80127800D01*
X101678410Y-80127798D01*
X101674359Y-80124598D01*
X101633053Y-80101796D01*
X101583084Y-80051364D01*
X101568312Y-79981921D01*
X101593428Y-79915516D01*
X101620780Y-79888909D01*
X101664603Y-79857650D01*
X101799860Y-79761173D01*
X101958096Y-79603489D01*
X102045989Y-79481173D01*
X102085435Y-79426277D01*
X102088453Y-79422077D01*
X102094407Y-79410031D01*
X102185136Y-79226453D01*
X102185137Y-79226451D01*
X102187430Y-79221811D01*
X102239682Y-79049829D01*
X102250865Y-79013023D01*
X102250865Y-79013021D01*
X102252370Y-79008069D01*
X102281529Y-78786590D01*
X102283156Y-78720000D01*
X102264852Y-78497361D01*
X102210431Y-78280702D01*
X102121354Y-78075840D01*
X102055663Y-77974297D01*
X102002822Y-77892617D01*
X102002820Y-77892614D01*
X102000014Y-77888277D01*
X101915903Y-77795840D01*
X101852798Y-77726488D01*
X101821746Y-77662642D01*
X101830141Y-77592143D01*
X101875317Y-77537375D01*
X101901761Y-77523706D01*
X102008297Y-77483767D01*
X102016705Y-77480615D01*
X102133261Y-77393261D01*
X102220615Y-77276705D01*
X102271745Y-77140316D01*
X102278500Y-77078134D01*
X102278500Y-75281866D01*
X102271745Y-75219684D01*
X102220615Y-75083295D01*
X102133261Y-74966739D01*
X102016705Y-74879385D01*
X101880316Y-74828255D01*
X101818134Y-74821500D01*
X100021866Y-74821500D01*
X99959684Y-74828255D01*
X99823295Y-74879385D01*
X99706739Y-74966739D01*
X99619385Y-75083295D01*
X99568255Y-75219684D01*
X99561500Y-75281866D01*
X99561500Y-76161405D01*
X99541498Y-76229526D01*
X99487842Y-76276019D01*
X99417568Y-76286123D01*
X99352988Y-76256629D01*
X99346405Y-76250500D01*
X98460405Y-75364500D01*
X98426379Y-75302188D01*
X98423500Y-75275405D01*
X98423500Y-66354594D01*
X98443502Y-66286473D01*
X98460405Y-66265499D01*
X99285499Y-65440405D01*
X99347811Y-65406379D01*
X99374594Y-65403500D01*
X104701800Y-65403500D01*
X104769921Y-65423502D01*
X104789147Y-65439843D01*
X104789420Y-65439540D01*
X104794332Y-65443963D01*
X104798747Y-65448866D01*
X104820329Y-65464546D01*
X104935193Y-65548000D01*
X104953248Y-65561118D01*
X104959276Y-65563802D01*
X104959278Y-65563803D01*
X105121681Y-65636109D01*
X105127712Y-65638794D01*
X105221112Y-65658647D01*
X105308056Y-65677128D01*
X105308061Y-65677128D01*
X105314513Y-65678500D01*
X105505487Y-65678500D01*
X105511939Y-65677128D01*
X105511944Y-65677128D01*
X105598888Y-65658647D01*
X105692288Y-65638794D01*
X105698319Y-65636109D01*
X105860722Y-65563803D01*
X105860724Y-65563802D01*
X105866752Y-65561118D01*
X105884808Y-65548000D01*
X105953422Y-65498148D01*
X106021253Y-65448866D01*
X106044091Y-65423502D01*
X106144621Y-65311852D01*
X106144622Y-65311851D01*
X106149040Y-65306944D01*
X106244527Y-65141556D01*
X106303542Y-64959928D01*
X106323504Y-64770000D01*
X106303542Y-64580072D01*
X106244527Y-64398444D01*
X106220921Y-64357557D01*
X106200681Y-64322500D01*
X106183943Y-64253504D01*
X106207164Y-64186413D01*
X106262971Y-64142526D01*
X106309800Y-64133500D01*
X106375406Y-64133500D01*
X106443527Y-64153502D01*
X106464501Y-64170405D01*
X108197976Y-65903880D01*
X108232001Y-65966191D01*
X108230694Y-65995795D01*
X108234000Y-65995795D01*
X108234000Y-67458000D01*
X108213998Y-67526121D01*
X108160342Y-67572614D01*
X108108000Y-67584000D01*
X107852000Y-67584000D01*
X107783879Y-67563998D01*
X107737386Y-67510342D01*
X107726000Y-67458000D01*
X107726000Y-66013102D01*
X107722082Y-65999758D01*
X107707806Y-65997771D01*
X107669324Y-66003660D01*
X107659288Y-66006051D01*
X107456868Y-66072212D01*
X107447359Y-66076209D01*
X107258463Y-66174542D01*
X107249738Y-66180036D01*
X107079433Y-66307905D01*
X107071726Y-66314748D01*
X106924590Y-66468717D01*
X106918109Y-66476722D01*
X106813498Y-66630074D01*
X106758587Y-66675076D01*
X106688062Y-66683247D01*
X106624315Y-66651993D01*
X106603618Y-66627509D01*
X106522822Y-66502617D01*
X106522820Y-66502614D01*
X106520014Y-66498277D01*
X106369670Y-66333051D01*
X106365619Y-66329852D01*
X106365615Y-66329848D01*
X106198414Y-66197800D01*
X106198410Y-66197798D01*
X106194359Y-66194598D01*
X106158028Y-66174542D01*
X106142136Y-66165769D01*
X105998789Y-66086638D01*
X105993920Y-66084914D01*
X105993916Y-66084912D01*
X105793087Y-66013795D01*
X105793083Y-66013794D01*
X105788212Y-66012069D01*
X105783119Y-66011162D01*
X105783116Y-66011161D01*
X105573373Y-65973800D01*
X105573367Y-65973799D01*
X105568284Y-65972894D01*
X105494452Y-65971992D01*
X105350081Y-65970228D01*
X105350079Y-65970228D01*
X105344911Y-65970165D01*
X105124091Y-66003955D01*
X104911756Y-66073357D01*
X104713607Y-66176507D01*
X104709474Y-66179610D01*
X104709471Y-66179612D01*
X104539100Y-66307530D01*
X104534965Y-66310635D01*
X104531393Y-66314373D01*
X104433054Y-66417279D01*
X104380629Y-66472138D01*
X104273201Y-66629621D01*
X104218293Y-66674621D01*
X104147768Y-66682792D01*
X104084021Y-66651538D01*
X104063324Y-66627054D01*
X103982822Y-66502617D01*
X103982820Y-66502614D01*
X103980014Y-66498277D01*
X103829670Y-66333051D01*
X103825619Y-66329852D01*
X103825615Y-66329848D01*
X103658414Y-66197800D01*
X103658410Y-66197798D01*
X103654359Y-66194598D01*
X103618028Y-66174542D01*
X103602136Y-66165769D01*
X103458789Y-66086638D01*
X103453920Y-66084914D01*
X103453916Y-66084912D01*
X103253087Y-66013795D01*
X103253083Y-66013794D01*
X103248212Y-66012069D01*
X103243119Y-66011162D01*
X103243116Y-66011161D01*
X103033373Y-65973800D01*
X103033367Y-65973799D01*
X103028284Y-65972894D01*
X102954452Y-65971992D01*
X102810081Y-65970228D01*
X102810079Y-65970228D01*
X102804911Y-65970165D01*
X102584091Y-66003955D01*
X102371756Y-66073357D01*
X102173607Y-66176507D01*
X102169474Y-66179610D01*
X102169471Y-66179612D01*
X101999100Y-66307530D01*
X101994965Y-66310635D01*
X101991393Y-66314373D01*
X101893054Y-66417279D01*
X101840629Y-66472138D01*
X101714743Y-66656680D01*
X101699003Y-66690590D01*
X101632526Y-66833803D01*
X101620688Y-66859305D01*
X101560989Y-67074570D01*
X101537251Y-67296695D01*
X101537548Y-67301848D01*
X101537548Y-67301851D01*
X101543011Y-67396590D01*
X101550110Y-67519715D01*
X101551247Y-67524761D01*
X101551248Y-67524767D01*
X101562031Y-67572614D01*
X101599222Y-67737639D01*
X101683266Y-67944616D01*
X101734019Y-68027438D01*
X101797291Y-68130688D01*
X101799987Y-68135088D01*
X101946250Y-68303938D01*
X101950230Y-68307242D01*
X101954981Y-68311187D01*
X101994616Y-68370090D01*
X101996113Y-68441071D01*
X101958997Y-68501593D01*
X101918725Y-68526112D01*
X101877913Y-68541412D01*
X101803295Y-68569385D01*
X101686739Y-68656739D01*
X101599385Y-68773295D01*
X101548255Y-68909684D01*
X101541500Y-68971866D01*
X101541500Y-70768134D01*
X101548255Y-70830316D01*
X101599385Y-70966705D01*
X101686739Y-71083261D01*
X101803295Y-71170615D01*
X101939684Y-71221745D01*
X102001866Y-71228500D01*
X103798134Y-71228500D01*
X103860316Y-71221745D01*
X103996705Y-71170615D01*
X104113261Y-71083261D01*
X104200615Y-70966705D01*
X104222799Y-70907529D01*
X104244598Y-70849382D01*
X104287240Y-70792618D01*
X104353802Y-70767918D01*
X104423150Y-70783126D01*
X104457817Y-70811114D01*
X104486250Y-70843938D01*
X104658126Y-70986632D01*
X104851000Y-71099338D01*
X105059692Y-71179030D01*
X105064760Y-71180061D01*
X105064763Y-71180062D01*
X105159862Y-71199410D01*
X105278597Y-71223567D01*
X105283772Y-71223757D01*
X105283774Y-71223757D01*
X105496673Y-71231564D01*
X105496677Y-71231564D01*
X105501837Y-71231753D01*
X105506957Y-71231097D01*
X105506959Y-71231097D01*
X105718288Y-71204025D01*
X105718289Y-71204025D01*
X105723416Y-71203368D01*
X105728376Y-71201880D01*
X105932429Y-71140661D01*
X105932434Y-71140659D01*
X105937384Y-71139174D01*
X106137994Y-71040896D01*
X106319860Y-70911173D01*
X106478096Y-70753489D01*
X106608453Y-70572077D01*
X106609776Y-70573028D01*
X106656645Y-70529857D01*
X106726580Y-70517625D01*
X106792026Y-70545144D01*
X106819875Y-70576994D01*
X106879987Y-70675088D01*
X107026250Y-70843938D01*
X107198126Y-70986632D01*
X107391000Y-71099338D01*
X107599692Y-71179030D01*
X107604760Y-71180061D01*
X107604763Y-71180062D01*
X107699862Y-71199410D01*
X107818597Y-71223567D01*
X107823772Y-71223757D01*
X107823774Y-71223757D01*
X108036673Y-71231564D01*
X108036677Y-71231564D01*
X108041837Y-71231753D01*
X108046957Y-71231097D01*
X108046959Y-71231097D01*
X108258288Y-71204025D01*
X108258289Y-71204025D01*
X108263416Y-71203368D01*
X108268376Y-71201880D01*
X108472429Y-71140661D01*
X108472434Y-71140659D01*
X108477384Y-71139174D01*
X108677994Y-71040896D01*
X108859860Y-70911173D01*
X109018096Y-70753489D01*
X109148453Y-70572077D01*
X109149776Y-70573028D01*
X109196645Y-70529857D01*
X109266580Y-70517625D01*
X109332026Y-70545144D01*
X109359875Y-70576994D01*
X109419987Y-70675088D01*
X109566250Y-70843938D01*
X109738126Y-70986632D01*
X109931000Y-71099338D01*
X110139692Y-71179030D01*
X110144760Y-71180061D01*
X110144763Y-71180062D01*
X110239862Y-71199410D01*
X110358597Y-71223567D01*
X110363772Y-71223757D01*
X110363774Y-71223757D01*
X110576673Y-71231564D01*
X110576677Y-71231564D01*
X110581837Y-71231753D01*
X110586957Y-71231097D01*
X110586959Y-71231097D01*
X110798288Y-71204025D01*
X110798289Y-71204025D01*
X110803416Y-71203368D01*
X110808376Y-71201880D01*
X111012429Y-71140661D01*
X111012434Y-71140659D01*
X111017384Y-71139174D01*
X111217994Y-71040896D01*
X111399860Y-70911173D01*
X111558096Y-70753489D01*
X111688453Y-70572077D01*
X111689640Y-70572930D01*
X111736960Y-70529362D01*
X111806897Y-70517145D01*
X111872338Y-70544678D01*
X111900166Y-70576511D01*
X111957694Y-70670388D01*
X111963777Y-70678699D01*
X112103213Y-70839667D01*
X112110580Y-70846883D01*
X112274434Y-70982916D01*
X112282881Y-70988831D01*
X112466756Y-71096279D01*
X112476042Y-71100729D01*
X112675001Y-71176703D01*
X112684899Y-71179579D01*
X112788250Y-71200606D01*
X112802299Y-71199410D01*
X112806000Y-71189065D01*
X112806000Y-69742000D01*
X112826002Y-69673879D01*
X112879658Y-69627386D01*
X112932000Y-69616000D01*
X113188000Y-69616000D01*
X113256121Y-69636002D01*
X113302614Y-69689658D01*
X113314000Y-69742000D01*
X113314000Y-71188517D01*
X113318064Y-71202359D01*
X113331478Y-71204393D01*
X113338184Y-71203534D01*
X113348262Y-71201392D01*
X113552255Y-71140191D01*
X113561842Y-71136433D01*
X113753095Y-71042739D01*
X113761945Y-71037464D01*
X113935328Y-70913792D01*
X113943200Y-70907139D01*
X114094052Y-70756812D01*
X114100730Y-70748965D01*
X114228022Y-70571819D01*
X114229279Y-70572722D01*
X114276373Y-70529362D01*
X114346311Y-70517145D01*
X114411751Y-70544678D01*
X114439579Y-70576511D01*
X114499987Y-70675088D01*
X114646250Y-70843938D01*
X114818126Y-70986632D01*
X115011000Y-71099338D01*
X115219692Y-71179030D01*
X115224760Y-71180061D01*
X115224763Y-71180062D01*
X115319862Y-71199410D01*
X115438597Y-71223567D01*
X115443772Y-71223757D01*
X115443774Y-71223757D01*
X115656673Y-71231564D01*
X115656677Y-71231564D01*
X115661837Y-71231753D01*
X115666957Y-71231097D01*
X115666959Y-71231097D01*
X115878288Y-71204025D01*
X115878289Y-71204025D01*
X115883416Y-71203368D01*
X115888376Y-71201880D01*
X116092429Y-71140661D01*
X116092434Y-71140659D01*
X116097384Y-71139174D01*
X116297994Y-71040896D01*
X116479860Y-70911173D01*
X116638096Y-70753489D01*
X116768453Y-70572077D01*
X116769776Y-70573028D01*
X116816645Y-70529857D01*
X116886580Y-70517625D01*
X116952026Y-70545144D01*
X116979875Y-70576994D01*
X117039987Y-70675088D01*
X117186250Y-70843938D01*
X117358126Y-70986632D01*
X117551000Y-71099338D01*
X117759692Y-71179030D01*
X117764760Y-71180061D01*
X117764763Y-71180062D01*
X117859862Y-71199410D01*
X117978597Y-71223567D01*
X117983772Y-71223757D01*
X117983774Y-71223757D01*
X118196673Y-71231564D01*
X118196677Y-71231564D01*
X118201837Y-71231753D01*
X118206957Y-71231097D01*
X118206959Y-71231097D01*
X118418288Y-71204025D01*
X118418289Y-71204025D01*
X118423416Y-71203368D01*
X118428376Y-71201880D01*
X118632429Y-71140661D01*
X118632434Y-71140659D01*
X118637384Y-71139174D01*
X118837994Y-71040896D01*
X119019860Y-70911173D01*
X119178096Y-70753489D01*
X119308453Y-70572077D01*
X119309776Y-70573028D01*
X119356645Y-70529857D01*
X119426580Y-70517625D01*
X119492026Y-70545144D01*
X119519875Y-70576994D01*
X119579987Y-70675088D01*
X119726250Y-70843938D01*
X119898126Y-70986632D01*
X120091000Y-71099338D01*
X120299692Y-71179030D01*
X120304760Y-71180061D01*
X120304763Y-71180062D01*
X120399862Y-71199410D01*
X120518597Y-71223567D01*
X120523772Y-71223757D01*
X120523774Y-71223757D01*
X120736673Y-71231564D01*
X120736677Y-71231564D01*
X120741837Y-71231753D01*
X120746957Y-71231097D01*
X120746959Y-71231097D01*
X120958288Y-71204025D01*
X120958289Y-71204025D01*
X120963416Y-71203368D01*
X120968376Y-71201880D01*
X121172429Y-71140661D01*
X121172434Y-71140659D01*
X121177384Y-71139174D01*
X121377994Y-71040896D01*
X121559860Y-70911173D01*
X121718096Y-70753489D01*
X121848453Y-70572077D01*
X121849776Y-70573028D01*
X121896645Y-70529857D01*
X121966580Y-70517625D01*
X122032026Y-70545144D01*
X122059875Y-70576994D01*
X122119987Y-70675088D01*
X122266250Y-70843938D01*
X122438126Y-70986632D01*
X122631000Y-71099338D01*
X122839692Y-71179030D01*
X122844760Y-71180061D01*
X122844763Y-71180062D01*
X122939862Y-71199410D01*
X123058597Y-71223567D01*
X123063772Y-71223757D01*
X123063774Y-71223757D01*
X123276673Y-71231564D01*
X123276677Y-71231564D01*
X123281837Y-71231753D01*
X123286957Y-71231097D01*
X123286959Y-71231097D01*
X123498288Y-71204025D01*
X123498289Y-71204025D01*
X123503416Y-71203368D01*
X123508376Y-71201880D01*
X123712429Y-71140661D01*
X123712434Y-71140659D01*
X123717384Y-71139174D01*
X123917994Y-71040896D01*
X124099860Y-70911173D01*
X124258096Y-70753489D01*
X124388453Y-70572077D01*
X124389776Y-70573028D01*
X124436645Y-70529857D01*
X124506580Y-70517625D01*
X124572026Y-70545144D01*
X124599875Y-70576994D01*
X124659987Y-70675088D01*
X124806250Y-70843938D01*
X124978126Y-70986632D01*
X125171000Y-71099338D01*
X125379692Y-71179030D01*
X125384760Y-71180061D01*
X125384763Y-71180062D01*
X125479862Y-71199410D01*
X125598597Y-71223567D01*
X125603772Y-71223757D01*
X125603774Y-71223757D01*
X125816673Y-71231564D01*
X125816677Y-71231564D01*
X125821837Y-71231753D01*
X125826957Y-71231097D01*
X125826959Y-71231097D01*
X125905512Y-71221034D01*
X126043416Y-71203368D01*
X126089826Y-71189444D01*
X126160821Y-71189026D01*
X126215129Y-71221034D01*
X126329595Y-71335500D01*
X126363621Y-71397812D01*
X126366500Y-71424595D01*
X126366500Y-78425405D01*
X126346498Y-78493526D01*
X126329595Y-78514500D01*
X125504500Y-79339595D01*
X125442188Y-79373621D01*
X125415405Y-79376500D01*
X121170700Y-79376500D01*
X121102579Y-79356498D01*
X121056086Y-79302842D01*
X121045982Y-79232568D01*
X121068377Y-79176974D01*
X121093453Y-79142077D01*
X121114320Y-79099857D01*
X121190136Y-78946453D01*
X121190137Y-78946451D01*
X121192430Y-78941811D01*
X121257370Y-78728069D01*
X121286529Y-78506590D01*
X121286611Y-78503240D01*
X121288074Y-78443365D01*
X121288074Y-78443361D01*
X121288156Y-78440000D01*
X121269852Y-78217361D01*
X121215431Y-78000702D01*
X121126354Y-77795840D01*
X121079265Y-77723051D01*
X121007822Y-77612617D01*
X121007820Y-77612614D01*
X121005014Y-77608277D01*
X121001538Y-77604457D01*
X121001533Y-77604450D01*
X120857435Y-77446088D01*
X120826383Y-77382242D01*
X120834779Y-77311744D01*
X120879956Y-77256976D01*
X120906400Y-77243307D01*
X121013052Y-77203325D01*
X121028649Y-77194786D01*
X121130724Y-77118285D01*
X121143285Y-77105724D01*
X121219786Y-77003649D01*
X121228324Y-76988054D01*
X121273478Y-76867606D01*
X121277105Y-76852351D01*
X121282631Y-76801486D01*
X121283000Y-76794672D01*
X121283000Y-76172115D01*
X121278525Y-76156876D01*
X121277135Y-76155671D01*
X121269452Y-76154000D01*
X119797000Y-76154000D01*
X119728879Y-76133998D01*
X119682386Y-76080342D01*
X119671000Y-76028000D01*
X119671000Y-75772000D01*
X119691002Y-75703879D01*
X119744658Y-75657386D01*
X119797000Y-75646000D01*
X121264884Y-75646000D01*
X121280123Y-75641525D01*
X121281328Y-75640135D01*
X121282999Y-75632452D01*
X121282999Y-75484500D01*
X121303001Y-75416379D01*
X121356657Y-75369886D01*
X121408999Y-75358500D01*
X123585604Y-75358500D01*
X123653725Y-75378502D01*
X123694723Y-75421500D01*
X123720960Y-75466944D01*
X123725378Y-75471851D01*
X123725379Y-75471852D01*
X123768784Y-75520058D01*
X123848747Y-75608866D01*
X123904960Y-75649707D01*
X123979521Y-75703879D01*
X124003248Y-75721118D01*
X124009276Y-75723802D01*
X124009278Y-75723803D01*
X124171681Y-75796109D01*
X124177712Y-75798794D01*
X124271112Y-75818647D01*
X124358056Y-75837128D01*
X124358061Y-75837128D01*
X124364513Y-75838500D01*
X124555487Y-75838500D01*
X124561939Y-75837128D01*
X124561944Y-75837128D01*
X124648888Y-75818647D01*
X124742288Y-75798794D01*
X124748319Y-75796109D01*
X124910722Y-75723803D01*
X124910724Y-75723802D01*
X124916752Y-75721118D01*
X124940480Y-75703879D01*
X125015040Y-75649707D01*
X125071253Y-75608866D01*
X125151216Y-75520058D01*
X125194621Y-75471852D01*
X125194622Y-75471851D01*
X125199040Y-75466944D01*
X125294527Y-75301556D01*
X125353542Y-75119928D01*
X125365587Y-75005331D01*
X125372814Y-74936565D01*
X125373504Y-74930000D01*
X125368750Y-74884771D01*
X125354232Y-74746635D01*
X125354232Y-74746633D01*
X125353542Y-74740072D01*
X125294527Y-74558444D01*
X125285999Y-74543672D01*
X125202341Y-74398774D01*
X125199040Y-74393056D01*
X125153744Y-74342749D01*
X125075675Y-74256045D01*
X125075674Y-74256044D01*
X125071253Y-74251134D01*
X124972157Y-74179136D01*
X124922094Y-74142763D01*
X124922093Y-74142762D01*
X124916752Y-74138882D01*
X124910724Y-74136198D01*
X124910722Y-74136197D01*
X124748319Y-74063891D01*
X124748318Y-74063891D01*
X124742288Y-74061206D01*
X124629721Y-74037279D01*
X124561944Y-74022872D01*
X124561939Y-74022872D01*
X124555487Y-74021500D01*
X124364513Y-74021500D01*
X124358061Y-74022872D01*
X124358056Y-74022872D01*
X124219340Y-74052358D01*
X124177712Y-74061206D01*
X124171679Y-74063892D01*
X124171676Y-74063893D01*
X124134136Y-74080607D01*
X124082888Y-74091500D01*
X116098767Y-74091500D01*
X116087584Y-74090973D01*
X116080091Y-74089298D01*
X116072165Y-74089547D01*
X116072164Y-74089547D01*
X116012001Y-74091438D01*
X116008043Y-74091500D01*
X115980144Y-74091500D01*
X115976154Y-74092004D01*
X115964320Y-74092936D01*
X115920111Y-74094326D01*
X115912497Y-74096538D01*
X115912492Y-74096539D01*
X115900659Y-74099977D01*
X115881296Y-74103988D01*
X115861203Y-74106526D01*
X115853836Y-74109443D01*
X115853831Y-74109444D01*
X115820092Y-74122802D01*
X115808865Y-74126646D01*
X115766407Y-74138982D01*
X115759581Y-74143019D01*
X115748972Y-74149293D01*
X115731224Y-74157988D01*
X115712383Y-74165448D01*
X115705967Y-74170110D01*
X115705966Y-74170110D01*
X115676613Y-74191436D01*
X115666693Y-74197952D01*
X115635465Y-74216420D01*
X115635462Y-74216422D01*
X115628638Y-74220458D01*
X115614317Y-74234779D01*
X115599284Y-74247619D01*
X115582893Y-74259528D01*
X115577843Y-74265632D01*
X115577838Y-74265637D01*
X115554707Y-74293598D01*
X115546717Y-74302379D01*
X115302344Y-74546751D01*
X115240032Y-74580776D01*
X115191153Y-74581702D01*
X114978373Y-74543800D01*
X114978367Y-74543799D01*
X114973284Y-74542894D01*
X114899452Y-74541992D01*
X114755081Y-74540228D01*
X114755079Y-74540228D01*
X114749911Y-74540165D01*
X114529091Y-74573955D01*
X114316756Y-74643357D01*
X114286443Y-74659137D01*
X114130969Y-74740072D01*
X114118607Y-74746507D01*
X114114474Y-74749610D01*
X114114471Y-74749612D01*
X113944100Y-74877530D01*
X113939965Y-74880635D01*
X113785629Y-75042138D01*
X113678201Y-75199621D01*
X113623293Y-75244621D01*
X113552768Y-75252792D01*
X113489021Y-75221538D01*
X113468324Y-75197054D01*
X113387822Y-75072617D01*
X113387820Y-75072614D01*
X113385014Y-75068277D01*
X113234670Y-74903051D01*
X113230619Y-74899852D01*
X113230615Y-74899848D01*
X113063414Y-74767800D01*
X113063410Y-74767798D01*
X113059359Y-74764598D01*
X112863789Y-74656638D01*
X112858920Y-74654914D01*
X112858916Y-74654912D01*
X112658087Y-74583795D01*
X112658083Y-74583794D01*
X112653212Y-74582069D01*
X112648119Y-74581162D01*
X112648116Y-74581161D01*
X112438373Y-74543800D01*
X112438367Y-74543799D01*
X112433284Y-74542894D01*
X112359452Y-74541992D01*
X112215081Y-74540228D01*
X112215079Y-74540228D01*
X112209911Y-74540165D01*
X111989091Y-74573955D01*
X111776756Y-74643357D01*
X111746443Y-74659137D01*
X111590969Y-74740072D01*
X111578607Y-74746507D01*
X111574474Y-74749610D01*
X111574471Y-74749612D01*
X111404100Y-74877530D01*
X111399965Y-74880635D01*
X111245629Y-75042138D01*
X111242720Y-75046403D01*
X111242714Y-75046411D01*
X111211818Y-75091703D01*
X111119743Y-75226680D01*
X111082330Y-75307279D01*
X111033367Y-75412763D01*
X111025688Y-75429305D01*
X110965989Y-75644570D01*
X110942251Y-75866695D01*
X110942548Y-75871848D01*
X110942548Y-75871851D01*
X110950093Y-76002697D01*
X110955110Y-76089715D01*
X110956247Y-76094761D01*
X110956248Y-76094767D01*
X110971266Y-76161405D01*
X111004222Y-76307639D01*
X111050012Y-76420407D01*
X111081817Y-76498733D01*
X111088266Y-76514616D01*
X111126666Y-76577279D01*
X111202291Y-76700688D01*
X111204987Y-76705088D01*
X111351250Y-76873938D01*
X111523126Y-77016632D01*
X111593595Y-77057811D01*
X111596445Y-77059476D01*
X111645169Y-77111114D01*
X111658240Y-77180897D01*
X111631509Y-77246669D01*
X111591055Y-77280027D01*
X111578607Y-77286507D01*
X111574474Y-77289610D01*
X111574471Y-77289612D01*
X111404100Y-77417530D01*
X111399965Y-77420635D01*
X111396393Y-77424373D01*
X111288406Y-77537375D01*
X111245629Y-77582138D01*
X111119743Y-77766680D01*
X111025688Y-77969305D01*
X110965989Y-78184570D01*
X110942251Y-78406695D01*
X110942548Y-78411848D01*
X110942548Y-78411851D01*
X110948011Y-78506590D01*
X110955110Y-78629715D01*
X110956247Y-78634761D01*
X110956248Y-78634767D01*
X110970279Y-78697024D01*
X111004222Y-78847639D01*
X111088266Y-79054616D01*
X111139019Y-79137438D01*
X111202291Y-79240688D01*
X111204987Y-79245088D01*
X111351250Y-79413938D01*
X111523126Y-79556632D01*
X111716000Y-79669338D01*
X111924692Y-79749030D01*
X111929760Y-79750061D01*
X111929763Y-79750062D01*
X112037003Y-79771880D01*
X112143597Y-79793567D01*
X112148772Y-79793757D01*
X112148774Y-79793757D01*
X112361673Y-79801564D01*
X112361677Y-79801564D01*
X112366837Y-79801753D01*
X112371957Y-79801097D01*
X112371959Y-79801097D01*
X112583288Y-79774025D01*
X112583289Y-79774025D01*
X112588416Y-79773368D01*
X112634827Y-79759444D01*
X112797429Y-79710661D01*
X112797434Y-79710659D01*
X112802384Y-79709174D01*
X113002994Y-79610896D01*
X113184860Y-79481173D01*
X113343096Y-79323489D01*
X113402594Y-79240689D01*
X113473453Y-79142077D01*
X113474776Y-79143028D01*
X113521645Y-79099857D01*
X113591580Y-79087625D01*
X113657026Y-79115144D01*
X113684875Y-79146994D01*
X113744987Y-79245088D01*
X113891250Y-79413938D01*
X114063126Y-79556632D01*
X114256000Y-79669338D01*
X114464692Y-79749030D01*
X114469760Y-79750061D01*
X114469763Y-79750062D01*
X114577003Y-79771880D01*
X114683597Y-79793567D01*
X114688772Y-79793757D01*
X114688774Y-79793757D01*
X114901673Y-79801564D01*
X114901677Y-79801564D01*
X114906837Y-79801753D01*
X114911957Y-79801097D01*
X114911959Y-79801097D01*
X115123288Y-79774025D01*
X115123289Y-79774025D01*
X115128416Y-79773368D01*
X115133367Y-79771883D01*
X115133370Y-79771882D01*
X115174829Y-79759444D01*
X115245825Y-79759028D01*
X115300131Y-79791035D01*
X115911343Y-80402247D01*
X115918887Y-80410537D01*
X115923000Y-80417018D01*
X115928777Y-80422443D01*
X115972667Y-80463658D01*
X115975509Y-80466413D01*
X115995230Y-80486134D01*
X115998425Y-80488612D01*
X116007447Y-80496318D01*
X116039679Y-80526586D01*
X116046628Y-80530406D01*
X116057432Y-80536346D01*
X116073956Y-80547199D01*
X116089959Y-80559613D01*
X116130543Y-80577176D01*
X116141173Y-80582383D01*
X116179940Y-80603695D01*
X116187617Y-80605666D01*
X116187622Y-80605668D01*
X116199558Y-80608732D01*
X116218266Y-80615137D01*
X116236855Y-80623181D01*
X116244683Y-80624421D01*
X116244690Y-80624423D01*
X116280524Y-80630099D01*
X116292144Y-80632505D01*
X116323959Y-80640673D01*
X116334970Y-80643500D01*
X116355224Y-80643500D01*
X116374934Y-80645051D01*
X116394943Y-80648220D01*
X116402835Y-80647474D01*
X116421580Y-80645702D01*
X116438962Y-80644059D01*
X116450819Y-80643500D01*
X125651233Y-80643500D01*
X125662416Y-80644027D01*
X125669909Y-80645702D01*
X125677835Y-80645453D01*
X125677836Y-80645453D01*
X125737986Y-80643562D01*
X125741945Y-80643500D01*
X125769856Y-80643500D01*
X125773791Y-80643003D01*
X125773856Y-80642995D01*
X125785693Y-80642062D01*
X125817951Y-80641048D01*
X125821970Y-80640922D01*
X125829889Y-80640673D01*
X125849343Y-80635021D01*
X125868700Y-80631013D01*
X125880930Y-80629468D01*
X125880931Y-80629468D01*
X125888797Y-80628474D01*
X125896168Y-80625555D01*
X125896170Y-80625555D01*
X125929912Y-80612196D01*
X125941142Y-80608351D01*
X125975983Y-80598229D01*
X125975984Y-80598229D01*
X125983593Y-80596018D01*
X125990412Y-80591985D01*
X125990417Y-80591983D01*
X126001028Y-80585707D01*
X126018776Y-80577012D01*
X126037617Y-80569552D01*
X126057987Y-80554753D01*
X126073387Y-80543564D01*
X126083307Y-80537048D01*
X126114535Y-80518580D01*
X126114538Y-80518578D01*
X126121362Y-80514542D01*
X126135683Y-80500221D01*
X126150717Y-80487380D01*
X126152432Y-80486134D01*
X126167107Y-80475472D01*
X126195298Y-80441395D01*
X126203288Y-80432616D01*
X126910905Y-79724999D01*
X126973217Y-79690973D01*
X127044032Y-79696038D01*
X127089095Y-79724999D01*
X128592878Y-81228782D01*
X128626904Y-81291094D01*
X128629092Y-81304703D01*
X128637652Y-81386144D01*
X128644865Y-81454767D01*
X128646458Y-81469928D01*
X128705473Y-81651556D01*
X128708776Y-81657278D01*
X128708777Y-81657279D01*
X128717522Y-81672425D01*
X128800960Y-81816944D01*
X128928747Y-81958866D01*
X129083248Y-82071118D01*
X129089276Y-82073802D01*
X129089278Y-82073803D01*
X129251681Y-82146109D01*
X129257712Y-82148794D01*
X129351112Y-82168647D01*
X129438056Y-82187128D01*
X129438061Y-82187128D01*
X129444513Y-82188500D01*
X129635487Y-82188500D01*
X129641939Y-82187128D01*
X129641944Y-82187128D01*
X129728888Y-82168647D01*
X129822288Y-82148794D01*
X129828319Y-82146109D01*
X129990722Y-82073803D01*
X129990724Y-82073802D01*
X129996752Y-82071118D01*
X130151253Y-81958866D01*
X130279040Y-81816944D01*
X130362478Y-81672425D01*
X130371223Y-81657279D01*
X130371224Y-81657278D01*
X130374527Y-81651556D01*
X130433542Y-81469928D01*
X130435136Y-81454767D01*
X130452814Y-81286565D01*
X130453504Y-81280000D01*
X130448121Y-81228782D01*
X130434232Y-81096635D01*
X130434232Y-81096633D01*
X130433542Y-81090072D01*
X130374527Y-80908444D01*
X130279040Y-80743056D01*
X130193650Y-80648220D01*
X130155675Y-80606045D01*
X130155674Y-80606044D01*
X130151253Y-80601134D01*
X129996752Y-80488882D01*
X129990724Y-80486198D01*
X129990722Y-80486197D01*
X129828319Y-80413891D01*
X129828318Y-80413891D01*
X129822288Y-80411206D01*
X129728888Y-80391353D01*
X129641944Y-80372872D01*
X129641939Y-80372872D01*
X129635487Y-80371500D01*
X129579595Y-80371500D01*
X129511474Y-80351498D01*
X129490500Y-80334595D01*
X127670405Y-78514500D01*
X127636379Y-78452188D01*
X127633500Y-78425405D01*
X127633500Y-71252733D01*
X127653502Y-71184612D01*
X127707158Y-71138119D01*
X127777432Y-71128015D01*
X127804449Y-71135023D01*
X127817111Y-71139858D01*
X127919692Y-71179030D01*
X127924760Y-71180061D01*
X127924763Y-71180062D01*
X128019862Y-71199410D01*
X128138597Y-71223567D01*
X128143772Y-71223757D01*
X128143774Y-71223757D01*
X128356673Y-71231564D01*
X128356677Y-71231564D01*
X128361837Y-71231753D01*
X128366957Y-71231097D01*
X128366959Y-71231097D01*
X128578288Y-71204025D01*
X128578289Y-71204025D01*
X128583416Y-71203368D01*
X128588376Y-71201880D01*
X128792429Y-71140661D01*
X128792434Y-71140659D01*
X128797384Y-71139174D01*
X128997994Y-71040896D01*
X129179860Y-70911173D01*
X129338096Y-70753489D01*
X129468453Y-70572077D01*
X129469776Y-70573028D01*
X129516645Y-70529857D01*
X129586580Y-70517625D01*
X129652026Y-70545144D01*
X129679875Y-70576994D01*
X129739987Y-70675088D01*
X129886250Y-70843938D01*
X129945947Y-70893499D01*
X129985582Y-70952401D01*
X129987080Y-71023382D01*
X129954557Y-71079538D01*
X129147747Y-71886348D01*
X129139461Y-71893888D01*
X129132982Y-71898000D01*
X129127557Y-71903777D01*
X129086357Y-71947651D01*
X129083602Y-71950493D01*
X129063865Y-71970230D01*
X129061385Y-71973427D01*
X129053682Y-71982447D01*
X129023414Y-72014679D01*
X129019595Y-72021625D01*
X129019593Y-72021628D01*
X129013652Y-72032434D01*
X129002801Y-72048953D01*
X128990386Y-72064959D01*
X128987241Y-72072228D01*
X128987238Y-72072232D01*
X128972826Y-72105537D01*
X128967609Y-72116187D01*
X128946305Y-72154940D01*
X128944334Y-72162615D01*
X128944334Y-72162616D01*
X128941267Y-72174562D01*
X128934863Y-72193266D01*
X128926819Y-72211855D01*
X128925580Y-72219678D01*
X128925577Y-72219688D01*
X128919901Y-72255524D01*
X128917495Y-72267144D01*
X128906500Y-72309970D01*
X128906500Y-72330224D01*
X128904949Y-72349934D01*
X128901780Y-72369943D01*
X128902526Y-72377835D01*
X128905941Y-72413961D01*
X128906500Y-72425819D01*
X128906500Y-74227476D01*
X128886498Y-74295597D01*
X128874142Y-74311779D01*
X128800960Y-74393056D01*
X128797659Y-74398774D01*
X128714002Y-74543672D01*
X128705473Y-74558444D01*
X128646458Y-74740072D01*
X128645768Y-74746633D01*
X128645768Y-74746635D01*
X128631250Y-74884771D01*
X128626496Y-74930000D01*
X128627186Y-74936565D01*
X128634414Y-75005331D01*
X128646458Y-75119928D01*
X128705473Y-75301556D01*
X128800960Y-75466944D01*
X128805378Y-75471851D01*
X128805379Y-75471852D01*
X128848784Y-75520058D01*
X128928747Y-75608866D01*
X128984960Y-75649707D01*
X129059521Y-75703879D01*
X129083248Y-75721118D01*
X129089276Y-75723802D01*
X129089278Y-75723803D01*
X129251681Y-75796109D01*
X129257712Y-75798794D01*
X129351112Y-75818647D01*
X129438056Y-75837128D01*
X129438061Y-75837128D01*
X129444513Y-75838500D01*
X129635487Y-75838500D01*
X129641939Y-75837128D01*
X129641944Y-75837128D01*
X129728888Y-75818647D01*
X129822288Y-75798794D01*
X129828319Y-75796109D01*
X129990722Y-75723803D01*
X129990724Y-75723802D01*
X129996752Y-75721118D01*
X130020480Y-75703879D01*
X130095040Y-75649707D01*
X130151253Y-75608866D01*
X130231216Y-75520058D01*
X130274621Y-75471852D01*
X130274622Y-75471851D01*
X130279040Y-75466944D01*
X130374527Y-75301556D01*
X130433542Y-75119928D01*
X130445587Y-75005331D01*
X130452814Y-74936565D01*
X130453504Y-74930000D01*
X130448750Y-74884771D01*
X130434232Y-74746635D01*
X130434232Y-74746633D01*
X130433542Y-74740072D01*
X130374527Y-74558444D01*
X130365999Y-74543672D01*
X130282341Y-74398774D01*
X130279040Y-74393056D01*
X130205863Y-74311785D01*
X130175147Y-74247779D01*
X130173500Y-74227476D01*
X130173500Y-73294782D01*
X130193502Y-73226661D01*
X130247158Y-73180168D01*
X130317432Y-73170064D01*
X130352730Y-73182282D01*
X130353248Y-73181118D01*
X130527712Y-73258794D01*
X130621113Y-73278647D01*
X130708056Y-73297128D01*
X130708061Y-73297128D01*
X130714513Y-73298500D01*
X130770406Y-73298500D01*
X130838527Y-73318502D01*
X130859501Y-73335405D01*
X133816343Y-76292247D01*
X133823887Y-76300537D01*
X133828000Y-76307018D01*
X133833777Y-76312443D01*
X133877667Y-76353658D01*
X133880509Y-76356413D01*
X133900231Y-76376135D01*
X133903355Y-76378558D01*
X133903359Y-76378562D01*
X133903424Y-76378612D01*
X133912445Y-76386317D01*
X133944679Y-76416586D01*
X133951627Y-76420405D01*
X133951629Y-76420407D01*
X133962432Y-76426346D01*
X133978959Y-76437202D01*
X133988698Y-76444757D01*
X133988700Y-76444758D01*
X133994960Y-76449614D01*
X134035540Y-76467174D01*
X134046188Y-76472391D01*
X134084940Y-76493695D01*
X134092616Y-76495666D01*
X134092619Y-76495667D01*
X134104562Y-76498733D01*
X134123267Y-76505137D01*
X134141855Y-76513181D01*
X134149678Y-76514420D01*
X134149688Y-76514423D01*
X134185524Y-76520099D01*
X134197144Y-76522505D01*
X134232289Y-76531528D01*
X134239970Y-76533500D01*
X134260224Y-76533500D01*
X134279934Y-76535051D01*
X134299943Y-76538220D01*
X134307835Y-76537474D01*
X134343961Y-76534059D01*
X134355819Y-76533500D01*
X136429274Y-76533500D01*
X136497395Y-76553502D01*
X136536707Y-76593665D01*
X136604987Y-76705088D01*
X136751250Y-76873938D01*
X136923126Y-77016632D01*
X136993595Y-77057811D01*
X136996445Y-77059476D01*
X137045169Y-77111114D01*
X137058240Y-77180897D01*
X137031509Y-77246669D01*
X136991055Y-77280027D01*
X136978607Y-77286507D01*
X136974474Y-77289610D01*
X136974471Y-77289612D01*
X136804100Y-77417530D01*
X136799965Y-77420635D01*
X136796393Y-77424373D01*
X136688406Y-77537375D01*
X136645629Y-77582138D01*
X136519743Y-77766680D01*
X136425688Y-77969305D01*
X136365989Y-78184570D01*
X136342251Y-78406695D01*
X136342548Y-78411848D01*
X136342548Y-78411851D01*
X136348011Y-78506590D01*
X136355110Y-78629715D01*
X136356247Y-78634761D01*
X136356248Y-78634767D01*
X136370279Y-78697024D01*
X136404222Y-78847639D01*
X136488266Y-79054616D01*
X136539019Y-79137438D01*
X136602291Y-79240688D01*
X136604987Y-79245088D01*
X136751250Y-79413938D01*
X136923126Y-79556632D01*
X137116000Y-79669338D01*
X137324692Y-79749030D01*
X137329760Y-79750061D01*
X137329763Y-79750062D01*
X137437003Y-79771880D01*
X137543597Y-79793567D01*
X137548772Y-79793757D01*
X137548774Y-79793757D01*
X137761673Y-79801564D01*
X137761677Y-79801564D01*
X137766837Y-79801753D01*
X137771957Y-79801097D01*
X137771959Y-79801097D01*
X137983288Y-79774025D01*
X137983289Y-79774025D01*
X137988416Y-79773368D01*
X138034827Y-79759444D01*
X138197429Y-79710661D01*
X138197434Y-79710659D01*
X138202384Y-79709174D01*
X138402994Y-79610896D01*
X138584860Y-79481173D01*
X138743096Y-79323489D01*
X138802594Y-79240689D01*
X138873453Y-79142077D01*
X138874776Y-79143028D01*
X138921645Y-79099857D01*
X138991580Y-79087625D01*
X139057026Y-79115144D01*
X139084875Y-79146994D01*
X139144987Y-79245088D01*
X139291250Y-79413938D01*
X139463126Y-79556632D01*
X139656000Y-79669338D01*
X139864692Y-79749030D01*
X139869760Y-79750061D01*
X139869763Y-79750062D01*
X139977003Y-79771880D01*
X140083597Y-79793567D01*
X140088772Y-79793757D01*
X140088774Y-79793757D01*
X140301673Y-79801564D01*
X140301677Y-79801564D01*
X140306837Y-79801753D01*
X140311957Y-79801097D01*
X140311959Y-79801097D01*
X140523288Y-79774025D01*
X140523289Y-79774025D01*
X140528416Y-79773368D01*
X140574827Y-79759444D01*
X140737429Y-79710661D01*
X140737434Y-79710659D01*
X140742384Y-79709174D01*
X140942994Y-79610896D01*
X141124860Y-79481173D01*
X141283096Y-79323489D01*
X141342594Y-79240689D01*
X141413453Y-79142077D01*
X141414776Y-79143028D01*
X141461645Y-79099857D01*
X141531580Y-79087625D01*
X141597026Y-79115144D01*
X141624875Y-79146994D01*
X141684987Y-79245088D01*
X141831250Y-79413938D01*
X142003126Y-79556632D01*
X142196000Y-79669338D01*
X142404692Y-79749030D01*
X142409760Y-79750061D01*
X142409763Y-79750062D01*
X142517003Y-79771880D01*
X142623597Y-79793567D01*
X142628772Y-79793757D01*
X142628774Y-79793757D01*
X142841673Y-79801564D01*
X142841677Y-79801564D01*
X142846837Y-79801753D01*
X142851957Y-79801097D01*
X142851959Y-79801097D01*
X142930512Y-79791034D01*
X143068416Y-79773368D01*
X143114826Y-79759444D01*
X143185821Y-79759026D01*
X143240129Y-79791034D01*
X143456348Y-80007253D01*
X143463888Y-80015539D01*
X143468000Y-80022018D01*
X143473777Y-80027443D01*
X143517651Y-80068643D01*
X143520493Y-80071398D01*
X143540230Y-80091135D01*
X143543427Y-80093615D01*
X143552447Y-80101318D01*
X143584679Y-80131586D01*
X143591625Y-80135405D01*
X143591628Y-80135407D01*
X143602434Y-80141348D01*
X143618953Y-80152199D01*
X143634959Y-80164614D01*
X143642228Y-80167759D01*
X143642232Y-80167762D01*
X143675537Y-80182174D01*
X143686187Y-80187391D01*
X143724940Y-80208695D01*
X143732615Y-80210666D01*
X143732616Y-80210666D01*
X143744562Y-80213733D01*
X143763267Y-80220137D01*
X143781855Y-80228181D01*
X143789678Y-80229420D01*
X143789688Y-80229423D01*
X143825524Y-80235099D01*
X143837144Y-80237505D01*
X143868959Y-80245673D01*
X143879970Y-80248500D01*
X143900224Y-80248500D01*
X143919934Y-80250051D01*
X143939943Y-80253220D01*
X143947835Y-80252474D01*
X143966580Y-80250702D01*
X143983962Y-80249059D01*
X143995819Y-80248500D01*
X150176233Y-80248500D01*
X150187416Y-80249027D01*
X150194909Y-80250702D01*
X150202835Y-80250453D01*
X150202836Y-80250453D01*
X150262986Y-80248562D01*
X150266945Y-80248500D01*
X150294856Y-80248500D01*
X150298791Y-80248003D01*
X150298856Y-80247995D01*
X150310693Y-80247062D01*
X150342951Y-80246048D01*
X150346970Y-80245922D01*
X150354889Y-80245673D01*
X150374343Y-80240021D01*
X150393700Y-80236013D01*
X150405930Y-80234468D01*
X150405931Y-80234468D01*
X150413797Y-80233474D01*
X150421168Y-80230555D01*
X150421170Y-80230555D01*
X150454912Y-80217196D01*
X150466142Y-80213351D01*
X150500983Y-80203229D01*
X150500984Y-80203229D01*
X150508593Y-80201018D01*
X150515412Y-80196985D01*
X150515417Y-80196983D01*
X150526028Y-80190707D01*
X150543776Y-80182012D01*
X150562617Y-80174552D01*
X150598387Y-80148564D01*
X150608307Y-80142048D01*
X150639535Y-80123580D01*
X150639538Y-80123578D01*
X150646362Y-80119542D01*
X150660683Y-80105221D01*
X150675717Y-80092380D01*
X150685694Y-80085131D01*
X150692107Y-80080472D01*
X150720298Y-80046395D01*
X150728288Y-80037616D01*
X153620499Y-77145405D01*
X153682811Y-77111379D01*
X153709594Y-77108500D01*
X153765487Y-77108500D01*
X153771939Y-77107128D01*
X153771944Y-77107128D01*
X153858887Y-77088647D01*
X153952288Y-77068794D01*
X153958319Y-77066109D01*
X154120722Y-76993803D01*
X154120724Y-76993802D01*
X154126752Y-76991118D01*
X154142965Y-76979339D01*
X154246857Y-76903856D01*
X154281253Y-76878866D01*
X154289274Y-76869958D01*
X154404621Y-76741852D01*
X154404622Y-76741851D01*
X154409040Y-76736944D01*
X154504527Y-76571556D01*
X154563542Y-76389928D01*
X154564732Y-76378612D01*
X154582814Y-76206565D01*
X154583504Y-76200000D01*
X154570928Y-76080342D01*
X154564232Y-76016635D01*
X154564232Y-76016633D01*
X154563542Y-76010072D01*
X154504527Y-75828444D01*
X154409040Y-75663056D01*
X154389654Y-75641525D01*
X154285675Y-75526045D01*
X154285674Y-75526044D01*
X154281253Y-75521134D01*
X154126752Y-75408882D01*
X154120724Y-75406198D01*
X154120722Y-75406197D01*
X153958319Y-75333891D01*
X153958318Y-75333891D01*
X153952288Y-75331206D01*
X153839721Y-75307279D01*
X153771944Y-75292872D01*
X153771939Y-75292872D01*
X153765487Y-75291500D01*
X153574513Y-75291500D01*
X153568061Y-75292872D01*
X153568056Y-75292872D01*
X153500279Y-75307279D01*
X153387712Y-75331206D01*
X153381682Y-75333891D01*
X153381681Y-75333891D01*
X153219278Y-75406197D01*
X153219276Y-75406198D01*
X153213248Y-75408882D01*
X153058747Y-75521134D01*
X153054326Y-75526044D01*
X153054325Y-75526045D01*
X152950347Y-75641525D01*
X152930960Y-75663056D01*
X152835473Y-75828444D01*
X152776458Y-76010072D01*
X152775768Y-76016633D01*
X152775768Y-76016635D01*
X152769072Y-76080342D01*
X152760553Y-76161405D01*
X152759093Y-76175292D01*
X152732080Y-76240949D01*
X152722878Y-76251217D01*
X150029500Y-78944595D01*
X149967188Y-78978621D01*
X149940405Y-78981500D01*
X146750340Y-78981500D01*
X146682219Y-78961498D01*
X146635726Y-78907842D01*
X146625622Y-78837568D01*
X146629782Y-78818871D01*
X146638582Y-78789908D01*
X146657370Y-78728069D01*
X146686529Y-78506590D01*
X146686611Y-78503240D01*
X146688074Y-78443365D01*
X146688074Y-78443361D01*
X146688156Y-78440000D01*
X146669852Y-78217361D01*
X146615431Y-78000702D01*
X146526354Y-77795840D01*
X146479265Y-77723051D01*
X146407822Y-77612617D01*
X146407820Y-77612614D01*
X146405014Y-77608277D01*
X146401538Y-77604457D01*
X146401533Y-77604450D01*
X146257435Y-77446088D01*
X146226383Y-77382242D01*
X146234779Y-77311744D01*
X146279956Y-77256976D01*
X146306400Y-77243307D01*
X146413052Y-77203325D01*
X146428649Y-77194786D01*
X146530724Y-77118285D01*
X146543285Y-77105724D01*
X146619786Y-77003649D01*
X146628324Y-76988054D01*
X146673478Y-76867606D01*
X146677105Y-76852351D01*
X146682631Y-76801486D01*
X146683000Y-76794672D01*
X146683000Y-76172115D01*
X146678525Y-76156876D01*
X146677135Y-76155671D01*
X146669452Y-76154000D01*
X145197000Y-76154000D01*
X145128879Y-76133998D01*
X145082386Y-76080342D01*
X145071000Y-76028000D01*
X145071000Y-75627885D01*
X145579000Y-75627885D01*
X145583475Y-75643124D01*
X145584865Y-75644329D01*
X145592548Y-75646000D01*
X146664884Y-75646000D01*
X146680123Y-75641525D01*
X146681328Y-75640135D01*
X146682999Y-75632452D01*
X146682999Y-75005331D01*
X146682629Y-74998510D01*
X146677105Y-74947648D01*
X146673479Y-74932396D01*
X146628324Y-74811946D01*
X146619786Y-74796351D01*
X146543285Y-74694276D01*
X146530724Y-74681715D01*
X146428649Y-74605214D01*
X146413054Y-74596676D01*
X146292606Y-74551522D01*
X146277351Y-74547895D01*
X146226486Y-74542369D01*
X146219672Y-74542000D01*
X145597115Y-74542000D01*
X145581876Y-74546475D01*
X145580671Y-74547865D01*
X145579000Y-74555548D01*
X145579000Y-75627885D01*
X145071000Y-75627885D01*
X145071000Y-74560116D01*
X145066525Y-74544877D01*
X145065135Y-74543672D01*
X145057452Y-74542001D01*
X144430331Y-74542001D01*
X144423510Y-74542371D01*
X144372648Y-74547895D01*
X144357396Y-74551521D01*
X144236946Y-74596676D01*
X144221351Y-74605214D01*
X144119276Y-74681715D01*
X144106715Y-74694276D01*
X144030214Y-74796351D01*
X144021676Y-74811946D01*
X143980297Y-74922322D01*
X143937655Y-74979087D01*
X143871093Y-75003786D01*
X143801744Y-74988578D01*
X143769121Y-74962891D01*
X143718151Y-74906876D01*
X143718145Y-74906870D01*
X143714670Y-74903051D01*
X143710619Y-74899852D01*
X143710615Y-74899848D01*
X143543414Y-74767800D01*
X143543410Y-74767798D01*
X143539359Y-74764598D01*
X143343789Y-74656638D01*
X143338920Y-74654914D01*
X143338916Y-74654912D01*
X143138087Y-74583795D01*
X143138083Y-74583794D01*
X143133212Y-74582069D01*
X143128119Y-74581162D01*
X143128116Y-74581161D01*
X142918373Y-74543800D01*
X142918367Y-74543799D01*
X142913284Y-74542894D01*
X142839452Y-74541992D01*
X142695081Y-74540228D01*
X142695079Y-74540228D01*
X142689911Y-74540165D01*
X142469091Y-74573955D01*
X142256756Y-74643357D01*
X142226443Y-74659137D01*
X142070969Y-74740072D01*
X142058607Y-74746507D01*
X142054474Y-74749610D01*
X142054471Y-74749612D01*
X141884100Y-74877530D01*
X141879965Y-74880635D01*
X141725629Y-75042138D01*
X141618201Y-75199621D01*
X141563293Y-75244621D01*
X141492768Y-75252792D01*
X141429021Y-75221538D01*
X141408324Y-75197054D01*
X141327822Y-75072617D01*
X141327820Y-75072614D01*
X141325014Y-75068277D01*
X141174670Y-74903051D01*
X141170619Y-74899852D01*
X141170615Y-74899848D01*
X141003414Y-74767800D01*
X141003410Y-74767798D01*
X140999359Y-74764598D01*
X140803789Y-74656638D01*
X140798920Y-74654914D01*
X140798916Y-74654912D01*
X140598087Y-74583795D01*
X140598083Y-74583794D01*
X140593212Y-74582069D01*
X140588119Y-74581162D01*
X140588116Y-74581161D01*
X140378373Y-74543800D01*
X140378367Y-74543799D01*
X140373284Y-74542894D01*
X140299452Y-74541992D01*
X140155081Y-74540228D01*
X140155079Y-74540228D01*
X140149911Y-74540165D01*
X139929091Y-74573955D01*
X139716756Y-74643357D01*
X139686443Y-74659137D01*
X139530969Y-74740072D01*
X139518607Y-74746507D01*
X139514474Y-74749610D01*
X139514471Y-74749612D01*
X139344100Y-74877530D01*
X139339965Y-74880635D01*
X139185629Y-75042138D01*
X139078201Y-75199621D01*
X139023293Y-75244621D01*
X138952768Y-75252792D01*
X138889021Y-75221538D01*
X138868324Y-75197054D01*
X138787822Y-75072617D01*
X138787820Y-75072614D01*
X138785014Y-75068277D01*
X138634670Y-74903051D01*
X138630619Y-74899852D01*
X138630615Y-74899848D01*
X138463414Y-74767800D01*
X138463410Y-74767798D01*
X138459359Y-74764598D01*
X138263789Y-74656638D01*
X138258920Y-74654914D01*
X138258916Y-74654912D01*
X138058087Y-74583795D01*
X138058083Y-74583794D01*
X138053212Y-74582069D01*
X138048119Y-74581162D01*
X138048116Y-74581161D01*
X137838373Y-74543800D01*
X137838367Y-74543799D01*
X137833284Y-74542894D01*
X137759452Y-74541992D01*
X137615081Y-74540228D01*
X137615079Y-74540228D01*
X137609911Y-74540165D01*
X137389091Y-74573955D01*
X137176756Y-74643357D01*
X137146443Y-74659137D01*
X136990969Y-74740072D01*
X136978607Y-74746507D01*
X136974474Y-74749610D01*
X136974471Y-74749612D01*
X136804100Y-74877530D01*
X136799965Y-74880635D01*
X136645629Y-75042138D01*
X136642720Y-75046403D01*
X136642714Y-75046411D01*
X136530095Y-75211504D01*
X136475184Y-75256507D01*
X136426007Y-75266500D01*
X134634594Y-75266500D01*
X134566473Y-75246498D01*
X134545499Y-75229595D01*
X131757122Y-72441217D01*
X131723096Y-72378905D01*
X131720907Y-72365292D01*
X131704232Y-72206635D01*
X131704232Y-72206633D01*
X131703542Y-72200072D01*
X131644527Y-72018444D01*
X131549040Y-71853056D01*
X131421253Y-71711134D01*
X131361221Y-71667518D01*
X131317867Y-71611296D01*
X131311792Y-71540559D01*
X131343431Y-71479330D01*
X131351161Y-71471098D01*
X131356586Y-71465321D01*
X131433695Y-71325060D01*
X131473500Y-71170030D01*
X131473500Y-71150427D01*
X131493502Y-71082306D01*
X131534618Y-71042550D01*
X131537994Y-71040896D01*
X131719860Y-70911173D01*
X131878096Y-70753489D01*
X132008453Y-70572077D01*
X132009640Y-70572930D01*
X132056960Y-70529362D01*
X132126897Y-70517145D01*
X132192338Y-70544678D01*
X132220166Y-70576511D01*
X132277694Y-70670388D01*
X132283777Y-70678699D01*
X132423213Y-70839667D01*
X132430580Y-70846883D01*
X132594434Y-70982916D01*
X132602881Y-70988831D01*
X132786756Y-71096279D01*
X132796042Y-71100729D01*
X132995001Y-71176703D01*
X133004899Y-71179579D01*
X133108250Y-71200606D01*
X133122299Y-71199410D01*
X133126000Y-71189065D01*
X133126000Y-69742000D01*
X133146002Y-69673879D01*
X133199658Y-69627386D01*
X133252000Y-69616000D01*
X133508000Y-69616000D01*
X133576121Y-69636002D01*
X133622614Y-69689658D01*
X133634000Y-69742000D01*
X133634000Y-71188517D01*
X133638064Y-71202359D01*
X133651478Y-71204393D01*
X133658184Y-71203534D01*
X133668262Y-71201392D01*
X133872255Y-71140191D01*
X133881842Y-71136433D01*
X134073095Y-71042739D01*
X134081945Y-71037464D01*
X134255328Y-70913792D01*
X134263200Y-70907139D01*
X134414052Y-70756812D01*
X134420730Y-70748965D01*
X134548022Y-70571819D01*
X134549279Y-70572722D01*
X134596373Y-70529362D01*
X134666311Y-70517145D01*
X134731751Y-70544678D01*
X134759579Y-70576511D01*
X134819987Y-70675088D01*
X134966250Y-70843938D01*
X135138126Y-70986632D01*
X135331000Y-71099338D01*
X135539692Y-71179030D01*
X135544760Y-71180061D01*
X135544763Y-71180062D01*
X135639862Y-71199410D01*
X135758597Y-71223567D01*
X135763772Y-71223757D01*
X135763774Y-71223757D01*
X135976673Y-71231564D01*
X135976677Y-71231564D01*
X135981837Y-71231753D01*
X135986957Y-71231097D01*
X135986959Y-71231097D01*
X136198288Y-71204025D01*
X136198289Y-71204025D01*
X136203416Y-71203368D01*
X136208376Y-71201880D01*
X136412429Y-71140661D01*
X136412434Y-71140659D01*
X136417384Y-71139174D01*
X136617994Y-71040896D01*
X136799860Y-70911173D01*
X136958096Y-70753489D01*
X137088453Y-70572077D01*
X137089776Y-70573028D01*
X137136645Y-70529857D01*
X137206580Y-70517625D01*
X137272026Y-70545144D01*
X137299875Y-70576994D01*
X137359987Y-70675088D01*
X137506250Y-70843938D01*
X137565947Y-70893499D01*
X137605582Y-70952401D01*
X137607080Y-71023382D01*
X137574557Y-71079538D01*
X135939500Y-72714595D01*
X135877188Y-72748621D01*
X135850405Y-72751500D01*
X135794513Y-72751500D01*
X135788061Y-72752872D01*
X135788056Y-72752872D01*
X135701113Y-72771353D01*
X135607712Y-72791206D01*
X135601682Y-72793891D01*
X135601681Y-72793891D01*
X135439278Y-72866197D01*
X135439276Y-72866198D01*
X135433248Y-72868882D01*
X135278747Y-72981134D01*
X135150960Y-73123056D01*
X135147659Y-73128774D01*
X135091144Y-73226661D01*
X135055473Y-73288444D01*
X134996458Y-73470072D01*
X134976496Y-73660000D01*
X134996458Y-73849928D01*
X135055473Y-74031556D01*
X135150960Y-74196944D01*
X135155378Y-74201851D01*
X135155379Y-74201852D01*
X135239787Y-74295597D01*
X135278747Y-74338866D01*
X135433248Y-74451118D01*
X135439276Y-74453802D01*
X135439278Y-74453803D01*
X135601681Y-74526109D01*
X135607712Y-74528794D01*
X135697575Y-74547895D01*
X135788056Y-74567128D01*
X135788061Y-74567128D01*
X135794513Y-74568500D01*
X135985487Y-74568500D01*
X135991939Y-74567128D01*
X135991944Y-74567128D01*
X136082425Y-74547895D01*
X136172288Y-74528794D01*
X136178319Y-74526109D01*
X136340722Y-74453803D01*
X136340724Y-74453802D01*
X136346752Y-74451118D01*
X136501253Y-74338866D01*
X136540213Y-74295597D01*
X136624621Y-74201852D01*
X136624622Y-74201851D01*
X136629040Y-74196944D01*
X136724527Y-74031556D01*
X136783542Y-73849928D01*
X136800907Y-73684706D01*
X136827920Y-73619050D01*
X136837122Y-73608782D01*
X138852253Y-71593652D01*
X138860539Y-71586112D01*
X138867018Y-71582000D01*
X138913644Y-71532348D01*
X138916398Y-71529507D01*
X138936135Y-71509770D01*
X138938615Y-71506573D01*
X138946320Y-71497551D01*
X138971159Y-71471100D01*
X138976586Y-71465321D01*
X138980405Y-71458375D01*
X138980407Y-71458372D01*
X138986348Y-71447566D01*
X138997199Y-71431047D01*
X139004758Y-71421301D01*
X139009614Y-71415041D01*
X139012759Y-71407772D01*
X139012762Y-71407768D01*
X139027174Y-71374463D01*
X139032391Y-71363813D01*
X139053695Y-71325060D01*
X139058733Y-71305437D01*
X139065137Y-71286734D01*
X139070033Y-71275420D01*
X139070033Y-71275419D01*
X139073181Y-71268145D01*
X139074420Y-71260322D01*
X139074423Y-71260312D01*
X139080099Y-71224476D01*
X139082505Y-71212856D01*
X139091528Y-71177711D01*
X139091528Y-71177709D01*
X139093500Y-71170030D01*
X139093500Y-71150427D01*
X139113502Y-71082306D01*
X139154618Y-71042550D01*
X139157994Y-71040896D01*
X139339860Y-70911173D01*
X139498096Y-70753489D01*
X139628453Y-70572077D01*
X139629776Y-70573028D01*
X139676645Y-70529857D01*
X139746580Y-70517625D01*
X139812026Y-70545144D01*
X139839875Y-70576994D01*
X139899987Y-70675088D01*
X140046250Y-70843938D01*
X140218126Y-70986632D01*
X140411000Y-71099338D01*
X140619692Y-71179030D01*
X140624760Y-71180061D01*
X140624763Y-71180062D01*
X140719862Y-71199410D01*
X140838597Y-71223567D01*
X140843772Y-71223757D01*
X140843774Y-71223757D01*
X141056673Y-71231564D01*
X141056677Y-71231564D01*
X141061837Y-71231753D01*
X141066957Y-71231097D01*
X141066959Y-71231097D01*
X141278288Y-71204025D01*
X141278289Y-71204025D01*
X141283416Y-71203368D01*
X141288376Y-71201880D01*
X141492429Y-71140661D01*
X141492434Y-71140659D01*
X141497384Y-71139174D01*
X141697994Y-71040896D01*
X141879860Y-70911173D01*
X142038096Y-70753489D01*
X142168453Y-70572077D01*
X142169776Y-70573028D01*
X142216645Y-70529857D01*
X142286580Y-70517625D01*
X142352026Y-70545144D01*
X142379875Y-70576994D01*
X142439987Y-70675088D01*
X142586250Y-70843938D01*
X142758126Y-70986632D01*
X142951000Y-71099338D01*
X143159692Y-71179030D01*
X143164760Y-71180061D01*
X143164763Y-71180062D01*
X143259862Y-71199410D01*
X143378597Y-71223567D01*
X143383772Y-71223757D01*
X143383774Y-71223757D01*
X143596673Y-71231564D01*
X143596677Y-71231564D01*
X143601837Y-71231753D01*
X143606957Y-71231097D01*
X143606959Y-71231097D01*
X143818288Y-71204025D01*
X143818289Y-71204025D01*
X143823416Y-71203368D01*
X143828376Y-71201880D01*
X144032429Y-71140661D01*
X144032434Y-71140659D01*
X144037384Y-71139174D01*
X144237994Y-71040896D01*
X144419860Y-70911173D01*
X144578096Y-70753489D01*
X144708453Y-70572077D01*
X144709776Y-70573028D01*
X144756645Y-70529857D01*
X144826580Y-70517625D01*
X144892026Y-70545144D01*
X144919875Y-70576994D01*
X144979987Y-70675088D01*
X145126250Y-70843938D01*
X145298126Y-70986632D01*
X145491000Y-71099338D01*
X145699692Y-71179030D01*
X145704760Y-71180061D01*
X145704763Y-71180062D01*
X145799862Y-71199410D01*
X145918597Y-71223567D01*
X145923772Y-71223757D01*
X145923774Y-71223757D01*
X146136673Y-71231564D01*
X146136677Y-71231564D01*
X146141837Y-71231753D01*
X146146957Y-71231097D01*
X146146959Y-71231097D01*
X146358288Y-71204025D01*
X146358289Y-71204025D01*
X146363416Y-71203368D01*
X146368376Y-71201880D01*
X146572429Y-71140661D01*
X146572434Y-71140659D01*
X146577384Y-71139174D01*
X146777994Y-71040896D01*
X146959860Y-70911173D01*
X147118096Y-70753489D01*
X147248453Y-70572077D01*
X147249776Y-70573028D01*
X147296645Y-70529857D01*
X147366580Y-70517625D01*
X147432026Y-70545144D01*
X147459875Y-70576994D01*
X147519987Y-70675088D01*
X147666250Y-70843938D01*
X147838126Y-70986632D01*
X148031000Y-71099338D01*
X148239692Y-71179030D01*
X148244760Y-71180061D01*
X148244763Y-71180062D01*
X148339862Y-71199410D01*
X148458597Y-71223567D01*
X148463772Y-71223757D01*
X148463774Y-71223757D01*
X148676673Y-71231564D01*
X148676677Y-71231564D01*
X148681837Y-71231753D01*
X148686957Y-71231097D01*
X148686959Y-71231097D01*
X148898288Y-71204025D01*
X148898289Y-71204025D01*
X148903416Y-71203368D01*
X148908376Y-71201880D01*
X149112429Y-71140661D01*
X149112434Y-71140659D01*
X149117384Y-71139174D01*
X149317994Y-71040896D01*
X149499860Y-70911173D01*
X149658096Y-70753489D01*
X149788453Y-70572077D01*
X149789640Y-70572930D01*
X149836960Y-70529362D01*
X149906897Y-70517145D01*
X149972338Y-70544678D01*
X150000166Y-70576511D01*
X150057694Y-70670388D01*
X150063777Y-70678699D01*
X150203213Y-70839667D01*
X150210580Y-70846883D01*
X150374434Y-70982916D01*
X150382881Y-70988831D01*
X150566756Y-71096279D01*
X150576042Y-71100729D01*
X150775001Y-71176703D01*
X150784899Y-71179579D01*
X150888250Y-71200606D01*
X150902299Y-71199410D01*
X150906000Y-71189065D01*
X150906000Y-71188517D01*
X151414000Y-71188517D01*
X151418064Y-71202359D01*
X151431478Y-71204393D01*
X151438184Y-71203534D01*
X151448262Y-71201392D01*
X151652255Y-71140191D01*
X151661842Y-71136433D01*
X151853095Y-71042739D01*
X151861945Y-71037464D01*
X152035328Y-70913792D01*
X152043200Y-70907139D01*
X152194052Y-70756812D01*
X152200730Y-70748965D01*
X152325003Y-70576020D01*
X152330313Y-70567183D01*
X152424670Y-70376267D01*
X152428469Y-70366672D01*
X152490377Y-70162910D01*
X152492555Y-70152837D01*
X152493986Y-70141962D01*
X152491775Y-70127778D01*
X152478617Y-70124000D01*
X151432115Y-70124000D01*
X151416876Y-70128475D01*
X151415671Y-70129865D01*
X151414000Y-70137548D01*
X151414000Y-71188517D01*
X150906000Y-71188517D01*
X150906000Y-69742000D01*
X150926002Y-69673879D01*
X150979658Y-69627386D01*
X151032000Y-69616000D01*
X152478344Y-69616000D01*
X152491875Y-69612027D01*
X152493180Y-69602947D01*
X152451214Y-69435875D01*
X152447894Y-69426124D01*
X152362972Y-69230814D01*
X152358105Y-69221739D01*
X152242426Y-69042926D01*
X152236136Y-69034757D01*
X152092806Y-68877240D01*
X152085273Y-68870215D01*
X151918139Y-68738222D01*
X151909556Y-68732520D01*
X151872602Y-68712120D01*
X151822631Y-68661687D01*
X151807859Y-68592245D01*
X151832975Y-68525839D01*
X151860327Y-68499232D01*
X151884040Y-68482318D01*
X152039860Y-68371173D01*
X152198096Y-68213489D01*
X152257594Y-68130689D01*
X152325435Y-68036277D01*
X152328453Y-68032077D01*
X152341995Y-68004678D01*
X152425136Y-67836453D01*
X152425137Y-67836451D01*
X152427430Y-67831811D01*
X152492370Y-67618069D01*
X152521529Y-67396590D01*
X152523156Y-67330000D01*
X152504852Y-67107361D01*
X152450431Y-66890702D01*
X152361354Y-66685840D01*
X152240014Y-66498277D01*
X152089670Y-66333051D01*
X152085619Y-66329852D01*
X152085615Y-66329848D01*
X151918414Y-66197800D01*
X151918410Y-66197798D01*
X151914359Y-66194598D01*
X151878028Y-66174542D01*
X151862136Y-66165769D01*
X151718789Y-66086638D01*
X151713920Y-66084914D01*
X151713916Y-66084912D01*
X151513087Y-66013795D01*
X151513083Y-66013794D01*
X151508212Y-66012069D01*
X151503119Y-66011162D01*
X151503116Y-66011161D01*
X151293373Y-65973800D01*
X151293367Y-65973799D01*
X151288284Y-65972894D01*
X151214452Y-65971992D01*
X151070081Y-65970228D01*
X151070079Y-65970228D01*
X151064911Y-65970165D01*
X150844091Y-66003955D01*
X150631756Y-66073357D01*
X150433607Y-66176507D01*
X150429474Y-66179610D01*
X150429471Y-66179612D01*
X150259100Y-66307530D01*
X150254965Y-66310635D01*
X150251393Y-66314373D01*
X150153054Y-66417279D01*
X150100629Y-66472138D01*
X149993201Y-66629621D01*
X149938293Y-66674621D01*
X149867768Y-66682792D01*
X149804021Y-66651538D01*
X149783324Y-66627054D01*
X149702822Y-66502617D01*
X149702820Y-66502614D01*
X149700014Y-66498277D01*
X149549670Y-66333051D01*
X149545619Y-66329852D01*
X149545615Y-66329848D01*
X149378414Y-66197800D01*
X149378410Y-66197798D01*
X149374359Y-66194598D01*
X149338028Y-66174542D01*
X149322136Y-66165769D01*
X149178789Y-66086638D01*
X149173920Y-66084914D01*
X149173916Y-66084912D01*
X148973087Y-66013795D01*
X148973083Y-66013794D01*
X148968212Y-66012069D01*
X148963119Y-66011162D01*
X148963116Y-66011161D01*
X148753373Y-65973800D01*
X148753367Y-65973799D01*
X148748284Y-65972894D01*
X148674452Y-65971992D01*
X148530081Y-65970228D01*
X148530079Y-65970228D01*
X148524911Y-65970165D01*
X148304091Y-66003955D01*
X148091756Y-66073357D01*
X147893607Y-66176507D01*
X147889474Y-66179610D01*
X147889471Y-66179612D01*
X147719100Y-66307530D01*
X147714965Y-66310635D01*
X147711393Y-66314373D01*
X147613054Y-66417279D01*
X147560629Y-66472138D01*
X147453201Y-66629621D01*
X147398293Y-66674621D01*
X147327768Y-66682792D01*
X147264021Y-66651538D01*
X147243324Y-66627054D01*
X147162822Y-66502617D01*
X147162820Y-66502614D01*
X147160014Y-66498277D01*
X147009670Y-66333051D01*
X147005619Y-66329852D01*
X147005615Y-66329848D01*
X146838414Y-66197800D01*
X146838410Y-66197798D01*
X146834359Y-66194598D01*
X146798028Y-66174542D01*
X146782136Y-66165769D01*
X146638789Y-66086638D01*
X146633920Y-66084914D01*
X146633916Y-66084912D01*
X146433087Y-66013795D01*
X146433083Y-66013794D01*
X146428212Y-66012069D01*
X146423119Y-66011162D01*
X146423116Y-66011161D01*
X146213373Y-65973800D01*
X146213367Y-65973799D01*
X146208284Y-65972894D01*
X146134452Y-65971992D01*
X145990081Y-65970228D01*
X145990079Y-65970228D01*
X145984911Y-65970165D01*
X145764091Y-66003955D01*
X145551756Y-66073357D01*
X145353607Y-66176507D01*
X145349474Y-66179610D01*
X145349471Y-66179612D01*
X145179100Y-66307530D01*
X145174965Y-66310635D01*
X145171393Y-66314373D01*
X145073054Y-66417279D01*
X145020629Y-66472138D01*
X144913204Y-66629618D01*
X144912898Y-66630066D01*
X144857987Y-66675069D01*
X144787462Y-66683240D01*
X144723715Y-66651986D01*
X144703018Y-66627502D01*
X144622426Y-66502926D01*
X144616136Y-66494757D01*
X144472806Y-66337240D01*
X144465273Y-66330215D01*
X144298139Y-66198222D01*
X144289552Y-66192517D01*
X144103117Y-66089599D01*
X144093705Y-66085369D01*
X143892959Y-66014280D01*
X143882988Y-66011646D01*
X143811837Y-65998972D01*
X143798540Y-66000432D01*
X143794000Y-66014989D01*
X143794000Y-67458000D01*
X143773998Y-67526121D01*
X143720342Y-67572614D01*
X143668000Y-67584000D01*
X143412000Y-67584000D01*
X143343879Y-67563998D01*
X143297386Y-67510342D01*
X143286000Y-67458000D01*
X143286000Y-66013102D01*
X143282082Y-65999758D01*
X143267806Y-65997771D01*
X143229324Y-66003660D01*
X143219288Y-66006051D01*
X143016868Y-66072212D01*
X143007359Y-66076209D01*
X142818463Y-66174542D01*
X142809738Y-66180036D01*
X142639433Y-66307905D01*
X142631726Y-66314748D01*
X142484590Y-66468717D01*
X142478109Y-66476722D01*
X142373498Y-66630074D01*
X142318587Y-66675076D01*
X142248062Y-66683247D01*
X142184315Y-66651993D01*
X142163618Y-66627509D01*
X142082822Y-66502617D01*
X142082820Y-66502614D01*
X142080014Y-66498277D01*
X141929670Y-66333051D01*
X141925619Y-66329852D01*
X141925615Y-66329848D01*
X141758414Y-66197800D01*
X141758410Y-66197798D01*
X141754359Y-66194598D01*
X141718028Y-66174542D01*
X141702136Y-66165769D01*
X141558789Y-66086638D01*
X141553920Y-66084914D01*
X141553916Y-66084912D01*
X141353087Y-66013795D01*
X141353083Y-66013794D01*
X141348212Y-66012069D01*
X141343119Y-66011162D01*
X141343116Y-66011161D01*
X141133373Y-65973800D01*
X141133367Y-65973799D01*
X141128284Y-65972894D01*
X141054452Y-65971992D01*
X140910081Y-65970228D01*
X140910079Y-65970228D01*
X140904911Y-65970165D01*
X140684091Y-66003955D01*
X140471756Y-66073357D01*
X140273607Y-66176507D01*
X140269474Y-66179610D01*
X140269471Y-66179612D01*
X140099100Y-66307530D01*
X140094965Y-66310635D01*
X140091393Y-66314373D01*
X139993054Y-66417279D01*
X139940629Y-66472138D01*
X139833204Y-66629618D01*
X139832898Y-66630066D01*
X139777987Y-66675069D01*
X139707462Y-66683240D01*
X139643715Y-66651986D01*
X139623018Y-66627502D01*
X139542426Y-66502926D01*
X139536136Y-66494757D01*
X139392806Y-66337240D01*
X139385273Y-66330215D01*
X139218139Y-66198222D01*
X139209552Y-66192517D01*
X139023117Y-66089599D01*
X139013705Y-66085369D01*
X138812959Y-66014280D01*
X138802988Y-66011646D01*
X138731837Y-65998972D01*
X138718540Y-66000432D01*
X138714000Y-66014989D01*
X138714000Y-67458000D01*
X138693998Y-67526121D01*
X138640342Y-67572614D01*
X138588000Y-67584000D01*
X138332000Y-67584000D01*
X138263879Y-67563998D01*
X138217386Y-67510342D01*
X138206000Y-67458000D01*
X138206000Y-66013102D01*
X138202082Y-65999758D01*
X138187806Y-65997771D01*
X138149324Y-66003660D01*
X138139288Y-66006051D01*
X137936868Y-66072212D01*
X137927359Y-66076209D01*
X137738463Y-66174542D01*
X137729738Y-66180036D01*
X137559433Y-66307905D01*
X137551726Y-66314748D01*
X137404590Y-66468717D01*
X137398109Y-66476722D01*
X137293498Y-66630074D01*
X137238587Y-66675076D01*
X137168062Y-66683247D01*
X137104315Y-66651993D01*
X137083618Y-66627509D01*
X137002822Y-66502617D01*
X137002820Y-66502614D01*
X137000014Y-66498277D01*
X136849670Y-66333051D01*
X136845619Y-66329852D01*
X136845615Y-66329848D01*
X136678414Y-66197800D01*
X136678410Y-66197798D01*
X136674359Y-66194598D01*
X136638028Y-66174542D01*
X136622136Y-66165769D01*
X136478789Y-66086638D01*
X136473920Y-66084914D01*
X136473916Y-66084912D01*
X136273087Y-66013795D01*
X136273083Y-66013794D01*
X136268212Y-66012069D01*
X136263119Y-66011162D01*
X136263116Y-66011161D01*
X136053373Y-65973800D01*
X136053367Y-65973799D01*
X136048284Y-65972894D01*
X135974452Y-65971992D01*
X135830081Y-65970228D01*
X135830079Y-65970228D01*
X135824911Y-65970165D01*
X135604091Y-66003955D01*
X135391756Y-66073357D01*
X135193607Y-66176507D01*
X135189474Y-66179610D01*
X135189471Y-66179612D01*
X135019100Y-66307530D01*
X135014965Y-66310635D01*
X135011393Y-66314373D01*
X134913054Y-66417279D01*
X134860629Y-66472138D01*
X134753201Y-66629621D01*
X134698293Y-66674621D01*
X134627768Y-66682792D01*
X134564021Y-66651538D01*
X134543324Y-66627054D01*
X134462822Y-66502617D01*
X134462820Y-66502614D01*
X134460014Y-66498277D01*
X134309670Y-66333051D01*
X134305619Y-66329852D01*
X134305615Y-66329848D01*
X134138414Y-66197800D01*
X134138410Y-66197798D01*
X134134359Y-66194598D01*
X134098028Y-66174542D01*
X134082136Y-66165769D01*
X133938789Y-66086638D01*
X133933920Y-66084914D01*
X133933916Y-66084912D01*
X133733087Y-66013795D01*
X133733083Y-66013794D01*
X133728212Y-66012069D01*
X133723119Y-66011162D01*
X133723116Y-66011161D01*
X133513373Y-65973800D01*
X133513367Y-65973799D01*
X133508284Y-65972894D01*
X133397009Y-65971535D01*
X133329140Y-65950702D01*
X133283306Y-65896483D01*
X133274061Y-65826091D01*
X133304340Y-65761875D01*
X133309455Y-65756449D01*
X133625499Y-65440405D01*
X133687811Y-65406379D01*
X133714594Y-65403500D01*
X152085406Y-65403500D01*
X152153527Y-65423502D01*
X152174501Y-65440405D01*
X152722878Y-65988782D01*
X152756904Y-66051094D01*
X152759092Y-66064703D01*
X152761709Y-66089599D01*
X152773126Y-66198222D01*
X152776458Y-66229928D01*
X152835473Y-66411556D01*
X152930960Y-66576944D01*
X152935378Y-66581851D01*
X152935379Y-66581852D01*
X153029010Y-66685840D01*
X153058747Y-66718866D01*
X153213248Y-66831118D01*
X153219276Y-66833802D01*
X153219278Y-66833803D01*
X153358347Y-66895720D01*
X153387712Y-66908794D01*
X153476380Y-66927641D01*
X153568056Y-66947128D01*
X153568061Y-66947128D01*
X153574513Y-66948500D01*
X153765487Y-66948500D01*
X153771939Y-66947128D01*
X153771944Y-66947128D01*
X153863620Y-66927641D01*
X153952288Y-66908794D01*
X153981653Y-66895720D01*
X154120722Y-66833803D01*
X154120724Y-66833802D01*
X154126752Y-66831118D01*
X154281253Y-66718866D01*
X154310990Y-66685840D01*
X154404621Y-66581852D01*
X154404622Y-66581851D01*
X154409040Y-66576944D01*
X154504527Y-66411556D01*
X154563542Y-66229928D01*
X154566875Y-66198222D01*
X154582814Y-66046565D01*
X154583504Y-66040000D01*
X154576308Y-65971535D01*
X154564232Y-65856635D01*
X154564232Y-65856633D01*
X154563542Y-65850072D01*
X154504527Y-65668444D01*
X154409040Y-65503056D01*
X154363744Y-65452749D01*
X154285675Y-65366045D01*
X154285674Y-65366044D01*
X154281253Y-65361134D01*
X154126752Y-65248882D01*
X154120724Y-65246198D01*
X154120722Y-65246197D01*
X153958319Y-65173891D01*
X153958318Y-65173891D01*
X153952288Y-65171206D01*
X153839721Y-65147279D01*
X153771944Y-65132872D01*
X153771939Y-65132872D01*
X153765487Y-65131500D01*
X153709595Y-65131500D01*
X153641474Y-65111498D01*
X153620500Y-65094595D01*
X152903652Y-64377747D01*
X152896112Y-64369461D01*
X152892000Y-64362982D01*
X152842348Y-64316356D01*
X152839507Y-64313602D01*
X152819770Y-64293865D01*
X152816573Y-64291385D01*
X152807551Y-64283680D01*
X152794122Y-64271069D01*
X152775321Y-64253414D01*
X152768375Y-64249595D01*
X152768372Y-64249593D01*
X152757566Y-64243652D01*
X152741047Y-64232801D01*
X152740583Y-64232441D01*
X152725041Y-64220386D01*
X152717772Y-64217241D01*
X152717768Y-64217238D01*
X152684463Y-64202826D01*
X152673813Y-64197609D01*
X152635060Y-64176305D01*
X152615437Y-64171267D01*
X152596734Y-64164863D01*
X152585420Y-64159967D01*
X152585419Y-64159967D01*
X152578145Y-64156819D01*
X152570322Y-64155580D01*
X152570312Y-64155577D01*
X152534476Y-64149901D01*
X152522856Y-64147495D01*
X152487711Y-64138472D01*
X152487710Y-64138472D01*
X152480030Y-64136500D01*
X152459776Y-64136500D01*
X152440065Y-64134949D01*
X152427886Y-64133020D01*
X152420057Y-64131780D01*
X152390786Y-64134547D01*
X152376039Y-64135941D01*
X152364181Y-64136500D01*
X133478768Y-64136500D01*
X133467585Y-64135973D01*
X133460092Y-64134298D01*
X133452166Y-64134547D01*
X133452165Y-64134547D01*
X133392002Y-64136438D01*
X133388044Y-64136500D01*
X133360144Y-64136500D01*
X133356154Y-64137004D01*
X133344320Y-64137936D01*
X133300111Y-64139326D01*
X133292497Y-64141538D01*
X133292492Y-64141539D01*
X133280659Y-64144977D01*
X133261296Y-64148988D01*
X133241203Y-64151526D01*
X133233836Y-64154443D01*
X133233831Y-64154444D01*
X133200092Y-64167802D01*
X133188865Y-64171646D01*
X133146407Y-64183982D01*
X133139581Y-64188019D01*
X133128972Y-64194293D01*
X133111224Y-64202988D01*
X133092383Y-64210448D01*
X133085967Y-64215110D01*
X133085966Y-64215110D01*
X133056613Y-64236436D01*
X133046693Y-64242952D01*
X133015465Y-64261420D01*
X133015462Y-64261422D01*
X133008638Y-64265458D01*
X132994317Y-64279779D01*
X132979284Y-64292619D01*
X132962893Y-64304528D01*
X132954217Y-64315016D01*
X132934702Y-64338605D01*
X132926712Y-64347384D01*
X131297345Y-65976750D01*
X131235033Y-66010776D01*
X131186154Y-66011702D01*
X130973373Y-65973800D01*
X130973367Y-65973799D01*
X130968284Y-65972894D01*
X130894452Y-65971992D01*
X130750081Y-65970228D01*
X130750079Y-65970228D01*
X130744911Y-65970165D01*
X130524091Y-66003955D01*
X130311756Y-66073357D01*
X130113607Y-66176507D01*
X130109474Y-66179610D01*
X130109471Y-66179612D01*
X129939100Y-66307530D01*
X129934965Y-66310635D01*
X129931393Y-66314373D01*
X129833054Y-66417279D01*
X129780629Y-66472138D01*
X129673201Y-66629621D01*
X129618293Y-66674621D01*
X129547768Y-66682792D01*
X129484021Y-66651538D01*
X129463324Y-66627054D01*
X129382822Y-66502617D01*
X129382820Y-66502614D01*
X129380014Y-66498277D01*
X129229670Y-66333051D01*
X129225619Y-66329852D01*
X129225615Y-66329848D01*
X129058414Y-66197800D01*
X129058410Y-66197798D01*
X129054359Y-66194598D01*
X129018028Y-66174542D01*
X129002136Y-66165769D01*
X128858789Y-66086638D01*
X128853920Y-66084914D01*
X128853916Y-66084912D01*
X128653087Y-66013795D01*
X128653083Y-66013794D01*
X128648212Y-66012069D01*
X128643119Y-66011162D01*
X128643116Y-66011161D01*
X128433373Y-65973800D01*
X128433367Y-65973799D01*
X128428284Y-65972894D01*
X128354452Y-65971992D01*
X128210081Y-65970228D01*
X128210079Y-65970228D01*
X128204911Y-65970165D01*
X127984091Y-66003955D01*
X127771756Y-66073357D01*
X127573607Y-66176507D01*
X127569474Y-66179610D01*
X127569471Y-66179612D01*
X127399100Y-66307530D01*
X127394965Y-66310635D01*
X127391393Y-66314373D01*
X127293054Y-66417279D01*
X127240629Y-66472138D01*
X127133204Y-66629618D01*
X127132898Y-66630066D01*
X127077987Y-66675069D01*
X127007462Y-66683240D01*
X126943715Y-66651986D01*
X126923018Y-66627502D01*
X126842426Y-66502926D01*
X126836136Y-66494757D01*
X126692806Y-66337240D01*
X126685273Y-66330215D01*
X126518139Y-66198222D01*
X126509552Y-66192517D01*
X126323117Y-66089599D01*
X126313705Y-66085369D01*
X126112959Y-66014280D01*
X126102988Y-66011646D01*
X126031837Y-65998972D01*
X126018540Y-66000432D01*
X126014000Y-66014989D01*
X126014000Y-67458000D01*
X125993998Y-67526121D01*
X125940342Y-67572614D01*
X125888000Y-67584000D01*
X125632000Y-67584000D01*
X125563879Y-67563998D01*
X125517386Y-67510342D01*
X125506000Y-67458000D01*
X125506000Y-66013102D01*
X125502082Y-65999758D01*
X125487806Y-65997771D01*
X125449324Y-66003660D01*
X125439288Y-66006051D01*
X125236868Y-66072212D01*
X125227359Y-66076209D01*
X125038463Y-66174542D01*
X125029738Y-66180036D01*
X124859433Y-66307905D01*
X124851726Y-66314748D01*
X124704590Y-66468717D01*
X124698109Y-66476722D01*
X124593498Y-66630074D01*
X124538587Y-66675076D01*
X124468062Y-66683247D01*
X124404315Y-66651993D01*
X124383618Y-66627509D01*
X124302822Y-66502617D01*
X124302820Y-66502614D01*
X124300014Y-66498277D01*
X124149670Y-66333051D01*
X124145619Y-66329852D01*
X124145615Y-66329848D01*
X123978414Y-66197800D01*
X123978410Y-66197798D01*
X123974359Y-66194598D01*
X123938028Y-66174542D01*
X123922136Y-66165769D01*
X123778789Y-66086638D01*
X123773920Y-66084914D01*
X123773916Y-66084912D01*
X123573087Y-66013795D01*
X123573083Y-66013794D01*
X123568212Y-66012069D01*
X123563119Y-66011162D01*
X123563116Y-66011161D01*
X123353373Y-65973800D01*
X123353367Y-65973799D01*
X123348284Y-65972894D01*
X123274452Y-65971992D01*
X123130081Y-65970228D01*
X123130079Y-65970228D01*
X123124911Y-65970165D01*
X122904091Y-66003955D01*
X122691756Y-66073357D01*
X122493607Y-66176507D01*
X122489474Y-66179610D01*
X122489471Y-66179612D01*
X122319100Y-66307530D01*
X122314965Y-66310635D01*
X122311393Y-66314373D01*
X122213054Y-66417279D01*
X122160629Y-66472138D01*
X122053201Y-66629621D01*
X121998293Y-66674621D01*
X121927768Y-66682792D01*
X121864021Y-66651538D01*
X121843324Y-66627054D01*
X121762822Y-66502617D01*
X121762820Y-66502614D01*
X121760014Y-66498277D01*
X121609670Y-66333051D01*
X121605619Y-66329852D01*
X121605615Y-66329848D01*
X121438414Y-66197800D01*
X121438410Y-66197798D01*
X121434359Y-66194598D01*
X121398028Y-66174542D01*
X121382136Y-66165769D01*
X121238789Y-66086638D01*
X121233920Y-66084914D01*
X121233916Y-66084912D01*
X121033087Y-66013795D01*
X121033083Y-66013794D01*
X121028212Y-66012069D01*
X121023119Y-66011162D01*
X121023116Y-66011161D01*
X120813373Y-65973800D01*
X120813367Y-65973799D01*
X120808284Y-65972894D01*
X120734452Y-65971992D01*
X120590081Y-65970228D01*
X120590079Y-65970228D01*
X120584911Y-65970165D01*
X120364091Y-66003955D01*
X120151756Y-66073357D01*
X119953607Y-66176507D01*
X119949474Y-66179610D01*
X119949471Y-66179612D01*
X119779100Y-66307530D01*
X119774965Y-66310635D01*
X119771393Y-66314373D01*
X119673054Y-66417279D01*
X119620629Y-66472138D01*
X119513204Y-66629618D01*
X119512898Y-66630066D01*
X119457987Y-66675069D01*
X119387462Y-66683240D01*
X119323715Y-66651986D01*
X119303018Y-66627502D01*
X119222426Y-66502926D01*
X119216136Y-66494757D01*
X119072806Y-66337240D01*
X119065273Y-66330215D01*
X118898139Y-66198222D01*
X118889552Y-66192517D01*
X118703117Y-66089599D01*
X118693705Y-66085369D01*
X118492959Y-66014280D01*
X118482988Y-66011646D01*
X118411837Y-65998972D01*
X118398540Y-66000432D01*
X118394000Y-66014989D01*
X118394000Y-67458000D01*
X118373998Y-67526121D01*
X118320342Y-67572614D01*
X118268000Y-67584000D01*
X118012000Y-67584000D01*
X117943879Y-67563998D01*
X117897386Y-67510342D01*
X117886000Y-67458000D01*
X117886000Y-66013102D01*
X117882082Y-65999758D01*
X117867806Y-65997771D01*
X117829324Y-66003660D01*
X117819288Y-66006051D01*
X117616868Y-66072212D01*
X117607359Y-66076209D01*
X117418463Y-66174542D01*
X117409738Y-66180036D01*
X117239433Y-66307905D01*
X117231726Y-66314748D01*
X117084590Y-66468717D01*
X117078109Y-66476722D01*
X116973498Y-66630074D01*
X116918587Y-66675076D01*
X116848062Y-66683247D01*
X116784315Y-66651993D01*
X116763618Y-66627509D01*
X116682822Y-66502617D01*
X116682820Y-66502614D01*
X116680014Y-66498277D01*
X116529670Y-66333051D01*
X116525619Y-66329852D01*
X116525615Y-66329848D01*
X116358414Y-66197800D01*
X116358410Y-66197798D01*
X116354359Y-66194598D01*
X116318028Y-66174542D01*
X116302136Y-66165769D01*
X116158789Y-66086638D01*
X116153920Y-66084914D01*
X116153916Y-66084912D01*
X115953087Y-66013795D01*
X115953083Y-66013794D01*
X115948212Y-66012069D01*
X115943119Y-66011162D01*
X115943116Y-66011161D01*
X115733373Y-65973800D01*
X115733367Y-65973799D01*
X115728284Y-65972894D01*
X115654452Y-65971992D01*
X115510081Y-65970228D01*
X115510079Y-65970228D01*
X115504911Y-65970165D01*
X115284091Y-66003955D01*
X115071756Y-66073357D01*
X114873607Y-66176507D01*
X114869474Y-66179610D01*
X114869471Y-66179612D01*
X114699100Y-66307530D01*
X114694965Y-66310635D01*
X114691393Y-66314373D01*
X114593054Y-66417279D01*
X114540629Y-66472138D01*
X114433201Y-66629621D01*
X114378293Y-66674621D01*
X114307768Y-66682792D01*
X114244021Y-66651538D01*
X114223324Y-66627054D01*
X114142822Y-66502617D01*
X114142820Y-66502614D01*
X114140014Y-66498277D01*
X113989670Y-66333051D01*
X113985619Y-66329852D01*
X113985615Y-66329848D01*
X113818414Y-66197800D01*
X113818410Y-66197798D01*
X113814359Y-66194598D01*
X113778028Y-66174542D01*
X113762136Y-66165769D01*
X113618789Y-66086638D01*
X113613920Y-66084914D01*
X113613916Y-66084912D01*
X113413087Y-66013795D01*
X113413083Y-66013794D01*
X113408212Y-66012069D01*
X113403119Y-66011162D01*
X113403116Y-66011161D01*
X113193373Y-65973800D01*
X113193367Y-65973799D01*
X113188284Y-65972894D01*
X113114452Y-65971992D01*
X112970081Y-65970228D01*
X112970079Y-65970228D01*
X112964911Y-65970165D01*
X112744091Y-66003955D01*
X112531756Y-66073357D01*
X112333607Y-66176507D01*
X112329474Y-66179610D01*
X112329471Y-66179612D01*
X112159100Y-66307530D01*
X112154965Y-66310635D01*
X112151393Y-66314373D01*
X112053054Y-66417279D01*
X112000629Y-66472138D01*
X111893201Y-66629621D01*
X111838293Y-66674621D01*
X111767768Y-66682792D01*
X111704021Y-66651538D01*
X111683324Y-66627054D01*
X111602822Y-66502617D01*
X111602820Y-66502614D01*
X111600014Y-66498277D01*
X111449670Y-66333051D01*
X111445619Y-66329852D01*
X111445615Y-66329848D01*
X111278414Y-66197800D01*
X111278410Y-66197798D01*
X111274359Y-66194598D01*
X111238028Y-66174542D01*
X111222136Y-66165769D01*
X111078789Y-66086638D01*
X111073920Y-66084914D01*
X111073916Y-66084912D01*
X110873087Y-66013795D01*
X110873083Y-66013794D01*
X110868212Y-66012069D01*
X110863119Y-66011162D01*
X110863116Y-66011161D01*
X110653373Y-65973800D01*
X110653367Y-65973799D01*
X110648284Y-65972894D01*
X110574452Y-65971992D01*
X110430081Y-65970228D01*
X110430079Y-65970228D01*
X110424911Y-65970165D01*
X110204091Y-66003955D01*
X110191532Y-66008060D01*
X110120568Y-66010210D01*
X110063294Y-65977389D01*
X107193652Y-63107747D01*
X107186112Y-63099461D01*
X107182000Y-63092982D01*
X107132348Y-63046356D01*
X107129507Y-63043602D01*
X107109770Y-63023865D01*
X107106573Y-63021385D01*
X107097551Y-63013680D01*
X107084116Y-63001064D01*
X107065321Y-62983414D01*
X107058375Y-62979595D01*
X107058372Y-62979593D01*
X107047566Y-62973652D01*
X107031047Y-62962801D01*
X107030583Y-62962441D01*
X107015041Y-62950386D01*
X107007772Y-62947241D01*
X107007768Y-62947238D01*
X106974463Y-62932826D01*
X106963813Y-62927609D01*
X106925060Y-62906305D01*
X106905437Y-62901267D01*
X106886734Y-62894863D01*
X106875420Y-62889967D01*
X106875419Y-62889967D01*
X106868145Y-62886819D01*
X106860322Y-62885580D01*
X106860312Y-62885577D01*
X106824476Y-62879901D01*
X106812856Y-62877495D01*
X106777711Y-62868472D01*
X106777710Y-62868472D01*
X106770030Y-62866500D01*
X106749776Y-62866500D01*
X106730065Y-62864949D01*
X106727534Y-62864548D01*
X106710057Y-62861780D01*
X106702165Y-62862526D01*
X106666039Y-62865941D01*
X106654181Y-62866500D01*
X99138763Y-62866500D01*
X99127579Y-62865973D01*
X99120091Y-62864299D01*
X99112168Y-62864548D01*
X99052033Y-62866438D01*
X99048075Y-62866500D01*
X99020144Y-62866500D01*
X99016229Y-62866995D01*
X99016225Y-62866995D01*
X99016167Y-62867003D01*
X99016138Y-62867006D01*
X99004296Y-62867939D01*
X98960110Y-62869327D01*
X98942744Y-62874372D01*
X98940658Y-62874978D01*
X98921306Y-62878986D01*
X98909068Y-62880532D01*
X98909066Y-62880533D01*
X98901203Y-62881526D01*
X98860086Y-62897806D01*
X98848885Y-62901641D01*
X98806406Y-62913982D01*
X98799587Y-62918015D01*
X98799582Y-62918017D01*
X98788971Y-62924293D01*
X98771221Y-62932990D01*
X98752383Y-62940448D01*
X98745967Y-62945109D01*
X98745966Y-62945110D01*
X98716625Y-62966428D01*
X98706701Y-62972947D01*
X98675460Y-62991422D01*
X98675455Y-62991426D01*
X98668637Y-62995458D01*
X98654313Y-63009782D01*
X98639281Y-63022621D01*
X98622893Y-63034528D01*
X98594712Y-63068593D01*
X98586722Y-63077373D01*
X96127747Y-65536348D01*
X96119461Y-65543888D01*
X96112982Y-65548000D01*
X96107557Y-65553777D01*
X96066357Y-65597651D01*
X96063602Y-65600493D01*
X96043865Y-65620230D01*
X96041385Y-65623427D01*
X96033682Y-65632447D01*
X96003414Y-65664679D01*
X95999595Y-65671625D01*
X95999593Y-65671628D01*
X95993652Y-65682434D01*
X95982801Y-65698953D01*
X95970386Y-65714959D01*
X95967241Y-65722228D01*
X95967238Y-65722232D01*
X95952826Y-65755537D01*
X95947609Y-65766187D01*
X95926305Y-65804940D01*
X95924334Y-65812615D01*
X95924334Y-65812616D01*
X95921267Y-65824562D01*
X95914863Y-65843266D01*
X95906819Y-65861855D01*
X95905580Y-65869678D01*
X95905577Y-65869688D01*
X95899901Y-65905524D01*
X95897495Y-65917144D01*
X95888472Y-65952289D01*
X95886500Y-65959970D01*
X95886500Y-65980224D01*
X95884949Y-65999934D01*
X95881780Y-66019943D01*
X90678500Y-66019943D01*
X90678500Y-61594500D01*
X90698502Y-61526379D01*
X90752158Y-61479886D01*
X90804500Y-61468500D01*
X156845500Y-61468500D01*
X156913621Y-61488502D01*
G37*
%TD.AperFunction*%
%TD*%
M02*
