%TF.GenerationSoftware,KiCad,Pcbnew,6.0.8-f2edbf62ab~116~ubuntu20.04.1*%
%TF.CreationDate,2022-11-10T01:37:22-08:00*%
%TF.ProjectId,parthiv_pcb,70617274-6869-4765-9f70-63622e6b6963,rev?*%
%TF.SameCoordinates,Original*%
%TF.FileFunction,Copper,L1,Top*%
%TF.FilePolarity,Positive*%
%FSLAX46Y46*%
G04 Gerber Fmt 4.6, Leading zero omitted, Abs format (unit mm)*
G04 Created by KiCad (PCBNEW 6.0.8-f2edbf62ab~116~ubuntu20.04.1) date 2022-11-10 01:37:22*
%MOMM*%
%LPD*%
G01*
G04 APERTURE LIST*
G04 Aperture macros list*
%AMRoundRect*
0 Rectangle with rounded corners*
0 $1 Rounding radius*
0 $2 $3 $4 $5 $6 $7 $8 $9 X,Y pos of 4 corners*
0 Add a 4 corners polygon primitive as box body*
4,1,4,$2,$3,$4,$5,$6,$7,$8,$9,$2,$3,0*
0 Add four circle primitives for the rounded corners*
1,1,$1+$1,$2,$3*
1,1,$1+$1,$4,$5*
1,1,$1+$1,$6,$7*
1,1,$1+$1,$8,$9*
0 Add four rect primitives between the rounded corners*
20,1,$1+$1,$2,$3,$4,$5,0*
20,1,$1+$1,$4,$5,$6,$7,0*
20,1,$1+$1,$6,$7,$8,$9,0*
20,1,$1+$1,$8,$9,$2,$3,0*%
G04 Aperture macros list end*
%TA.AperFunction,ComponentPad*%
%ADD10R,1.700000X1.700000*%
%TD*%
%TA.AperFunction,ComponentPad*%
%ADD11C,1.700000*%
%TD*%
%TA.AperFunction,SMDPad,CuDef*%
%ADD12RoundRect,0.250000X-1.050000X-0.550000X1.050000X-0.550000X1.050000X0.550000X-1.050000X0.550000X0*%
%TD*%
%TA.AperFunction,ComponentPad*%
%ADD13O,1.700000X1.700000*%
%TD*%
%TA.AperFunction,ViaPad*%
%ADD14C,0.800000*%
%TD*%
%TA.AperFunction,Conductor*%
%ADD15C,0.250000*%
%TD*%
%TA.AperFunction,Conductor*%
%ADD16C,1.000000*%
%TD*%
G04 APERTURE END LIST*
D10*
%TO.P,U1,1,GND*%
%TO.N,GND*%
X119925000Y-75900000D03*
D11*
%TO.P,U1,2,VCC*%
%TO.N,+3V3*%
X119925000Y-78440000D03*
%TO.P,U1,3,CE*%
%TO.N,Net-(J2-Pad29)*%
X117385000Y-75900000D03*
%TO.P,U1,4,~{CSN}*%
%TO.N,Net-(J2-Pad26)*%
X117385000Y-78440000D03*
%TO.P,U1,5,SCK*%
%TO.N,Net-(J2-Pad23)*%
X114845000Y-75900000D03*
%TO.P,U1,6,MOSI*%
%TO.N,Net-(J2-Pad19)*%
X114845000Y-78440000D03*
%TO.P,U1,7,MISO*%
%TO.N,Net-(J2-Pad21)*%
X112305000Y-75900000D03*
%TO.P,U1,8,IRQ*%
%TO.N,unconnected-(U1-Pad8)*%
X112305000Y-78440000D03*
%TD*%
D12*
%TO.P,C1,1*%
%TO.N,+3V3*%
X123930000Y-78740000D03*
%TO.P,C1,2*%
%TO.N,GND*%
X127530000Y-78740000D03*
%TD*%
%TO.P,C2,1*%
%TO.N,+3V3*%
X149330000Y-78740000D03*
%TO.P,C2,2*%
%TO.N,GND*%
X152930000Y-78740000D03*
%TD*%
D10*
%TO.P,U2,1,GND*%
%TO.N,GND*%
X145325000Y-75900000D03*
D11*
%TO.P,U2,2,VCC*%
%TO.N,+3V3*%
X145325000Y-78440000D03*
%TO.P,U2,3,CE*%
%TO.N,Net-(J2-Pad31)*%
X142785000Y-75900000D03*
%TO.P,U2,4,~{CSN}*%
%TO.N,Net-(J2-Pad24)*%
X142785000Y-78440000D03*
%TO.P,U2,5,SCK*%
%TO.N,Net-(J2-Pad23)*%
X140245000Y-75900000D03*
%TO.P,U2,6,MOSI*%
%TO.N,Net-(J2-Pad19)*%
X140245000Y-78440000D03*
%TO.P,U2,7,MISO*%
%TO.N,Net-(J2-Pad21)*%
X137705000Y-75900000D03*
%TO.P,U2,8,IRQ*%
%TO.N,unconnected-(U2-Pad8)*%
X137705000Y-78440000D03*
%TD*%
D10*
%TO.P,J1,1,3V3*%
%TO.N,unconnected-(J1-Pad1)*%
X100920000Y-76180000D03*
D13*
%TO.P,J1,2,TX*%
%TO.N,Net-(J1-Pad2)*%
X100920000Y-78720000D03*
%TO.P,J1,3,RX*%
%TO.N,Net-(J1-Pad3)*%
X100920000Y-81260000D03*
%TO.P,J1,4,GND*%
%TO.N,GND*%
X100920000Y-83800000D03*
%TO.P,J1,5,5V*%
%TO.N,+5V*%
X100920000Y-86340000D03*
%TD*%
D10*
%TO.P,J2,1,3V3*%
%TO.N,+3V3*%
X102900000Y-69870000D03*
D13*
%TO.P,J2,2,5V*%
%TO.N,+5V*%
X102900000Y-67330000D03*
%TO.P,J2,3,SDA/GPIO2*%
%TO.N,unconnected-(J2-Pad3)*%
X105440000Y-69870000D03*
%TO.P,J2,4,5V*%
%TO.N,+5V*%
X105440000Y-67330000D03*
%TO.P,J2,5,SCL/GPIO3*%
%TO.N,unconnected-(J2-Pad5)*%
X107980000Y-69870000D03*
%TO.P,J2,6,GND*%
%TO.N,GND*%
X107980000Y-67330000D03*
%TO.P,J2,7,GCLK0/GPIO4*%
%TO.N,unconnected-(J2-Pad7)*%
X110520000Y-69870000D03*
%TO.P,J2,8,GPIO14/TXD*%
%TO.N,Net-(J1-Pad3)*%
X110520000Y-67330000D03*
%TO.P,J2,9,GND*%
%TO.N,GND*%
X113060000Y-69870000D03*
%TO.P,J2,10,GPIO15/RXD*%
%TO.N,Net-(J1-Pad2)*%
X113060000Y-67330000D03*
%TO.P,J2,11,GPIO17*%
%TO.N,unconnected-(J2-Pad11)*%
X115600000Y-69870000D03*
%TO.P,J2,12,GPIO18/PWM0*%
%TO.N,unconnected-(J2-Pad12)*%
X115600000Y-67330000D03*
%TO.P,J2,13,GPIO27*%
%TO.N,unconnected-(J2-Pad13)*%
X118140000Y-69870000D03*
%TO.P,J2,14,GND*%
%TO.N,GND*%
X118140000Y-67330000D03*
%TO.P,J2,15,GPIO22*%
%TO.N,unconnected-(J2-Pad15)*%
X120680000Y-69870000D03*
%TO.P,J2,16,GPIO23*%
%TO.N,unconnected-(J2-Pad16)*%
X120680000Y-67330000D03*
%TO.P,J2,17,3V3*%
%TO.N,+3V3*%
X123220000Y-69870000D03*
%TO.P,J2,18,GPIO24*%
%TO.N,unconnected-(J2-Pad18)*%
X123220000Y-67330000D03*
%TO.P,J2,19,MOSI0/GPIO10*%
%TO.N,Net-(J2-Pad19)*%
X125760000Y-69870000D03*
%TO.P,J2,20,GND*%
%TO.N,GND*%
X125760000Y-67330000D03*
%TO.P,J2,21,MISO0/GPIO9*%
%TO.N,Net-(J2-Pad21)*%
X128300000Y-69870000D03*
%TO.P,J2,22,GPIO25*%
%TO.N,unconnected-(J2-Pad22)*%
X128300000Y-67330000D03*
%TO.P,J2,23,SCLK0/GPIO11*%
%TO.N,Net-(J2-Pad23)*%
X130840000Y-69870000D03*
%TO.P,J2,24,~{CE0}/GPIO8*%
%TO.N,Net-(J2-Pad24)*%
X130840000Y-67330000D03*
%TO.P,J2,25,GND*%
%TO.N,GND*%
X133380000Y-69870000D03*
%TO.P,J2,26,~{CE1}/GPIO7*%
%TO.N,Net-(J2-Pad26)*%
X133380000Y-67330000D03*
%TO.P,J2,27,ID_SD/GPIO0*%
%TO.N,unconnected-(J2-Pad27)*%
X135920000Y-69870000D03*
%TO.P,J2,28,ID_SC/GPIO1*%
%TO.N,unconnected-(J2-Pad28)*%
X135920000Y-67330000D03*
%TO.P,J2,29,GCLK1/GPIO5*%
%TO.N,Net-(J2-Pad29)*%
X138460000Y-69870000D03*
%TO.P,J2,30,GND*%
%TO.N,GND*%
X138460000Y-67330000D03*
%TO.P,J2,31,GCLK2/GPIO6*%
%TO.N,Net-(J2-Pad31)*%
X141000000Y-69870000D03*
%TO.P,J2,32,PWM0/GPIO12*%
%TO.N,unconnected-(J2-Pad32)*%
X141000000Y-67330000D03*
%TO.P,J2,33,PWM1/GPIO13*%
%TO.N,unconnected-(J2-Pad33)*%
X143540000Y-69870000D03*
%TO.P,J2,34,GND*%
%TO.N,GND*%
X143540000Y-67330000D03*
%TO.P,J2,35,GPIO19/MISO1*%
%TO.N,unconnected-(J2-Pad35)*%
X146080000Y-69870000D03*
%TO.P,J2,36,GPIO16*%
%TO.N,unconnected-(J2-Pad36)*%
X146080000Y-67330000D03*
%TO.P,J2,37,GPIO26*%
%TO.N,unconnected-(J2-Pad37)*%
X148620000Y-69870000D03*
%TO.P,J2,38,GPIO20/MOSI1*%
%TO.N,unconnected-(J2-Pad38)*%
X148620000Y-67330000D03*
%TO.P,J2,39,GND*%
%TO.N,GND*%
X151160000Y-69870000D03*
%TO.P,J2,40,GPIO21/SCLK1*%
%TO.N,unconnected-(J2-Pad40)*%
X151160000Y-67330000D03*
%TD*%
D14*
%TO.N,Net-(J2-Pad26)*%
X149860000Y-85090000D03*
X124460000Y-85090000D03*
%TO.N,Net-(J2-Pad24)*%
X153670000Y-66040000D03*
X153670000Y-76200000D03*
%TO.N,Net-(J2-Pad23)*%
X129540000Y-74930000D03*
X124460000Y-74930000D03*
%TO.N,Net-(J2-Pad19)*%
X129540000Y-81280000D03*
%TO.N,Net-(J2-Pad21)*%
X130810000Y-72390000D03*
%TO.N,Net-(J2-Pad29)*%
X135890000Y-73660000D03*
%TO.N,GND*%
X154940000Y-78740000D03*
X129540000Y-78740000D03*
%TO.N,Net-(J1-Pad2)*%
X105410000Y-64770000D03*
%TD*%
D15*
%TO.N,Net-(J2-Pad23)*%
X124460000Y-74930000D02*
X129540000Y-74930000D01*
%TO.N,Net-(J2-Pad26)*%
X124035000Y-85090000D02*
X124460000Y-85090000D01*
X117385000Y-78440000D02*
X124035000Y-85090000D01*
X133380000Y-67330000D02*
X135940000Y-64770000D01*
X135940000Y-64770000D02*
X153670000Y-64770000D01*
X153670000Y-64770000D02*
X155765000Y-66865000D01*
X155765000Y-66865000D02*
X155765000Y-79185000D01*
X155765000Y-79185000D02*
X149860000Y-85090000D01*
%TO.N,Net-(J2-Pad24)*%
X153670000Y-76200000D02*
X153670000Y-66040000D01*
%TO.N,Net-(J2-Pad19)*%
X129540000Y-81280000D02*
X137405000Y-81280000D01*
X137405000Y-81280000D02*
X140245000Y-78440000D01*
%TO.N,Net-(J2-Pad21)*%
X128300000Y-69870000D02*
X124960000Y-73210000D01*
X124960000Y-73210000D02*
X114995000Y-73210000D01*
X114995000Y-73210000D02*
X112305000Y-75900000D01*
X130810000Y-72390000D02*
X130810000Y-72380000D01*
X130810000Y-72380000D02*
X128300000Y-69870000D01*
%TO.N,Net-(J2-Pad23)*%
X130840000Y-69870000D02*
X133360000Y-72390000D01*
X133360000Y-72390000D02*
X137160000Y-72390000D01*
X137160000Y-72390000D02*
X140245000Y-75475000D01*
X140245000Y-75475000D02*
X140245000Y-75900000D01*
%TO.N,Net-(J2-Pad29)*%
X118110000Y-73660000D02*
X135890000Y-73660000D01*
X117385000Y-75900000D02*
X117385000Y-74385000D01*
X117385000Y-74385000D02*
X118110000Y-73660000D01*
%TO.N,Net-(J2-Pad31)*%
X141000000Y-69870000D02*
X141000000Y-74115000D01*
X141000000Y-74115000D02*
X142785000Y-75900000D01*
D16*
%TO.N,GND*%
X152930000Y-78740000D02*
X154940000Y-78740000D01*
%TO.N,+3V3*%
X119925000Y-78440000D02*
X123630000Y-78440000D01*
X123630000Y-78440000D02*
X123930000Y-78740000D01*
%TO.N,GND*%
X127530000Y-78740000D02*
X129540000Y-78740000D01*
%TO.N,+3V3*%
X145325000Y-78440000D02*
X149030000Y-78440000D01*
X149030000Y-78440000D02*
X149330000Y-78740000D01*
D15*
%TO.N,Net-(J1-Pad2)*%
X105410000Y-64770000D02*
X110500000Y-64770000D01*
X110500000Y-64770000D02*
X113060000Y-67330000D01*
D16*
%TO.N,+5V*%
X99060000Y-66040000D02*
X101600000Y-66040000D01*
X104150000Y-66040000D02*
X105440000Y-67330000D01*
X100920000Y-86340000D02*
X96520000Y-81940000D01*
X101610000Y-66040000D02*
X102900000Y-67330000D01*
X96520000Y-68580000D02*
X99060000Y-66040000D01*
X101600000Y-66040000D02*
X104150000Y-66040000D01*
X96520000Y-81940000D02*
X96520000Y-68580000D01*
X101600000Y-66040000D02*
X101610000Y-66040000D01*
%TD*%
%TA.AperFunction,Conductor*%
%TO.N,+3V3*%
G36*
X156913621Y-61488502D02*
G01*
X156960114Y-61542158D01*
X156971500Y-61594500D01*
X156971500Y-106045500D01*
X156951498Y-106113621D01*
X156897842Y-106160114D01*
X156845500Y-106171500D01*
X90804500Y-106171500D01*
X90736379Y-106151498D01*
X90689886Y-106097842D01*
X90678500Y-106045500D01*
X90678500Y-68576462D01*
X95506626Y-68576462D01*
X95508118Y-68592245D01*
X95510941Y-68622109D01*
X95511500Y-68633967D01*
X95511500Y-81878157D01*
X95510763Y-81891764D01*
X95507919Y-81917949D01*
X95506676Y-81929388D01*
X95507213Y-81935523D01*
X95511050Y-81979388D01*
X95511379Y-81984214D01*
X95511500Y-81986686D01*
X95511500Y-81989769D01*
X95511801Y-81992837D01*
X95515690Y-82032506D01*
X95515812Y-82033819D01*
X95519310Y-82073803D01*
X95523913Y-82126413D01*
X95525400Y-82131532D01*
X95525920Y-82136833D01*
X95552791Y-82225834D01*
X95553126Y-82226967D01*
X95575557Y-82304171D01*
X95579091Y-82316336D01*
X95581544Y-82321068D01*
X95583084Y-82326169D01*
X95585978Y-82331612D01*
X95626731Y-82408260D01*
X95627343Y-82409426D01*
X95659320Y-82471114D01*
X95670108Y-82491926D01*
X95673431Y-82496089D01*
X95675934Y-82500796D01*
X95679828Y-82505570D01*
X95679829Y-82505572D01*
X95734698Y-82572847D01*
X95735527Y-82573875D01*
X95764535Y-82610214D01*
X95764540Y-82610220D01*
X95766738Y-82612973D01*
X95769241Y-82615476D01*
X95769884Y-82616195D01*
X95773585Y-82620528D01*
X95800935Y-82654062D01*
X95805682Y-82657989D01*
X95805684Y-82657991D01*
X95836262Y-82683287D01*
X95845042Y-82691277D01*
X97701914Y-84548148D01*
X99529239Y-86375473D01*
X99563265Y-86437785D01*
X99565935Y-86457314D01*
X99570110Y-86529715D01*
X99571247Y-86534761D01*
X99571248Y-86534767D01*
X99591119Y-86622939D01*
X99619222Y-86747639D01*
X99703266Y-86954616D01*
X99819987Y-87145088D01*
X99966250Y-87313938D01*
X100138126Y-87456632D01*
X100331000Y-87569338D01*
X100539692Y-87649030D01*
X100544760Y-87650061D01*
X100544763Y-87650062D01*
X100652017Y-87671883D01*
X100758597Y-87693567D01*
X100763772Y-87693757D01*
X100763774Y-87693757D01*
X100976673Y-87701564D01*
X100976677Y-87701564D01*
X100981837Y-87701753D01*
X100986957Y-87701097D01*
X100986959Y-87701097D01*
X101198288Y-87674025D01*
X101198289Y-87674025D01*
X101203416Y-87673368D01*
X101208366Y-87671883D01*
X101412429Y-87610661D01*
X101412434Y-87610659D01*
X101417384Y-87609174D01*
X101617994Y-87510896D01*
X101799860Y-87381173D01*
X101958096Y-87223489D01*
X102017594Y-87140689D01*
X102085435Y-87046277D01*
X102088453Y-87042077D01*
X102187430Y-86841811D01*
X102252370Y-86628069D01*
X102281529Y-86406590D01*
X102283156Y-86340000D01*
X102264852Y-86117361D01*
X102210431Y-85900702D01*
X102121354Y-85695840D01*
X102063613Y-85606586D01*
X102002822Y-85512617D01*
X102002820Y-85512614D01*
X102000014Y-85508277D01*
X101849670Y-85343051D01*
X101845619Y-85339852D01*
X101845615Y-85339848D01*
X101678414Y-85207800D01*
X101678410Y-85207798D01*
X101674359Y-85204598D01*
X101633053Y-85181796D01*
X101583084Y-85131364D01*
X101568312Y-85061921D01*
X101593428Y-84995516D01*
X101620780Y-84968909D01*
X101717286Y-84900072D01*
X101799860Y-84841173D01*
X101958096Y-84683489D01*
X102088453Y-84502077D01*
X102130973Y-84416045D01*
X102185136Y-84306453D01*
X102185137Y-84306451D01*
X102187430Y-84301811D01*
X102252370Y-84088069D01*
X102281529Y-83866590D01*
X102283156Y-83800000D01*
X102264852Y-83577361D01*
X102210431Y-83360702D01*
X102121354Y-83155840D01*
X102000014Y-82968277D01*
X101849670Y-82803051D01*
X101845619Y-82799852D01*
X101845615Y-82799848D01*
X101678414Y-82667800D01*
X101678410Y-82667798D01*
X101674359Y-82664598D01*
X101633053Y-82641796D01*
X101583084Y-82591364D01*
X101568312Y-82521921D01*
X101593428Y-82455516D01*
X101620780Y-82428909D01*
X101664603Y-82397650D01*
X101799860Y-82301173D01*
X101958096Y-82143489D01*
X101966256Y-82132134D01*
X102085435Y-81966277D01*
X102088453Y-81962077D01*
X102107637Y-81923262D01*
X102185136Y-81766453D01*
X102185137Y-81766451D01*
X102187430Y-81761811D01*
X102252370Y-81548069D01*
X102281529Y-81326590D01*
X102282507Y-81286565D01*
X102283074Y-81263365D01*
X102283074Y-81263361D01*
X102283156Y-81260000D01*
X102264852Y-81037361D01*
X102210431Y-80820702D01*
X102121354Y-80615840D01*
X102000014Y-80428277D01*
X101849670Y-80263051D01*
X101845619Y-80259852D01*
X101845615Y-80259848D01*
X101678414Y-80127800D01*
X101678410Y-80127798D01*
X101674359Y-80124598D01*
X101633053Y-80101796D01*
X101583084Y-80051364D01*
X101568312Y-79981921D01*
X101593428Y-79915516D01*
X101620780Y-79888909D01*
X101664603Y-79857650D01*
X101799860Y-79761173D01*
X101803718Y-79757329D01*
X101948378Y-79613173D01*
X101958096Y-79603489D01*
X102017594Y-79520689D01*
X102085435Y-79426277D01*
X102088453Y-79422077D01*
X102094407Y-79410031D01*
X102185136Y-79226453D01*
X102185137Y-79226451D01*
X102187430Y-79221811D01*
X102252370Y-79008069D01*
X102281529Y-78786590D01*
X102282345Y-78753204D01*
X102283074Y-78723365D01*
X102283074Y-78723361D01*
X102283156Y-78720000D01*
X102264852Y-78497361D01*
X102210431Y-78280702D01*
X102121354Y-78075840D01*
X102055663Y-77974297D01*
X102002822Y-77892617D01*
X102002820Y-77892614D01*
X102000014Y-77888277D01*
X101980892Y-77867262D01*
X101852798Y-77726488D01*
X101821746Y-77662642D01*
X101830141Y-77592143D01*
X101875317Y-77537375D01*
X101901761Y-77523706D01*
X102008297Y-77483767D01*
X102016705Y-77480615D01*
X102133261Y-77393261D01*
X102220615Y-77276705D01*
X102271745Y-77140316D01*
X102278500Y-77078134D01*
X102278500Y-75281866D01*
X102271745Y-75219684D01*
X102220615Y-75083295D01*
X102133261Y-74966739D01*
X102016705Y-74879385D01*
X101880316Y-74828255D01*
X101818134Y-74821500D01*
X100021866Y-74821500D01*
X99959684Y-74828255D01*
X99823295Y-74879385D01*
X99706739Y-74966739D01*
X99619385Y-75083295D01*
X99568255Y-75219684D01*
X99561500Y-75281866D01*
X99561500Y-77078134D01*
X99568255Y-77140316D01*
X99619385Y-77276705D01*
X99706739Y-77393261D01*
X99823295Y-77480615D01*
X99831704Y-77483767D01*
X99831705Y-77483768D01*
X99940451Y-77524535D01*
X99997216Y-77567176D01*
X100021916Y-77633738D01*
X100006709Y-77703087D01*
X99987316Y-77729568D01*
X99860629Y-77862138D01*
X99857715Y-77866410D01*
X99857714Y-77866411D01*
X99790727Y-77964610D01*
X99734743Y-78046680D01*
X99719003Y-78080590D01*
X99657808Y-78212424D01*
X99640688Y-78249305D01*
X99580989Y-78464570D01*
X99557251Y-78686695D01*
X99557548Y-78691848D01*
X99557548Y-78691851D01*
X99563011Y-78786590D01*
X99570110Y-78909715D01*
X99571247Y-78914761D01*
X99571248Y-78914767D01*
X99589105Y-78994000D01*
X99619222Y-79127639D01*
X99666786Y-79244776D01*
X99697044Y-79319292D01*
X99703266Y-79334616D01*
X99819987Y-79525088D01*
X99966250Y-79693938D01*
X100138126Y-79836632D01*
X100206809Y-79876767D01*
X100211445Y-79879476D01*
X100260169Y-79931114D01*
X100273240Y-80000897D01*
X100246509Y-80066669D01*
X100206055Y-80100027D01*
X100193607Y-80106507D01*
X100189474Y-80109610D01*
X100189471Y-80109612D01*
X100165247Y-80127800D01*
X100014965Y-80240635D01*
X99860629Y-80402138D01*
X99734743Y-80586680D01*
X99640688Y-80789305D01*
X99580989Y-81004570D01*
X99557251Y-81226695D01*
X99557548Y-81231848D01*
X99557548Y-81231851D01*
X99563011Y-81326590D01*
X99570110Y-81449715D01*
X99571247Y-81454761D01*
X99571248Y-81454767D01*
X99586460Y-81522266D01*
X99619222Y-81667639D01*
X99655662Y-81757380D01*
X99700673Y-81868229D01*
X99703266Y-81874616D01*
X99733076Y-81923262D01*
X99770428Y-81984214D01*
X99819987Y-82065088D01*
X99966250Y-82233938D01*
X100138126Y-82376632D01*
X100208595Y-82417811D01*
X100211445Y-82419476D01*
X100260169Y-82471114D01*
X100273240Y-82540897D01*
X100246509Y-82606669D01*
X100206055Y-82640027D01*
X100193607Y-82646507D01*
X100189474Y-82649610D01*
X100189471Y-82649612D01*
X100019100Y-82777530D01*
X100014965Y-82780635D01*
X99860629Y-82942138D01*
X99734743Y-83126680D01*
X99640688Y-83329305D01*
X99632174Y-83360006D01*
X99594695Y-83420303D01*
X99530566Y-83450766D01*
X99460148Y-83441722D01*
X99421662Y-83415428D01*
X97565405Y-81559171D01*
X97531379Y-81496859D01*
X97528500Y-81470076D01*
X97528500Y-70764669D01*
X101542001Y-70764669D01*
X101542371Y-70771490D01*
X101547895Y-70822352D01*
X101551521Y-70837604D01*
X101596676Y-70958054D01*
X101605214Y-70973649D01*
X101681715Y-71075724D01*
X101694276Y-71088285D01*
X101796351Y-71164786D01*
X101811946Y-71173324D01*
X101932394Y-71218478D01*
X101947649Y-71222105D01*
X101998514Y-71227631D01*
X102005328Y-71228000D01*
X102627885Y-71228000D01*
X102643124Y-71223525D01*
X102644329Y-71222135D01*
X102646000Y-71214452D01*
X102646000Y-70142115D01*
X102641525Y-70126876D01*
X102640135Y-70125671D01*
X102632452Y-70124000D01*
X101560116Y-70124000D01*
X101544877Y-70128475D01*
X101543672Y-70129865D01*
X101542001Y-70137548D01*
X101542001Y-70764669D01*
X97528500Y-70764669D01*
X97528500Y-69049925D01*
X97548502Y-68981804D01*
X97565405Y-68960830D01*
X99440830Y-67085405D01*
X99503142Y-67051379D01*
X99529925Y-67048500D01*
X101140075Y-67048500D01*
X101208196Y-67068502D01*
X101229170Y-67085405D01*
X101509239Y-67365474D01*
X101543265Y-67427786D01*
X101545935Y-67447315D01*
X101550110Y-67519715D01*
X101551247Y-67524761D01*
X101551248Y-67524767D01*
X101571119Y-67612939D01*
X101599222Y-67737639D01*
X101635904Y-67827976D01*
X101679849Y-67936200D01*
X101683266Y-67944616D01*
X101721429Y-68006893D01*
X101797291Y-68130688D01*
X101799987Y-68135088D01*
X101946250Y-68303938D01*
X101950225Y-68307238D01*
X101950231Y-68307244D01*
X101955425Y-68311556D01*
X101995059Y-68370460D01*
X101996555Y-68441441D01*
X101959439Y-68501962D01*
X101919168Y-68526480D01*
X101811946Y-68566676D01*
X101796351Y-68575214D01*
X101694276Y-68651715D01*
X101681715Y-68664276D01*
X101605214Y-68766351D01*
X101596676Y-68781946D01*
X101551522Y-68902394D01*
X101547895Y-68917649D01*
X101542369Y-68968514D01*
X101542000Y-68975328D01*
X101542000Y-69597885D01*
X101546475Y-69613124D01*
X101547865Y-69614329D01*
X101555548Y-69616000D01*
X103028000Y-69616000D01*
X103096121Y-69636002D01*
X103142614Y-69689658D01*
X103154000Y-69742000D01*
X103154000Y-71209884D01*
X103158475Y-71225123D01*
X103159865Y-71226328D01*
X103167548Y-71227999D01*
X103794669Y-71227999D01*
X103801490Y-71227629D01*
X103852352Y-71222105D01*
X103867604Y-71218479D01*
X103988054Y-71173324D01*
X104003649Y-71164786D01*
X104105724Y-71088285D01*
X104118285Y-71075724D01*
X104194786Y-70973649D01*
X104203324Y-70958054D01*
X104244225Y-70848952D01*
X104286867Y-70792188D01*
X104353428Y-70767488D01*
X104422777Y-70782696D01*
X104457444Y-70810684D01*
X104482865Y-70840031D01*
X104482869Y-70840035D01*
X104486250Y-70843938D01*
X104658126Y-70986632D01*
X104851000Y-71099338D01*
X105059692Y-71179030D01*
X105064760Y-71180061D01*
X105064763Y-71180062D01*
X105159862Y-71199410D01*
X105278597Y-71223567D01*
X105283772Y-71223757D01*
X105283774Y-71223757D01*
X105496673Y-71231564D01*
X105496677Y-71231564D01*
X105501837Y-71231753D01*
X105506957Y-71231097D01*
X105506959Y-71231097D01*
X105718288Y-71204025D01*
X105718289Y-71204025D01*
X105723416Y-71203368D01*
X105728369Y-71201882D01*
X105932429Y-71140661D01*
X105932434Y-71140659D01*
X105937384Y-71139174D01*
X106137994Y-71040896D01*
X106319860Y-70911173D01*
X106478096Y-70753489D01*
X106608453Y-70572077D01*
X106609776Y-70573028D01*
X106656645Y-70529857D01*
X106726580Y-70517625D01*
X106792026Y-70545144D01*
X106819875Y-70576994D01*
X106879987Y-70675088D01*
X107026250Y-70843938D01*
X107198126Y-70986632D01*
X107391000Y-71099338D01*
X107599692Y-71179030D01*
X107604760Y-71180061D01*
X107604763Y-71180062D01*
X107699862Y-71199410D01*
X107818597Y-71223567D01*
X107823772Y-71223757D01*
X107823774Y-71223757D01*
X108036673Y-71231564D01*
X108036677Y-71231564D01*
X108041837Y-71231753D01*
X108046957Y-71231097D01*
X108046959Y-71231097D01*
X108258288Y-71204025D01*
X108258289Y-71204025D01*
X108263416Y-71203368D01*
X108268369Y-71201882D01*
X108472429Y-71140661D01*
X108472434Y-71140659D01*
X108477384Y-71139174D01*
X108677994Y-71040896D01*
X108859860Y-70911173D01*
X109018096Y-70753489D01*
X109148453Y-70572077D01*
X109149776Y-70573028D01*
X109196645Y-70529857D01*
X109266580Y-70517625D01*
X109332026Y-70545144D01*
X109359875Y-70576994D01*
X109419987Y-70675088D01*
X109566250Y-70843938D01*
X109738126Y-70986632D01*
X109931000Y-71099338D01*
X110139692Y-71179030D01*
X110144760Y-71180061D01*
X110144763Y-71180062D01*
X110239862Y-71199410D01*
X110358597Y-71223567D01*
X110363772Y-71223757D01*
X110363774Y-71223757D01*
X110576673Y-71231564D01*
X110576677Y-71231564D01*
X110581837Y-71231753D01*
X110586957Y-71231097D01*
X110586959Y-71231097D01*
X110798288Y-71204025D01*
X110798289Y-71204025D01*
X110803416Y-71203368D01*
X110808369Y-71201882D01*
X111012429Y-71140661D01*
X111012434Y-71140659D01*
X111017384Y-71139174D01*
X111217994Y-71040896D01*
X111399860Y-70911173D01*
X111558096Y-70753489D01*
X111688453Y-70572077D01*
X111689776Y-70573028D01*
X111736645Y-70529857D01*
X111806580Y-70517625D01*
X111872026Y-70545144D01*
X111899875Y-70576994D01*
X111959987Y-70675088D01*
X112106250Y-70843938D01*
X112278126Y-70986632D01*
X112471000Y-71099338D01*
X112679692Y-71179030D01*
X112684760Y-71180061D01*
X112684763Y-71180062D01*
X112779862Y-71199410D01*
X112898597Y-71223567D01*
X112903772Y-71223757D01*
X112903774Y-71223757D01*
X113116673Y-71231564D01*
X113116677Y-71231564D01*
X113121837Y-71231753D01*
X113126957Y-71231097D01*
X113126959Y-71231097D01*
X113338288Y-71204025D01*
X113338289Y-71204025D01*
X113343416Y-71203368D01*
X113348369Y-71201882D01*
X113552429Y-71140661D01*
X113552434Y-71140659D01*
X113557384Y-71139174D01*
X113757994Y-71040896D01*
X113939860Y-70911173D01*
X114098096Y-70753489D01*
X114228453Y-70572077D01*
X114229776Y-70573028D01*
X114276645Y-70529857D01*
X114346580Y-70517625D01*
X114412026Y-70545144D01*
X114439875Y-70576994D01*
X114499987Y-70675088D01*
X114646250Y-70843938D01*
X114818126Y-70986632D01*
X115011000Y-71099338D01*
X115219692Y-71179030D01*
X115224760Y-71180061D01*
X115224763Y-71180062D01*
X115319862Y-71199410D01*
X115438597Y-71223567D01*
X115443772Y-71223757D01*
X115443774Y-71223757D01*
X115656673Y-71231564D01*
X115656677Y-71231564D01*
X115661837Y-71231753D01*
X115666957Y-71231097D01*
X115666959Y-71231097D01*
X115878288Y-71204025D01*
X115878289Y-71204025D01*
X115883416Y-71203368D01*
X115888369Y-71201882D01*
X116092429Y-71140661D01*
X116092434Y-71140659D01*
X116097384Y-71139174D01*
X116297994Y-71040896D01*
X116479860Y-70911173D01*
X116638096Y-70753489D01*
X116768453Y-70572077D01*
X116769776Y-70573028D01*
X116816645Y-70529857D01*
X116886580Y-70517625D01*
X116952026Y-70545144D01*
X116979875Y-70576994D01*
X117039987Y-70675088D01*
X117186250Y-70843938D01*
X117358126Y-70986632D01*
X117551000Y-71099338D01*
X117759692Y-71179030D01*
X117764760Y-71180061D01*
X117764763Y-71180062D01*
X117859862Y-71199410D01*
X117978597Y-71223567D01*
X117983772Y-71223757D01*
X117983774Y-71223757D01*
X118196673Y-71231564D01*
X118196677Y-71231564D01*
X118201837Y-71231753D01*
X118206957Y-71231097D01*
X118206959Y-71231097D01*
X118418288Y-71204025D01*
X118418289Y-71204025D01*
X118423416Y-71203368D01*
X118428369Y-71201882D01*
X118632429Y-71140661D01*
X118632434Y-71140659D01*
X118637384Y-71139174D01*
X118837994Y-71040896D01*
X119019860Y-70911173D01*
X119178096Y-70753489D01*
X119308453Y-70572077D01*
X119309776Y-70573028D01*
X119356645Y-70529857D01*
X119426580Y-70517625D01*
X119492026Y-70545144D01*
X119519875Y-70576994D01*
X119579987Y-70675088D01*
X119726250Y-70843938D01*
X119898126Y-70986632D01*
X120091000Y-71099338D01*
X120299692Y-71179030D01*
X120304760Y-71180061D01*
X120304763Y-71180062D01*
X120399862Y-71199410D01*
X120518597Y-71223567D01*
X120523772Y-71223757D01*
X120523774Y-71223757D01*
X120736673Y-71231564D01*
X120736677Y-71231564D01*
X120741837Y-71231753D01*
X120746957Y-71231097D01*
X120746959Y-71231097D01*
X120958288Y-71204025D01*
X120958289Y-71204025D01*
X120963416Y-71203368D01*
X120968369Y-71201882D01*
X121172429Y-71140661D01*
X121172434Y-71140659D01*
X121177384Y-71139174D01*
X121377994Y-71040896D01*
X121559860Y-70911173D01*
X121718096Y-70753489D01*
X121848453Y-70572077D01*
X121849640Y-70572930D01*
X121896960Y-70529362D01*
X121966897Y-70517145D01*
X122032338Y-70544678D01*
X122060166Y-70576511D01*
X122117694Y-70670388D01*
X122123777Y-70678699D01*
X122263213Y-70839667D01*
X122270580Y-70846883D01*
X122434434Y-70982916D01*
X122442881Y-70988831D01*
X122626756Y-71096279D01*
X122636042Y-71100729D01*
X122835001Y-71176703D01*
X122844899Y-71179579D01*
X122948250Y-71200606D01*
X122962299Y-71199410D01*
X122966000Y-71189065D01*
X122966000Y-69742000D01*
X122986002Y-69673879D01*
X123039658Y-69627386D01*
X123092000Y-69616000D01*
X123348000Y-69616000D01*
X123416121Y-69636002D01*
X123462614Y-69689658D01*
X123474000Y-69742000D01*
X123474000Y-71188517D01*
X123478064Y-71202359D01*
X123491478Y-71204393D01*
X123498184Y-71203534D01*
X123508262Y-71201392D01*
X123712255Y-71140191D01*
X123721842Y-71136433D01*
X123913095Y-71042739D01*
X123921945Y-71037464D01*
X124095328Y-70913792D01*
X124103200Y-70907139D01*
X124254052Y-70756812D01*
X124260730Y-70748965D01*
X124388022Y-70571819D01*
X124389279Y-70572722D01*
X124436373Y-70529362D01*
X124506311Y-70517145D01*
X124571751Y-70544678D01*
X124599579Y-70576511D01*
X124659987Y-70675088D01*
X124806250Y-70843938D01*
X124978126Y-70986632D01*
X125171000Y-71099338D01*
X125379692Y-71179030D01*
X125384760Y-71180061D01*
X125384763Y-71180062D01*
X125479862Y-71199410D01*
X125598597Y-71223567D01*
X125603771Y-71223757D01*
X125603773Y-71223757D01*
X125671293Y-71226233D01*
X125745649Y-71228959D01*
X125812990Y-71251443D01*
X125857486Y-71306767D01*
X125865008Y-71377364D01*
X125830126Y-71443969D01*
X124734500Y-72539595D01*
X124672188Y-72573621D01*
X124645405Y-72576500D01*
X115073763Y-72576500D01*
X115062579Y-72575973D01*
X115055091Y-72574299D01*
X115047168Y-72574548D01*
X114987033Y-72576438D01*
X114983075Y-72576500D01*
X114955144Y-72576500D01*
X114951229Y-72576995D01*
X114951225Y-72576995D01*
X114951167Y-72577003D01*
X114951138Y-72577006D01*
X114939296Y-72577939D01*
X114895110Y-72579327D01*
X114877744Y-72584372D01*
X114875658Y-72584978D01*
X114856306Y-72588986D01*
X114844068Y-72590532D01*
X114844066Y-72590533D01*
X114836203Y-72591526D01*
X114795086Y-72607806D01*
X114783885Y-72611641D01*
X114741406Y-72623982D01*
X114734587Y-72628015D01*
X114734582Y-72628017D01*
X114723971Y-72634293D01*
X114706221Y-72642990D01*
X114687383Y-72650448D01*
X114680967Y-72655109D01*
X114680966Y-72655110D01*
X114651625Y-72676428D01*
X114641701Y-72682947D01*
X114610460Y-72701422D01*
X114610455Y-72701426D01*
X114603637Y-72705458D01*
X114589313Y-72719782D01*
X114574281Y-72732621D01*
X114557893Y-72744528D01*
X114539072Y-72767279D01*
X114529712Y-72778593D01*
X114521722Y-72787373D01*
X112762345Y-74546750D01*
X112700033Y-74580776D01*
X112651154Y-74581702D01*
X112438373Y-74543800D01*
X112438367Y-74543799D01*
X112433284Y-74542894D01*
X112356753Y-74541959D01*
X112215081Y-74540228D01*
X112215079Y-74540228D01*
X112209911Y-74540165D01*
X111989091Y-74573955D01*
X111776756Y-74643357D01*
X111746443Y-74659137D01*
X111590969Y-74740072D01*
X111578607Y-74746507D01*
X111574474Y-74749610D01*
X111574471Y-74749612D01*
X111404100Y-74877530D01*
X111399965Y-74880635D01*
X111360525Y-74921907D01*
X111306280Y-74978671D01*
X111245629Y-75042138D01*
X111242720Y-75046403D01*
X111242714Y-75046411D01*
X111211818Y-75091703D01*
X111119743Y-75226680D01*
X111025688Y-75429305D01*
X110965989Y-75644570D01*
X110942251Y-75866695D01*
X110955110Y-76089715D01*
X110956247Y-76094761D01*
X110956248Y-76094767D01*
X110978485Y-76193435D01*
X111004222Y-76307639D01*
X111088266Y-76514616D01*
X111125685Y-76575678D01*
X111202291Y-76700688D01*
X111204987Y-76705088D01*
X111351250Y-76873938D01*
X111523126Y-77016632D01*
X111593595Y-77057811D01*
X111596445Y-77059476D01*
X111645169Y-77111114D01*
X111658240Y-77180897D01*
X111631509Y-77246669D01*
X111591055Y-77280027D01*
X111578607Y-77286507D01*
X111574474Y-77289610D01*
X111574471Y-77289612D01*
X111404100Y-77417530D01*
X111399965Y-77420635D01*
X111396393Y-77424373D01*
X111288406Y-77537375D01*
X111245629Y-77582138D01*
X111242720Y-77586403D01*
X111242714Y-77586411D01*
X111241857Y-77587668D01*
X111119743Y-77766680D01*
X111103899Y-77800814D01*
X111054232Y-77907813D01*
X111025688Y-77969305D01*
X110965989Y-78184570D01*
X110942251Y-78406695D01*
X110942548Y-78411848D01*
X110942548Y-78411851D01*
X110947776Y-78502522D01*
X110955110Y-78629715D01*
X110956247Y-78634761D01*
X110956248Y-78634767D01*
X110976215Y-78723365D01*
X111004222Y-78847639D01*
X111088266Y-79054616D01*
X111129924Y-79122596D01*
X111202291Y-79240688D01*
X111204987Y-79245088D01*
X111351250Y-79413938D01*
X111523126Y-79556632D01*
X111716000Y-79669338D01*
X111720825Y-79671180D01*
X111720826Y-79671181D01*
X111745657Y-79680663D01*
X111924692Y-79749030D01*
X111929760Y-79750061D01*
X111929763Y-79750062D01*
X112018772Y-79768171D01*
X112143597Y-79793567D01*
X112148772Y-79793757D01*
X112148774Y-79793757D01*
X112361673Y-79801564D01*
X112361677Y-79801564D01*
X112366837Y-79801753D01*
X112371957Y-79801097D01*
X112371959Y-79801097D01*
X112583288Y-79774025D01*
X112583289Y-79774025D01*
X112588416Y-79773368D01*
X112593369Y-79771882D01*
X112797429Y-79710661D01*
X112797434Y-79710659D01*
X112802384Y-79709174D01*
X113002994Y-79610896D01*
X113184860Y-79481173D01*
X113207046Y-79459065D01*
X113303301Y-79363145D01*
X113343096Y-79323489D01*
X113354330Y-79307856D01*
X113473453Y-79142077D01*
X113474776Y-79143028D01*
X113521645Y-79099857D01*
X113591580Y-79087625D01*
X113657026Y-79115144D01*
X113684875Y-79146994D01*
X113744987Y-79245088D01*
X113891250Y-79413938D01*
X114063126Y-79556632D01*
X114256000Y-79669338D01*
X114260825Y-79671180D01*
X114260826Y-79671181D01*
X114285657Y-79680663D01*
X114464692Y-79749030D01*
X114469760Y-79750061D01*
X114469763Y-79750062D01*
X114558772Y-79768171D01*
X114683597Y-79793567D01*
X114688772Y-79793757D01*
X114688774Y-79793757D01*
X114901673Y-79801564D01*
X114901677Y-79801564D01*
X114906837Y-79801753D01*
X114911957Y-79801097D01*
X114911959Y-79801097D01*
X115123288Y-79774025D01*
X115123289Y-79774025D01*
X115128416Y-79773368D01*
X115133369Y-79771882D01*
X115337429Y-79710661D01*
X115337434Y-79710659D01*
X115342384Y-79709174D01*
X115542994Y-79610896D01*
X115724860Y-79481173D01*
X115747046Y-79459065D01*
X115843301Y-79363145D01*
X115883096Y-79323489D01*
X115894330Y-79307856D01*
X116013453Y-79142077D01*
X116014776Y-79143028D01*
X116061645Y-79099857D01*
X116131580Y-79087625D01*
X116197026Y-79115144D01*
X116224875Y-79146994D01*
X116284987Y-79245088D01*
X116431250Y-79413938D01*
X116603126Y-79556632D01*
X116796000Y-79669338D01*
X116800825Y-79671180D01*
X116800826Y-79671181D01*
X116825657Y-79680663D01*
X117004692Y-79749030D01*
X117009760Y-79750061D01*
X117009763Y-79750062D01*
X117098772Y-79768171D01*
X117223597Y-79793567D01*
X117228772Y-79793757D01*
X117228774Y-79793757D01*
X117441673Y-79801564D01*
X117441677Y-79801564D01*
X117446837Y-79801753D01*
X117451957Y-79801097D01*
X117451959Y-79801097D01*
X117663288Y-79774025D01*
X117663289Y-79774025D01*
X117668416Y-79773368D01*
X117673367Y-79771883D01*
X117673370Y-79771882D01*
X117714829Y-79759444D01*
X117785825Y-79759028D01*
X117840131Y-79791035D01*
X123531343Y-85482247D01*
X123538887Y-85490537D01*
X123543000Y-85497018D01*
X123548777Y-85502443D01*
X123592667Y-85543658D01*
X123595509Y-85546413D01*
X123615230Y-85566134D01*
X123618425Y-85568612D01*
X123627447Y-85576318D01*
X123659679Y-85606586D01*
X123666628Y-85610406D01*
X123677432Y-85616346D01*
X123693956Y-85627199D01*
X123709959Y-85639613D01*
X123721458Y-85644589D01*
X123765052Y-85675913D01*
X123848747Y-85768866D01*
X124003248Y-85881118D01*
X124009276Y-85883802D01*
X124009278Y-85883803D01*
X124058505Y-85905720D01*
X124177712Y-85958794D01*
X124271112Y-85978647D01*
X124358056Y-85997128D01*
X124358061Y-85997128D01*
X124364513Y-85998500D01*
X124555487Y-85998500D01*
X124561939Y-85997128D01*
X124561944Y-85997128D01*
X124648888Y-85978647D01*
X124742288Y-85958794D01*
X124861495Y-85905720D01*
X124910722Y-85883803D01*
X124910724Y-85883802D01*
X124916752Y-85881118D01*
X125071253Y-85768866D01*
X125140921Y-85691492D01*
X125194621Y-85631852D01*
X125194622Y-85631851D01*
X125199040Y-85626944D01*
X125274053Y-85497018D01*
X125291223Y-85467279D01*
X125291224Y-85467278D01*
X125294527Y-85461556D01*
X125353542Y-85279928D01*
X125361460Y-85204598D01*
X125372814Y-85096565D01*
X125373504Y-85090000D01*
X125368121Y-85038782D01*
X125354232Y-84906635D01*
X125354232Y-84906633D01*
X125353542Y-84900072D01*
X125294527Y-84718444D01*
X125199040Y-84553056D01*
X125153139Y-84502077D01*
X125075675Y-84416045D01*
X125075674Y-84416044D01*
X125071253Y-84411134D01*
X124916752Y-84298882D01*
X124910724Y-84296198D01*
X124910722Y-84296197D01*
X124748319Y-84223891D01*
X124748318Y-84223891D01*
X124742288Y-84221206D01*
X124646907Y-84200932D01*
X124561944Y-84182872D01*
X124561939Y-84182872D01*
X124555487Y-84181500D01*
X124364513Y-84181500D01*
X124358061Y-84182872D01*
X124358056Y-84182872D01*
X124273093Y-84200932D01*
X124177712Y-84221206D01*
X124171680Y-84223892D01*
X124165400Y-84225932D01*
X124164527Y-84223245D01*
X124106477Y-84231033D01*
X124042178Y-84200932D01*
X124036490Y-84195585D01*
X119855798Y-80014893D01*
X119821772Y-79952581D01*
X119826837Y-79881766D01*
X119869384Y-79824930D01*
X119935904Y-79800119D01*
X119949511Y-79799883D01*
X119981650Y-79801062D01*
X119991936Y-79800595D01*
X120203185Y-79773534D01*
X120213262Y-79771392D01*
X120417255Y-79710191D01*
X120426842Y-79706433D01*
X120618098Y-79612738D01*
X120626944Y-79607465D01*
X120674247Y-79573723D01*
X120682648Y-79563023D01*
X120675660Y-79549870D01*
X120462885Y-79337095D01*
X122122001Y-79337095D01*
X122122338Y-79343614D01*
X122132257Y-79439206D01*
X122135149Y-79452600D01*
X122186588Y-79606784D01*
X122192761Y-79619962D01*
X122278063Y-79757807D01*
X122287099Y-79769208D01*
X122401829Y-79883739D01*
X122413240Y-79892751D01*
X122551243Y-79977816D01*
X122564424Y-79983963D01*
X122718710Y-80035138D01*
X122732086Y-80038005D01*
X122826438Y-80047672D01*
X122832854Y-80048000D01*
X123657885Y-80048000D01*
X123673124Y-80043525D01*
X123674329Y-80042135D01*
X123676000Y-80034452D01*
X123676000Y-80029884D01*
X124184000Y-80029884D01*
X124188475Y-80045123D01*
X124189865Y-80046328D01*
X124197548Y-80047999D01*
X125027095Y-80047999D01*
X125033614Y-80047662D01*
X125129206Y-80037743D01*
X125142600Y-80034851D01*
X125296784Y-79983412D01*
X125309962Y-79977239D01*
X125447807Y-79891937D01*
X125459208Y-79882901D01*
X125573739Y-79768171D01*
X125582751Y-79756760D01*
X125622451Y-79692354D01*
X125675223Y-79644861D01*
X125745294Y-79633437D01*
X125810418Y-79661711D01*
X125836854Y-79692166D01*
X125881522Y-79764348D01*
X126006697Y-79889305D01*
X126012927Y-79893145D01*
X126012928Y-79893146D01*
X126150288Y-79977816D01*
X126157262Y-79982115D01*
X126213888Y-80000897D01*
X126318611Y-80035632D01*
X126318613Y-80035632D01*
X126325139Y-80037797D01*
X126331975Y-80038497D01*
X126331978Y-80038498D01*
X126375031Y-80042909D01*
X126429600Y-80048500D01*
X128630400Y-80048500D01*
X128633646Y-80048163D01*
X128633650Y-80048163D01*
X128729308Y-80038238D01*
X128729312Y-80038237D01*
X128736166Y-80037526D01*
X128742702Y-80035345D01*
X128742704Y-80035345D01*
X128881184Y-79989144D01*
X128903946Y-79981550D01*
X129054348Y-79888478D01*
X129109403Y-79833327D01*
X129157165Y-79785482D01*
X129219448Y-79751403D01*
X129246338Y-79748500D01*
X129589769Y-79748500D01*
X129592825Y-79748200D01*
X129592832Y-79748200D01*
X129651340Y-79742463D01*
X129736833Y-79734080D01*
X129742734Y-79732298D01*
X129742736Y-79732298D01*
X129816053Y-79710162D01*
X129926169Y-79676916D01*
X130100796Y-79584066D01*
X130200477Y-79502768D01*
X130249287Y-79462960D01*
X130249290Y-79462957D01*
X130254062Y-79459065D01*
X130257991Y-79454316D01*
X130376201Y-79311425D01*
X130376203Y-79311421D01*
X130380130Y-79306675D01*
X130474198Y-79132701D01*
X130532682Y-78943768D01*
X130536804Y-78904547D01*
X130552711Y-78753204D01*
X130552711Y-78753202D01*
X130553355Y-78747075D01*
X130543134Y-78634767D01*
X130535989Y-78556251D01*
X130535988Y-78556248D01*
X130535430Y-78550112D01*
X130523592Y-78509887D01*
X130481330Y-78366294D01*
X130479590Y-78360381D01*
X130387960Y-78185110D01*
X130264032Y-78030975D01*
X130112526Y-77903846D01*
X130107128Y-77900879D01*
X130107123Y-77900875D01*
X129944608Y-77811533D01*
X129944609Y-77811533D01*
X129939213Y-77808567D01*
X129933346Y-77806706D01*
X129933344Y-77806705D01*
X129756564Y-77750627D01*
X129756563Y-77750627D01*
X129750694Y-77748765D01*
X129596773Y-77731500D01*
X129246480Y-77731500D01*
X129178359Y-77711498D01*
X129157462Y-77694673D01*
X129151839Y-77689059D01*
X129053303Y-77590695D01*
X129033359Y-77578401D01*
X128908968Y-77501725D01*
X128908966Y-77501724D01*
X128902738Y-77497885D01*
X128822995Y-77471436D01*
X128741389Y-77444368D01*
X128741387Y-77444368D01*
X128734861Y-77442203D01*
X128728025Y-77441503D01*
X128728022Y-77441502D01*
X128684969Y-77437091D01*
X128630400Y-77431500D01*
X126429600Y-77431500D01*
X126426354Y-77431837D01*
X126426350Y-77431837D01*
X126330692Y-77441762D01*
X126330688Y-77441763D01*
X126323834Y-77442474D01*
X126317298Y-77444655D01*
X126317296Y-77444655D01*
X126209512Y-77480615D01*
X126156054Y-77498450D01*
X126005652Y-77591522D01*
X125880695Y-77716697D01*
X125853055Y-77761538D01*
X125836961Y-77787647D01*
X125784189Y-77835140D01*
X125714117Y-77846564D01*
X125648994Y-77818290D01*
X125622557Y-77787834D01*
X125581937Y-77722193D01*
X125572901Y-77710792D01*
X125458171Y-77596261D01*
X125446760Y-77587249D01*
X125308757Y-77502184D01*
X125295576Y-77496037D01*
X125141290Y-77444862D01*
X125127914Y-77441995D01*
X125033562Y-77432328D01*
X125027145Y-77432000D01*
X124202115Y-77432000D01*
X124186876Y-77436475D01*
X124185671Y-77437865D01*
X124184000Y-77445548D01*
X124184000Y-80029884D01*
X123676000Y-80029884D01*
X123676000Y-79012115D01*
X123671525Y-78996876D01*
X123670135Y-78995671D01*
X123662452Y-78994000D01*
X122140116Y-78994000D01*
X122124877Y-78998475D01*
X122123672Y-78999865D01*
X122122001Y-79007548D01*
X122122001Y-79337095D01*
X120462885Y-79337095D01*
X119566922Y-78441132D01*
X120289408Y-78441132D01*
X120289539Y-78442965D01*
X120293790Y-78449580D01*
X121035474Y-79191264D01*
X121047484Y-79197823D01*
X121059223Y-79188855D01*
X121090004Y-79146019D01*
X121095315Y-79137180D01*
X121189670Y-78946267D01*
X121193469Y-78936672D01*
X121255376Y-78732915D01*
X121257555Y-78722834D01*
X121285590Y-78509887D01*
X121286109Y-78503212D01*
X121286973Y-78467885D01*
X122122000Y-78467885D01*
X122126475Y-78483124D01*
X122127865Y-78484329D01*
X122135548Y-78486000D01*
X123657885Y-78486000D01*
X123673124Y-78481525D01*
X123674329Y-78480135D01*
X123676000Y-78472452D01*
X123676000Y-77450116D01*
X123671525Y-77434877D01*
X123670135Y-77433672D01*
X123662452Y-77432001D01*
X122832905Y-77432001D01*
X122826386Y-77432338D01*
X122730794Y-77442257D01*
X122717400Y-77445149D01*
X122563216Y-77496588D01*
X122550038Y-77502761D01*
X122412193Y-77588063D01*
X122400792Y-77597099D01*
X122286261Y-77711829D01*
X122277249Y-77723240D01*
X122192184Y-77861243D01*
X122186037Y-77874424D01*
X122134862Y-78028710D01*
X122131995Y-78042086D01*
X122122328Y-78136438D01*
X122122000Y-78142855D01*
X122122000Y-78467885D01*
X121286973Y-78467885D01*
X121287572Y-78443364D01*
X121287378Y-78436646D01*
X121269781Y-78222604D01*
X121268096Y-78212424D01*
X121216214Y-78005875D01*
X121212894Y-77996124D01*
X121127972Y-77800814D01*
X121123105Y-77791739D01*
X121058063Y-77691197D01*
X121047377Y-77681995D01*
X121037812Y-77686398D01*
X120297022Y-78427188D01*
X120289408Y-78441132D01*
X119566922Y-78441132D01*
X118814849Y-77689059D01*
X118803313Y-77682759D01*
X118791031Y-77692382D01*
X118758499Y-77740072D01*
X118703587Y-77785075D01*
X118633063Y-77793246D01*
X118569316Y-77761992D01*
X118548618Y-77737508D01*
X118467822Y-77612617D01*
X118467820Y-77612614D01*
X118465014Y-77608277D01*
X118314670Y-77443051D01*
X118310619Y-77439852D01*
X118310615Y-77439848D01*
X118143414Y-77307800D01*
X118143410Y-77307798D01*
X118139359Y-77304598D01*
X118098053Y-77281796D01*
X118048084Y-77231364D01*
X118033312Y-77161921D01*
X118058428Y-77095516D01*
X118085780Y-77068909D01*
X118129603Y-77037650D01*
X118264860Y-76941173D01*
X118373091Y-76833319D01*
X118435462Y-76799404D01*
X118506268Y-76804592D01*
X118563030Y-76847238D01*
X118580012Y-76878341D01*
X118602201Y-76937529D01*
X118624385Y-76996705D01*
X118711739Y-77113261D01*
X118828295Y-77200615D01*
X118964684Y-77251745D01*
X119026866Y-77258500D01*
X119059840Y-77258500D01*
X119127961Y-77278502D01*
X119170384Y-77324035D01*
X119172967Y-77328757D01*
X119912188Y-78067978D01*
X119926132Y-78075592D01*
X119927965Y-78075461D01*
X119934580Y-78071210D01*
X120678390Y-77327400D01*
X120680186Y-77324111D01*
X120730390Y-77273911D01*
X120790772Y-77258500D01*
X120823134Y-77258500D01*
X120885316Y-77251745D01*
X121021705Y-77200615D01*
X121138261Y-77113261D01*
X121225615Y-76996705D01*
X121276745Y-76860316D01*
X121283500Y-76798134D01*
X121283500Y-75001866D01*
X121276745Y-74939684D01*
X121225615Y-74803295D01*
X121138261Y-74686739D01*
X121021705Y-74599385D01*
X120885316Y-74548255D01*
X120853171Y-74544763D01*
X120787609Y-74517521D01*
X120747183Y-74459158D01*
X120744728Y-74388204D01*
X120781023Y-74327186D01*
X120844545Y-74295477D01*
X120866779Y-74293500D01*
X123560200Y-74293500D01*
X123628321Y-74313502D01*
X123674814Y-74367158D01*
X123684918Y-74437432D01*
X123669319Y-74482500D01*
X123628777Y-74552721D01*
X123625473Y-74558444D01*
X123566458Y-74740072D01*
X123565768Y-74746633D01*
X123565768Y-74746635D01*
X123547347Y-74921907D01*
X123546496Y-74930000D01*
X123547186Y-74936565D01*
X123554208Y-75003371D01*
X123566458Y-75119928D01*
X123625473Y-75301556D01*
X123720960Y-75466944D01*
X123848747Y-75608866D01*
X124003248Y-75721118D01*
X124009276Y-75723802D01*
X124009278Y-75723803D01*
X124171681Y-75796109D01*
X124177712Y-75798794D01*
X124271112Y-75818647D01*
X124358056Y-75837128D01*
X124358061Y-75837128D01*
X124364513Y-75838500D01*
X124555487Y-75838500D01*
X124561939Y-75837128D01*
X124561944Y-75837128D01*
X124648888Y-75818647D01*
X124742288Y-75798794D01*
X124748319Y-75796109D01*
X124910722Y-75723803D01*
X124910724Y-75723802D01*
X124916752Y-75721118D01*
X125071253Y-75608866D01*
X125075668Y-75603963D01*
X125080580Y-75599540D01*
X125081705Y-75600789D01*
X125135014Y-75567949D01*
X125168200Y-75563500D01*
X128831800Y-75563500D01*
X128899921Y-75583502D01*
X128919147Y-75599843D01*
X128919420Y-75599540D01*
X128924332Y-75603963D01*
X128928747Y-75608866D01*
X129083248Y-75721118D01*
X129089276Y-75723802D01*
X129089278Y-75723803D01*
X129251681Y-75796109D01*
X129257712Y-75798794D01*
X129351112Y-75818647D01*
X129438056Y-75837128D01*
X129438061Y-75837128D01*
X129444513Y-75838500D01*
X129635487Y-75838500D01*
X129641939Y-75837128D01*
X129641944Y-75837128D01*
X129728888Y-75818647D01*
X129822288Y-75798794D01*
X129828319Y-75796109D01*
X129990722Y-75723803D01*
X129990724Y-75723802D01*
X129996752Y-75721118D01*
X130151253Y-75608866D01*
X130279040Y-75466944D01*
X130374527Y-75301556D01*
X130433542Y-75119928D01*
X130445793Y-75003371D01*
X130452814Y-74936565D01*
X130453504Y-74930000D01*
X130452653Y-74921907D01*
X130434232Y-74746635D01*
X130434232Y-74746633D01*
X130433542Y-74740072D01*
X130374527Y-74558444D01*
X130371223Y-74552721D01*
X130330681Y-74482500D01*
X130313943Y-74413504D01*
X130337164Y-74346413D01*
X130392971Y-74302526D01*
X130439800Y-74293500D01*
X135181800Y-74293500D01*
X135249921Y-74313502D01*
X135269147Y-74329843D01*
X135269420Y-74329540D01*
X135274332Y-74333963D01*
X135278747Y-74338866D01*
X135287100Y-74344935D01*
X135375625Y-74409252D01*
X135433248Y-74451118D01*
X135439276Y-74453802D01*
X135439278Y-74453803D01*
X135589537Y-74520702D01*
X135607712Y-74528794D01*
X135682840Y-74544763D01*
X135788056Y-74567128D01*
X135788061Y-74567128D01*
X135794513Y-74568500D01*
X135985487Y-74568500D01*
X135991939Y-74567128D01*
X135991944Y-74567128D01*
X136097160Y-74544763D01*
X136172288Y-74528794D01*
X136190463Y-74520702D01*
X136340722Y-74453803D01*
X136340724Y-74453802D01*
X136346752Y-74451118D01*
X136501253Y-74338866D01*
X136538689Y-74297289D01*
X136624621Y-74201852D01*
X136624622Y-74201851D01*
X136629040Y-74196944D01*
X136703929Y-74067232D01*
X136721223Y-74037279D01*
X136721224Y-74037278D01*
X136724527Y-74031556D01*
X136783542Y-73849928D01*
X136803504Y-73660000D01*
X136783542Y-73470072D01*
X136724527Y-73288444D01*
X136680681Y-73212500D01*
X136663943Y-73143504D01*
X136687164Y-73076413D01*
X136742971Y-73032526D01*
X136789800Y-73023500D01*
X136845406Y-73023500D01*
X136913527Y-73043502D01*
X136934501Y-73060405D01*
X138283348Y-74409252D01*
X138317374Y-74471564D01*
X138312309Y-74542379D01*
X138269762Y-74599215D01*
X138203242Y-74624026D01*
X138152193Y-74617120D01*
X138058087Y-74583795D01*
X138058083Y-74583794D01*
X138053212Y-74582069D01*
X138048119Y-74581162D01*
X138048116Y-74581161D01*
X137838373Y-74543800D01*
X137838367Y-74543799D01*
X137833284Y-74542894D01*
X137756753Y-74541959D01*
X137615081Y-74540228D01*
X137615079Y-74540228D01*
X137609911Y-74540165D01*
X137389091Y-74573955D01*
X137176756Y-74643357D01*
X137146443Y-74659137D01*
X136990969Y-74740072D01*
X136978607Y-74746507D01*
X136974474Y-74749610D01*
X136974471Y-74749612D01*
X136804100Y-74877530D01*
X136799965Y-74880635D01*
X136760525Y-74921907D01*
X136706280Y-74978671D01*
X136645629Y-75042138D01*
X136642720Y-75046403D01*
X136642714Y-75046411D01*
X136611818Y-75091703D01*
X136519743Y-75226680D01*
X136425688Y-75429305D01*
X136365989Y-75644570D01*
X136342251Y-75866695D01*
X136355110Y-76089715D01*
X136356247Y-76094761D01*
X136356248Y-76094767D01*
X136378485Y-76193435D01*
X136404222Y-76307639D01*
X136488266Y-76514616D01*
X136525685Y-76575678D01*
X136602291Y-76700688D01*
X136604987Y-76705088D01*
X136751250Y-76873938D01*
X136923126Y-77016632D01*
X136993595Y-77057811D01*
X136996445Y-77059476D01*
X137045169Y-77111114D01*
X137058240Y-77180897D01*
X137031509Y-77246669D01*
X136991055Y-77280027D01*
X136978607Y-77286507D01*
X136974474Y-77289610D01*
X136974471Y-77289612D01*
X136804100Y-77417530D01*
X136799965Y-77420635D01*
X136796393Y-77424373D01*
X136688406Y-77537375D01*
X136645629Y-77582138D01*
X136642720Y-77586403D01*
X136642714Y-77586411D01*
X136641857Y-77587668D01*
X136519743Y-77766680D01*
X136503899Y-77800814D01*
X136454232Y-77907813D01*
X136425688Y-77969305D01*
X136365989Y-78184570D01*
X136342251Y-78406695D01*
X136342548Y-78411848D01*
X136342548Y-78411851D01*
X136347776Y-78502522D01*
X136355110Y-78629715D01*
X136356247Y-78634761D01*
X136356248Y-78634767D01*
X136376215Y-78723365D01*
X136404222Y-78847639D01*
X136488266Y-79054616D01*
X136529924Y-79122596D01*
X136602291Y-79240688D01*
X136604987Y-79245088D01*
X136751250Y-79413938D01*
X136923126Y-79556632D01*
X137116000Y-79669338D01*
X137120825Y-79671180D01*
X137120826Y-79671181D01*
X137145657Y-79680663D01*
X137324692Y-79749030D01*
X137329760Y-79750061D01*
X137329763Y-79750062D01*
X137418772Y-79768171D01*
X137543597Y-79793567D01*
X137548771Y-79793757D01*
X137548773Y-79793757D01*
X137616293Y-79796233D01*
X137690649Y-79798959D01*
X137757990Y-79821443D01*
X137802486Y-79876767D01*
X137810008Y-79947364D01*
X137775126Y-80013969D01*
X137179500Y-80609595D01*
X137117188Y-80643621D01*
X137090405Y-80646500D01*
X130248200Y-80646500D01*
X130180079Y-80626498D01*
X130160853Y-80610157D01*
X130160580Y-80610460D01*
X130155668Y-80606037D01*
X130151253Y-80601134D01*
X129996752Y-80488882D01*
X129990724Y-80486198D01*
X129990722Y-80486197D01*
X129828319Y-80413891D01*
X129828318Y-80413891D01*
X129822288Y-80411206D01*
X129728888Y-80391353D01*
X129641944Y-80372872D01*
X129641939Y-80372872D01*
X129635487Y-80371500D01*
X129444513Y-80371500D01*
X129438061Y-80372872D01*
X129438056Y-80372872D01*
X129351112Y-80391353D01*
X129257712Y-80411206D01*
X129251682Y-80413891D01*
X129251681Y-80413891D01*
X129089278Y-80486197D01*
X129089276Y-80486198D01*
X129083248Y-80488882D01*
X128928747Y-80601134D01*
X128924326Y-80606044D01*
X128924325Y-80606045D01*
X128890492Y-80643621D01*
X128800960Y-80743056D01*
X128705473Y-80908444D01*
X128646458Y-81090072D01*
X128645768Y-81096633D01*
X128645768Y-81096635D01*
X128631557Y-81231851D01*
X128626496Y-81280000D01*
X128627186Y-81286565D01*
X128644865Y-81454767D01*
X128646458Y-81469928D01*
X128705473Y-81651556D01*
X128708776Y-81657278D01*
X128708777Y-81657279D01*
X128717522Y-81672425D01*
X128800960Y-81816944D01*
X128805378Y-81821851D01*
X128805379Y-81821852D01*
X128887452Y-81913003D01*
X128928747Y-81958866D01*
X129083248Y-82071118D01*
X129089276Y-82073802D01*
X129089278Y-82073803D01*
X129251681Y-82146109D01*
X129257712Y-82148794D01*
X129351112Y-82168647D01*
X129438056Y-82187128D01*
X129438061Y-82187128D01*
X129444513Y-82188500D01*
X129635487Y-82188500D01*
X129641939Y-82187128D01*
X129641944Y-82187128D01*
X129728888Y-82168647D01*
X129822288Y-82148794D01*
X129828319Y-82146109D01*
X129990722Y-82073803D01*
X129990724Y-82073802D01*
X129996752Y-82071118D01*
X130048090Y-82033819D01*
X130141053Y-81966277D01*
X130151253Y-81958866D01*
X130155668Y-81953963D01*
X130160580Y-81949540D01*
X130161705Y-81950789D01*
X130215014Y-81917949D01*
X130248200Y-81913500D01*
X137326233Y-81913500D01*
X137337416Y-81914027D01*
X137344909Y-81915702D01*
X137352835Y-81915453D01*
X137352836Y-81915453D01*
X137412986Y-81913562D01*
X137416945Y-81913500D01*
X137444856Y-81913500D01*
X137448791Y-81913003D01*
X137448856Y-81912995D01*
X137460693Y-81912062D01*
X137492951Y-81911048D01*
X137496970Y-81910922D01*
X137504889Y-81910673D01*
X137524343Y-81905021D01*
X137543700Y-81901013D01*
X137555930Y-81899468D01*
X137555931Y-81899468D01*
X137563797Y-81898474D01*
X137571168Y-81895555D01*
X137571170Y-81895555D01*
X137604912Y-81882196D01*
X137616142Y-81878351D01*
X137650983Y-81868229D01*
X137650984Y-81868229D01*
X137658593Y-81866018D01*
X137665412Y-81861985D01*
X137665417Y-81861983D01*
X137676028Y-81855707D01*
X137693776Y-81847012D01*
X137712617Y-81839552D01*
X137748387Y-81813564D01*
X137758307Y-81807048D01*
X137789535Y-81788580D01*
X137789538Y-81788578D01*
X137796362Y-81784542D01*
X137810683Y-81770221D01*
X137825717Y-81757380D01*
X137835694Y-81750131D01*
X137842107Y-81745472D01*
X137870298Y-81711395D01*
X137878288Y-81702616D01*
X139789549Y-79791355D01*
X139851861Y-79757329D01*
X139903762Y-79756979D01*
X140083597Y-79793567D01*
X140088772Y-79793757D01*
X140088774Y-79793757D01*
X140301673Y-79801564D01*
X140301677Y-79801564D01*
X140306837Y-79801753D01*
X140311957Y-79801097D01*
X140311959Y-79801097D01*
X140523288Y-79774025D01*
X140523289Y-79774025D01*
X140528416Y-79773368D01*
X140533369Y-79771882D01*
X140737429Y-79710661D01*
X140737434Y-79710659D01*
X140742384Y-79709174D01*
X140942994Y-79610896D01*
X141124860Y-79481173D01*
X141147046Y-79459065D01*
X141243301Y-79363145D01*
X141283096Y-79323489D01*
X141294330Y-79307856D01*
X141413453Y-79142077D01*
X141414776Y-79143028D01*
X141461645Y-79099857D01*
X141531580Y-79087625D01*
X141597026Y-79115144D01*
X141624875Y-79146994D01*
X141684987Y-79245088D01*
X141831250Y-79413938D01*
X142003126Y-79556632D01*
X142196000Y-79669338D01*
X142200825Y-79671180D01*
X142200826Y-79671181D01*
X142225657Y-79680663D01*
X142404692Y-79749030D01*
X142409760Y-79750061D01*
X142409763Y-79750062D01*
X142498772Y-79768171D01*
X142623597Y-79793567D01*
X142628772Y-79793757D01*
X142628774Y-79793757D01*
X142841673Y-79801564D01*
X142841677Y-79801564D01*
X142846837Y-79801753D01*
X142851957Y-79801097D01*
X142851959Y-79801097D01*
X143063288Y-79774025D01*
X143063289Y-79774025D01*
X143068416Y-79773368D01*
X143073369Y-79771882D01*
X143277429Y-79710661D01*
X143277434Y-79710659D01*
X143282384Y-79709174D01*
X143482994Y-79610896D01*
X143547544Y-79564853D01*
X144564977Y-79564853D01*
X144570258Y-79571907D01*
X144731756Y-79666279D01*
X144741042Y-79670729D01*
X144940001Y-79746703D01*
X144949899Y-79749579D01*
X145158595Y-79792038D01*
X145168823Y-79793257D01*
X145381650Y-79801062D01*
X145391936Y-79800595D01*
X145603185Y-79773534D01*
X145613262Y-79771392D01*
X145817255Y-79710191D01*
X145826842Y-79706433D01*
X146018098Y-79612738D01*
X146026944Y-79607465D01*
X146074247Y-79573723D01*
X146082648Y-79563023D01*
X146075660Y-79549870D01*
X145862885Y-79337095D01*
X147522001Y-79337095D01*
X147522338Y-79343614D01*
X147532257Y-79439206D01*
X147535149Y-79452600D01*
X147586588Y-79606784D01*
X147592761Y-79619962D01*
X147678063Y-79757807D01*
X147687099Y-79769208D01*
X147801829Y-79883739D01*
X147813240Y-79892751D01*
X147951243Y-79977816D01*
X147964424Y-79983963D01*
X148118710Y-80035138D01*
X148132086Y-80038005D01*
X148226438Y-80047672D01*
X148232854Y-80048000D01*
X149057885Y-80048000D01*
X149073124Y-80043525D01*
X149074329Y-80042135D01*
X149076000Y-80034452D01*
X149076000Y-79012115D01*
X149071525Y-78996876D01*
X149070135Y-78995671D01*
X149062452Y-78994000D01*
X147540116Y-78994000D01*
X147524877Y-78998475D01*
X147523672Y-78999865D01*
X147522001Y-79007548D01*
X147522001Y-79337095D01*
X145862885Y-79337095D01*
X145337812Y-78812022D01*
X145323868Y-78804408D01*
X145322035Y-78804539D01*
X145315420Y-78808790D01*
X144571737Y-79552473D01*
X144564977Y-79564853D01*
X143547544Y-79564853D01*
X143664860Y-79481173D01*
X143687046Y-79459065D01*
X143783301Y-79363145D01*
X143823096Y-79323489D01*
X143834330Y-79307856D01*
X143953453Y-79142077D01*
X143954640Y-79142930D01*
X144001960Y-79099362D01*
X144071897Y-79087145D01*
X144137338Y-79114678D01*
X144165166Y-79146512D01*
X144191459Y-79189419D01*
X144201916Y-79198880D01*
X144210694Y-79195096D01*
X144952978Y-78452812D01*
X144959356Y-78441132D01*
X145689408Y-78441132D01*
X145689539Y-78442965D01*
X145693790Y-78449580D01*
X146435474Y-79191264D01*
X146447484Y-79197823D01*
X146459223Y-79188855D01*
X146490004Y-79146019D01*
X146495315Y-79137180D01*
X146589670Y-78946267D01*
X146593469Y-78936672D01*
X146655376Y-78732915D01*
X146657555Y-78722834D01*
X146685590Y-78509887D01*
X146686109Y-78503212D01*
X146686973Y-78467885D01*
X147522000Y-78467885D01*
X147526475Y-78483124D01*
X147527865Y-78484329D01*
X147535548Y-78486000D01*
X149057885Y-78486000D01*
X149073124Y-78481525D01*
X149074329Y-78480135D01*
X149076000Y-78472452D01*
X149076000Y-77450116D01*
X149071525Y-77434877D01*
X149070135Y-77433672D01*
X149062452Y-77432001D01*
X148232905Y-77432001D01*
X148226386Y-77432338D01*
X148130794Y-77442257D01*
X148117400Y-77445149D01*
X147963216Y-77496588D01*
X147950038Y-77502761D01*
X147812193Y-77588063D01*
X147800792Y-77597099D01*
X147686261Y-77711829D01*
X147677249Y-77723240D01*
X147592184Y-77861243D01*
X147586037Y-77874424D01*
X147534862Y-78028710D01*
X147531995Y-78042086D01*
X147522328Y-78136438D01*
X147522000Y-78142855D01*
X147522000Y-78467885D01*
X146686973Y-78467885D01*
X146687572Y-78443364D01*
X146687378Y-78436646D01*
X146669781Y-78222604D01*
X146668096Y-78212424D01*
X146616214Y-78005875D01*
X146612894Y-77996124D01*
X146527972Y-77800814D01*
X146523105Y-77791739D01*
X146458063Y-77691197D01*
X146447377Y-77681995D01*
X146437812Y-77686398D01*
X145697022Y-78427188D01*
X145689408Y-78441132D01*
X144959356Y-78441132D01*
X144960592Y-78438868D01*
X144960461Y-78437035D01*
X144956210Y-78430420D01*
X144214849Y-77689059D01*
X144203313Y-77682759D01*
X144191031Y-77692382D01*
X144158499Y-77740072D01*
X144103587Y-77785075D01*
X144033063Y-77793246D01*
X143969316Y-77761992D01*
X143948618Y-77737508D01*
X143867822Y-77612617D01*
X143867820Y-77612614D01*
X143865014Y-77608277D01*
X143714670Y-77443051D01*
X143710619Y-77439852D01*
X143710615Y-77439848D01*
X143543414Y-77307800D01*
X143543410Y-77307798D01*
X143539359Y-77304598D01*
X143498053Y-77281796D01*
X143448084Y-77231364D01*
X143433312Y-77161921D01*
X143458428Y-77095516D01*
X143485780Y-77068909D01*
X143529603Y-77037650D01*
X143664860Y-76941173D01*
X143773091Y-76833319D01*
X143835462Y-76799404D01*
X143906268Y-76804592D01*
X143963030Y-76847238D01*
X143980012Y-76878341D01*
X144002201Y-76937529D01*
X144024385Y-76996705D01*
X144111739Y-77113261D01*
X144228295Y-77200615D01*
X144364684Y-77251745D01*
X144426866Y-77258500D01*
X144459840Y-77258500D01*
X144527961Y-77278502D01*
X144570384Y-77324035D01*
X144572967Y-77328757D01*
X145312188Y-78067978D01*
X145326132Y-78075592D01*
X145327965Y-78075461D01*
X145334580Y-78071210D01*
X146078390Y-77327400D01*
X146080186Y-77324111D01*
X146130390Y-77273911D01*
X146190772Y-77258500D01*
X146223134Y-77258500D01*
X146285316Y-77251745D01*
X146421705Y-77200615D01*
X146538261Y-77113261D01*
X146625615Y-76996705D01*
X146676745Y-76860316D01*
X146683500Y-76798134D01*
X146683500Y-75001866D01*
X146676745Y-74939684D01*
X146625615Y-74803295D01*
X146538261Y-74686739D01*
X146421705Y-74599385D01*
X146285316Y-74548255D01*
X146223134Y-74541500D01*
X144426866Y-74541500D01*
X144364684Y-74548255D01*
X144228295Y-74599385D01*
X144111739Y-74686739D01*
X144024385Y-74803295D01*
X144021233Y-74811703D01*
X143979919Y-74921907D01*
X143937277Y-74978671D01*
X143870716Y-75003371D01*
X143801367Y-74988163D01*
X143768743Y-74962476D01*
X143718151Y-74906875D01*
X143718142Y-74906866D01*
X143714670Y-74903051D01*
X143710619Y-74899852D01*
X143710615Y-74899848D01*
X143543414Y-74767800D01*
X143543410Y-74767798D01*
X143539359Y-74764598D01*
X143529130Y-74758951D01*
X143418988Y-74698150D01*
X143343789Y-74656638D01*
X143338920Y-74654914D01*
X143338916Y-74654912D01*
X143138087Y-74583795D01*
X143138083Y-74583794D01*
X143133212Y-74582069D01*
X143128119Y-74581162D01*
X143128116Y-74581161D01*
X142918373Y-74543800D01*
X142918367Y-74543799D01*
X142913284Y-74542894D01*
X142836753Y-74541959D01*
X142695081Y-74540228D01*
X142695079Y-74540228D01*
X142689911Y-74540165D01*
X142469091Y-74573955D01*
X142459870Y-74576969D01*
X142456532Y-74578060D01*
X142385568Y-74580210D01*
X142328294Y-74547389D01*
X141670405Y-73889500D01*
X141636379Y-73827188D01*
X141633500Y-73800405D01*
X141633500Y-71150427D01*
X141653502Y-71082306D01*
X141694618Y-71042550D01*
X141697994Y-71040896D01*
X141879860Y-70911173D01*
X142038096Y-70753489D01*
X142168453Y-70572077D01*
X142169776Y-70573028D01*
X142216645Y-70529857D01*
X142286580Y-70517625D01*
X142352026Y-70545144D01*
X142379875Y-70576994D01*
X142439987Y-70675088D01*
X142586250Y-70843938D01*
X142758126Y-70986632D01*
X142951000Y-71099338D01*
X143159692Y-71179030D01*
X143164760Y-71180061D01*
X143164763Y-71180062D01*
X143259862Y-71199410D01*
X143378597Y-71223567D01*
X143383772Y-71223757D01*
X143383774Y-71223757D01*
X143596673Y-71231564D01*
X143596677Y-71231564D01*
X143601837Y-71231753D01*
X143606957Y-71231097D01*
X143606959Y-71231097D01*
X143818288Y-71204025D01*
X143818289Y-71204025D01*
X143823416Y-71203368D01*
X143828369Y-71201882D01*
X144032429Y-71140661D01*
X144032434Y-71140659D01*
X144037384Y-71139174D01*
X144237994Y-71040896D01*
X144419860Y-70911173D01*
X144578096Y-70753489D01*
X144708453Y-70572077D01*
X144709776Y-70573028D01*
X144756645Y-70529857D01*
X144826580Y-70517625D01*
X144892026Y-70545144D01*
X144919875Y-70576994D01*
X144979987Y-70675088D01*
X145126250Y-70843938D01*
X145298126Y-70986632D01*
X145491000Y-71099338D01*
X145699692Y-71179030D01*
X145704760Y-71180061D01*
X145704763Y-71180062D01*
X145799862Y-71199410D01*
X145918597Y-71223567D01*
X145923772Y-71223757D01*
X145923774Y-71223757D01*
X146136673Y-71231564D01*
X146136677Y-71231564D01*
X146141837Y-71231753D01*
X146146957Y-71231097D01*
X146146959Y-71231097D01*
X146358288Y-71204025D01*
X146358289Y-71204025D01*
X146363416Y-71203368D01*
X146368369Y-71201882D01*
X146572429Y-71140661D01*
X146572434Y-71140659D01*
X146577384Y-71139174D01*
X146777994Y-71040896D01*
X146959860Y-70911173D01*
X147118096Y-70753489D01*
X147248453Y-70572077D01*
X147249776Y-70573028D01*
X147296645Y-70529857D01*
X147366580Y-70517625D01*
X147432026Y-70545144D01*
X147459875Y-70576994D01*
X147519987Y-70675088D01*
X147666250Y-70843938D01*
X147838126Y-70986632D01*
X148031000Y-71099338D01*
X148239692Y-71179030D01*
X148244760Y-71180061D01*
X148244763Y-71180062D01*
X148339862Y-71199410D01*
X148458597Y-71223567D01*
X148463772Y-71223757D01*
X148463774Y-71223757D01*
X148676673Y-71231564D01*
X148676677Y-71231564D01*
X148681837Y-71231753D01*
X148686957Y-71231097D01*
X148686959Y-71231097D01*
X148898288Y-71204025D01*
X148898289Y-71204025D01*
X148903416Y-71203368D01*
X148908369Y-71201882D01*
X149112429Y-71140661D01*
X149112434Y-71140659D01*
X149117384Y-71139174D01*
X149317994Y-71040896D01*
X149499860Y-70911173D01*
X149658096Y-70753489D01*
X149788453Y-70572077D01*
X149789776Y-70573028D01*
X149836645Y-70529857D01*
X149906580Y-70517625D01*
X149972026Y-70545144D01*
X149999875Y-70576994D01*
X150059987Y-70675088D01*
X150206250Y-70843938D01*
X150378126Y-70986632D01*
X150571000Y-71099338D01*
X150779692Y-71179030D01*
X150784760Y-71180061D01*
X150784763Y-71180062D01*
X150879862Y-71199410D01*
X150998597Y-71223567D01*
X151003772Y-71223757D01*
X151003774Y-71223757D01*
X151216673Y-71231564D01*
X151216677Y-71231564D01*
X151221837Y-71231753D01*
X151226957Y-71231097D01*
X151226959Y-71231097D01*
X151438288Y-71204025D01*
X151438289Y-71204025D01*
X151443416Y-71203368D01*
X151448369Y-71201882D01*
X151652429Y-71140661D01*
X151652434Y-71140659D01*
X151657384Y-71139174D01*
X151857994Y-71040896D01*
X152039860Y-70911173D01*
X152198096Y-70753489D01*
X152328453Y-70572077D01*
X152341995Y-70544678D01*
X152425136Y-70376453D01*
X152425137Y-70376451D01*
X152427430Y-70371811D01*
X152492370Y-70158069D01*
X152521529Y-69936590D01*
X152523156Y-69870000D01*
X152504852Y-69647361D01*
X152450431Y-69430702D01*
X152361354Y-69225840D01*
X152321906Y-69164862D01*
X152242822Y-69042617D01*
X152242820Y-69042614D01*
X152240014Y-69038277D01*
X152089670Y-68873051D01*
X152085619Y-68869852D01*
X152085615Y-68869848D01*
X151918414Y-68737800D01*
X151918410Y-68737798D01*
X151914359Y-68734598D01*
X151873053Y-68711796D01*
X151823084Y-68661364D01*
X151808312Y-68591921D01*
X151833428Y-68525516D01*
X151860780Y-68498909D01*
X151904603Y-68467650D01*
X152039860Y-68371173D01*
X152064323Y-68346796D01*
X152194435Y-68217137D01*
X152198096Y-68213489D01*
X152210336Y-68196456D01*
X152325435Y-68036277D01*
X152328453Y-68032077D01*
X152338305Y-68012144D01*
X152425136Y-67836453D01*
X152425137Y-67836451D01*
X152427430Y-67831811D01*
X152492370Y-67618069D01*
X152521529Y-67396590D01*
X152523156Y-67330000D01*
X152504852Y-67107361D01*
X152450431Y-66890702D01*
X152361354Y-66685840D01*
X152318121Y-66619012D01*
X152242822Y-66502617D01*
X152242820Y-66502614D01*
X152240014Y-66498277D01*
X152089670Y-66333051D01*
X152085619Y-66329852D01*
X152085615Y-66329848D01*
X151918414Y-66197800D01*
X151918410Y-66197798D01*
X151914359Y-66194598D01*
X151718789Y-66086638D01*
X151713920Y-66084914D01*
X151713916Y-66084912D01*
X151513087Y-66013795D01*
X151513083Y-66013794D01*
X151508212Y-66012069D01*
X151503119Y-66011162D01*
X151503116Y-66011161D01*
X151293373Y-65973800D01*
X151293367Y-65973799D01*
X151288284Y-65972894D01*
X151214452Y-65971992D01*
X151070081Y-65970228D01*
X151070079Y-65970228D01*
X151064911Y-65970165D01*
X150844091Y-66003955D01*
X150631756Y-66073357D01*
X150433607Y-66176507D01*
X150429474Y-66179610D01*
X150429471Y-66179612D01*
X150354095Y-66236206D01*
X150254965Y-66310635D01*
X150251393Y-66314373D01*
X150119588Y-66452299D01*
X150100629Y-66472138D01*
X149993201Y-66629621D01*
X149938293Y-66674621D01*
X149867768Y-66682792D01*
X149804021Y-66651538D01*
X149783324Y-66627054D01*
X149702822Y-66502617D01*
X149702820Y-66502614D01*
X149700014Y-66498277D01*
X149549670Y-66333051D01*
X149545619Y-66329852D01*
X149545615Y-66329848D01*
X149378414Y-66197800D01*
X149378410Y-66197798D01*
X149374359Y-66194598D01*
X149178789Y-66086638D01*
X149173920Y-66084914D01*
X149173916Y-66084912D01*
X148973087Y-66013795D01*
X148973083Y-66013794D01*
X148968212Y-66012069D01*
X148963119Y-66011162D01*
X148963116Y-66011161D01*
X148753373Y-65973800D01*
X148753367Y-65973799D01*
X148748284Y-65972894D01*
X148674452Y-65971992D01*
X148530081Y-65970228D01*
X148530079Y-65970228D01*
X148524911Y-65970165D01*
X148304091Y-66003955D01*
X148091756Y-66073357D01*
X147893607Y-66176507D01*
X147889474Y-66179610D01*
X147889471Y-66179612D01*
X147814095Y-66236206D01*
X147714965Y-66310635D01*
X147711393Y-66314373D01*
X147579588Y-66452299D01*
X147560629Y-66472138D01*
X147453201Y-66629621D01*
X147398293Y-66674621D01*
X147327768Y-66682792D01*
X147264021Y-66651538D01*
X147243324Y-66627054D01*
X147162822Y-66502617D01*
X147162820Y-66502614D01*
X147160014Y-66498277D01*
X147009670Y-66333051D01*
X147005619Y-66329852D01*
X147005615Y-66329848D01*
X146838414Y-66197800D01*
X146838410Y-66197798D01*
X146834359Y-66194598D01*
X146638789Y-66086638D01*
X146633920Y-66084914D01*
X146633916Y-66084912D01*
X146433087Y-66013795D01*
X146433083Y-66013794D01*
X146428212Y-66012069D01*
X146423119Y-66011162D01*
X146423116Y-66011161D01*
X146213373Y-65973800D01*
X146213367Y-65973799D01*
X146208284Y-65972894D01*
X146134452Y-65971992D01*
X145990081Y-65970228D01*
X145990079Y-65970228D01*
X145984911Y-65970165D01*
X145764091Y-66003955D01*
X145551756Y-66073357D01*
X145353607Y-66176507D01*
X145349474Y-66179610D01*
X145349471Y-66179612D01*
X145274095Y-66236206D01*
X145174965Y-66310635D01*
X145171393Y-66314373D01*
X145039588Y-66452299D01*
X145020629Y-66472138D01*
X144913201Y-66629621D01*
X144858293Y-66674621D01*
X144787768Y-66682792D01*
X144724021Y-66651538D01*
X144703324Y-66627054D01*
X144622822Y-66502617D01*
X144622820Y-66502614D01*
X144620014Y-66498277D01*
X144469670Y-66333051D01*
X144465619Y-66329852D01*
X144465615Y-66329848D01*
X144298414Y-66197800D01*
X144298410Y-66197798D01*
X144294359Y-66194598D01*
X144098789Y-66086638D01*
X144093920Y-66084914D01*
X144093916Y-66084912D01*
X143893087Y-66013795D01*
X143893083Y-66013794D01*
X143888212Y-66012069D01*
X143883119Y-66011162D01*
X143883116Y-66011161D01*
X143673373Y-65973800D01*
X143673367Y-65973799D01*
X143668284Y-65972894D01*
X143594452Y-65971992D01*
X143450081Y-65970228D01*
X143450079Y-65970228D01*
X143444911Y-65970165D01*
X143224091Y-66003955D01*
X143011756Y-66073357D01*
X142813607Y-66176507D01*
X142809474Y-66179610D01*
X142809471Y-66179612D01*
X142734095Y-66236206D01*
X142634965Y-66310635D01*
X142631393Y-66314373D01*
X142499588Y-66452299D01*
X142480629Y-66472138D01*
X142373201Y-66629621D01*
X142318293Y-66674621D01*
X142247768Y-66682792D01*
X142184021Y-66651538D01*
X142163324Y-66627054D01*
X142082822Y-66502617D01*
X142082820Y-66502614D01*
X142080014Y-66498277D01*
X141929670Y-66333051D01*
X141925619Y-66329852D01*
X141925615Y-66329848D01*
X141758414Y-66197800D01*
X141758410Y-66197798D01*
X141754359Y-66194598D01*
X141558789Y-66086638D01*
X141553920Y-66084914D01*
X141553916Y-66084912D01*
X141353087Y-66013795D01*
X141353083Y-66013794D01*
X141348212Y-66012069D01*
X141343119Y-66011162D01*
X141343116Y-66011161D01*
X141133373Y-65973800D01*
X141133367Y-65973799D01*
X141128284Y-65972894D01*
X141054452Y-65971992D01*
X140910081Y-65970228D01*
X140910079Y-65970228D01*
X140904911Y-65970165D01*
X140684091Y-66003955D01*
X140471756Y-66073357D01*
X140273607Y-66176507D01*
X140269474Y-66179610D01*
X140269471Y-66179612D01*
X140194095Y-66236206D01*
X140094965Y-66310635D01*
X140091393Y-66314373D01*
X139959588Y-66452299D01*
X139940629Y-66472138D01*
X139833201Y-66629621D01*
X139778293Y-66674621D01*
X139707768Y-66682792D01*
X139644021Y-66651538D01*
X139623324Y-66627054D01*
X139542822Y-66502617D01*
X139542820Y-66502614D01*
X139540014Y-66498277D01*
X139389670Y-66333051D01*
X139385619Y-66329852D01*
X139385615Y-66329848D01*
X139218414Y-66197800D01*
X139218410Y-66197798D01*
X139214359Y-66194598D01*
X139018789Y-66086638D01*
X139013920Y-66084914D01*
X139013916Y-66084912D01*
X138813087Y-66013795D01*
X138813083Y-66013794D01*
X138808212Y-66012069D01*
X138803119Y-66011162D01*
X138803116Y-66011161D01*
X138593373Y-65973800D01*
X138593367Y-65973799D01*
X138588284Y-65972894D01*
X138514452Y-65971992D01*
X138370081Y-65970228D01*
X138370079Y-65970228D01*
X138364911Y-65970165D01*
X138144091Y-66003955D01*
X137931756Y-66073357D01*
X137733607Y-66176507D01*
X137729474Y-66179610D01*
X137729471Y-66179612D01*
X137654095Y-66236206D01*
X137554965Y-66310635D01*
X137551393Y-66314373D01*
X137419588Y-66452299D01*
X137400629Y-66472138D01*
X137293201Y-66629621D01*
X137238293Y-66674621D01*
X137167768Y-66682792D01*
X137104021Y-66651538D01*
X137083324Y-66627054D01*
X137002822Y-66502617D01*
X137002820Y-66502614D01*
X137000014Y-66498277D01*
X136849670Y-66333051D01*
X136845619Y-66329852D01*
X136845615Y-66329848D01*
X136678414Y-66197800D01*
X136678410Y-66197798D01*
X136674359Y-66194598D01*
X136478789Y-66086638D01*
X136473920Y-66084914D01*
X136473916Y-66084912D01*
X136273087Y-66013795D01*
X136273083Y-66013794D01*
X136268212Y-66012069D01*
X136263119Y-66011162D01*
X136263116Y-66011161D01*
X136053373Y-65973800D01*
X136053367Y-65973799D01*
X136048284Y-65972894D01*
X135937009Y-65971535D01*
X135869140Y-65950702D01*
X135823306Y-65896483D01*
X135814061Y-65826091D01*
X135844340Y-65761875D01*
X135849455Y-65756449D01*
X136165499Y-65440405D01*
X136227811Y-65406379D01*
X136254594Y-65403500D01*
X152770200Y-65403500D01*
X152838321Y-65423502D01*
X152884814Y-65477158D01*
X152894918Y-65547432D01*
X152879319Y-65592500D01*
X152838777Y-65662721D01*
X152835473Y-65668444D01*
X152776458Y-65850072D01*
X152775768Y-65856633D01*
X152775768Y-65856635D01*
X152763740Y-65971076D01*
X152756496Y-66040000D01*
X152757186Y-66046565D01*
X152771170Y-66179612D01*
X152776458Y-66229928D01*
X152835473Y-66411556D01*
X152930960Y-66576944D01*
X153004137Y-66658215D01*
X153034853Y-66722221D01*
X153036500Y-66742524D01*
X153036500Y-75497476D01*
X153016498Y-75565597D01*
X153004142Y-75581779D01*
X152930960Y-75663056D01*
X152835473Y-75828444D01*
X152776458Y-76010072D01*
X152756496Y-76200000D01*
X152776458Y-76389928D01*
X152835473Y-76571556D01*
X152930960Y-76736944D01*
X152935378Y-76741851D01*
X152935379Y-76741852D01*
X153050792Y-76870031D01*
X153058747Y-76878866D01*
X153213248Y-76991118D01*
X153219276Y-76993802D01*
X153219278Y-76993803D01*
X153366783Y-77059476D01*
X153387712Y-77068794D01*
X153447635Y-77081531D01*
X153568056Y-77107128D01*
X153568061Y-77107128D01*
X153574513Y-77108500D01*
X153765487Y-77108500D01*
X153771939Y-77107128D01*
X153771944Y-77107128D01*
X153892365Y-77081531D01*
X153952288Y-77068794D01*
X153973217Y-77059476D01*
X154120722Y-76993803D01*
X154120724Y-76993802D01*
X154126752Y-76991118D01*
X154281253Y-76878866D01*
X154289208Y-76870031D01*
X154404621Y-76741852D01*
X154404622Y-76741851D01*
X154409040Y-76736944D01*
X154504527Y-76571556D01*
X154563542Y-76389928D01*
X154583504Y-76200000D01*
X154563542Y-76010072D01*
X154504527Y-75828444D01*
X154409040Y-75663056D01*
X154335863Y-75581785D01*
X154305147Y-75517779D01*
X154303500Y-75497476D01*
X154303500Y-66742524D01*
X154323502Y-66674403D01*
X154335858Y-66658221D01*
X154401689Y-66585108D01*
X154462136Y-66547869D01*
X154533119Y-66549221D01*
X154584420Y-66580324D01*
X155094595Y-67090499D01*
X155128621Y-67152811D01*
X155131500Y-67179594D01*
X155131500Y-77605988D01*
X155111498Y-77674109D01*
X155057842Y-77720602D01*
X154998802Y-77731728D01*
X154996773Y-77731500D01*
X154646480Y-77731500D01*
X154578359Y-77711498D01*
X154557462Y-77694673D01*
X154551839Y-77689059D01*
X154453303Y-77590695D01*
X154433359Y-77578401D01*
X154308968Y-77501725D01*
X154308966Y-77501724D01*
X154302738Y-77497885D01*
X154222995Y-77471436D01*
X154141389Y-77444368D01*
X154141387Y-77444368D01*
X154134861Y-77442203D01*
X154128025Y-77441503D01*
X154128022Y-77441502D01*
X154084969Y-77437091D01*
X154030400Y-77431500D01*
X151829600Y-77431500D01*
X151826354Y-77431837D01*
X151826350Y-77431837D01*
X151730692Y-77441762D01*
X151730688Y-77441763D01*
X151723834Y-77442474D01*
X151717298Y-77444655D01*
X151717296Y-77444655D01*
X151609512Y-77480615D01*
X151556054Y-77498450D01*
X151405652Y-77591522D01*
X151280695Y-77716697D01*
X151253055Y-77761538D01*
X151236961Y-77787647D01*
X151184189Y-77835140D01*
X151114117Y-77846564D01*
X151048994Y-77818290D01*
X151022557Y-77787834D01*
X150981937Y-77722193D01*
X150972901Y-77710792D01*
X150858171Y-77596261D01*
X150846760Y-77587249D01*
X150708757Y-77502184D01*
X150695576Y-77496037D01*
X150541290Y-77444862D01*
X150527914Y-77441995D01*
X150433562Y-77432328D01*
X150427145Y-77432000D01*
X149602115Y-77432000D01*
X149586876Y-77436475D01*
X149585671Y-77437865D01*
X149584000Y-77445548D01*
X149584000Y-80029884D01*
X149588475Y-80045123D01*
X149589865Y-80046328D01*
X149597548Y-80047999D01*
X150427095Y-80047999D01*
X150433614Y-80047662D01*
X150529206Y-80037743D01*
X150542600Y-80034851D01*
X150696784Y-79983412D01*
X150709962Y-79977239D01*
X150847807Y-79891937D01*
X150859208Y-79882901D01*
X150973739Y-79768171D01*
X150982751Y-79756760D01*
X151022451Y-79692354D01*
X151075223Y-79644861D01*
X151145294Y-79633437D01*
X151210418Y-79661711D01*
X151236854Y-79692166D01*
X151281522Y-79764348D01*
X151406697Y-79889305D01*
X151412927Y-79893145D01*
X151412928Y-79893146D01*
X151550288Y-79977816D01*
X151557262Y-79982115D01*
X151613888Y-80000897D01*
X151718611Y-80035632D01*
X151718613Y-80035632D01*
X151725139Y-80037797D01*
X151731975Y-80038497D01*
X151731978Y-80038498D01*
X151775031Y-80042909D01*
X151829600Y-80048500D01*
X153701406Y-80048500D01*
X153769527Y-80068502D01*
X153816020Y-80122158D01*
X153826124Y-80192432D01*
X153796630Y-80257012D01*
X153790502Y-80263594D01*
X151828391Y-82225704D01*
X149909500Y-84144595D01*
X149847188Y-84178621D01*
X149820405Y-84181500D01*
X149764513Y-84181500D01*
X149758061Y-84182872D01*
X149758056Y-84182872D01*
X149673093Y-84200932D01*
X149577712Y-84221206D01*
X149571682Y-84223891D01*
X149571681Y-84223891D01*
X149409278Y-84296197D01*
X149409276Y-84296198D01*
X149403248Y-84298882D01*
X149248747Y-84411134D01*
X149244326Y-84416044D01*
X149244325Y-84416045D01*
X149166862Y-84502077D01*
X149120960Y-84553056D01*
X149025473Y-84718444D01*
X148966458Y-84900072D01*
X148965768Y-84906633D01*
X148965768Y-84906635D01*
X148951879Y-85038782D01*
X148946496Y-85090000D01*
X148947186Y-85096565D01*
X148958541Y-85204598D01*
X148966458Y-85279928D01*
X149025473Y-85461556D01*
X149028776Y-85467278D01*
X149028777Y-85467279D01*
X149045947Y-85497018D01*
X149120960Y-85626944D01*
X149125378Y-85631851D01*
X149125379Y-85631852D01*
X149179079Y-85691492D01*
X149248747Y-85768866D01*
X149403248Y-85881118D01*
X149409276Y-85883802D01*
X149409278Y-85883803D01*
X149458505Y-85905720D01*
X149577712Y-85958794D01*
X149671112Y-85978647D01*
X149758056Y-85997128D01*
X149758061Y-85997128D01*
X149764513Y-85998500D01*
X149955487Y-85998500D01*
X149961939Y-85997128D01*
X149961944Y-85997128D01*
X150048887Y-85978647D01*
X150142288Y-85958794D01*
X150261495Y-85905720D01*
X150310722Y-85883803D01*
X150310724Y-85883802D01*
X150316752Y-85881118D01*
X150471253Y-85768866D01*
X150540921Y-85691492D01*
X150594621Y-85631852D01*
X150594622Y-85631851D01*
X150599040Y-85626944D01*
X150674053Y-85497018D01*
X150691223Y-85467279D01*
X150691224Y-85467278D01*
X150694527Y-85461556D01*
X150753542Y-85279928D01*
X150770907Y-85114706D01*
X150797920Y-85049050D01*
X150807122Y-85038782D01*
X153469273Y-82376632D01*
X156157253Y-79688652D01*
X156165539Y-79681112D01*
X156172018Y-79677000D01*
X156218644Y-79627348D01*
X156221398Y-79624507D01*
X156241135Y-79604770D01*
X156243615Y-79601573D01*
X156251320Y-79592551D01*
X156259288Y-79584066D01*
X156281586Y-79560321D01*
X156285405Y-79553375D01*
X156285407Y-79553372D01*
X156291348Y-79542566D01*
X156302199Y-79526047D01*
X156309758Y-79516301D01*
X156314614Y-79510041D01*
X156317759Y-79502772D01*
X156317762Y-79502768D01*
X156332174Y-79469463D01*
X156337391Y-79458813D01*
X156358695Y-79420060D01*
X156363733Y-79400437D01*
X156370137Y-79381734D01*
X156375033Y-79370420D01*
X156375033Y-79370419D01*
X156378181Y-79363145D01*
X156379420Y-79355322D01*
X156379423Y-79355312D01*
X156385099Y-79319476D01*
X156387505Y-79307856D01*
X156396528Y-79272711D01*
X156396528Y-79272710D01*
X156398500Y-79265030D01*
X156398500Y-79244776D01*
X156400051Y-79225065D01*
X156401980Y-79212886D01*
X156403220Y-79205057D01*
X156399059Y-79161038D01*
X156398500Y-79149181D01*
X156398500Y-66943763D01*
X156399027Y-66932579D01*
X156400701Y-66925091D01*
X156398562Y-66857032D01*
X156398500Y-66853075D01*
X156398500Y-66825144D01*
X156397994Y-66821138D01*
X156397061Y-66809292D01*
X156395922Y-66773037D01*
X156395673Y-66765110D01*
X156390022Y-66745658D01*
X156386014Y-66726306D01*
X156384468Y-66714068D01*
X156384467Y-66714066D01*
X156383474Y-66706203D01*
X156367194Y-66665086D01*
X156363359Y-66653885D01*
X156351018Y-66611406D01*
X156346985Y-66604587D01*
X156346983Y-66604582D01*
X156340707Y-66593971D01*
X156332010Y-66576221D01*
X156324552Y-66557383D01*
X156298571Y-66521623D01*
X156292053Y-66511701D01*
X156273578Y-66480460D01*
X156273574Y-66480455D01*
X156269542Y-66473637D01*
X156255218Y-66459313D01*
X156242376Y-66444278D01*
X156230472Y-66427893D01*
X156196406Y-66399711D01*
X156187627Y-66391722D01*
X154173652Y-64377747D01*
X154166112Y-64369461D01*
X154162000Y-64362982D01*
X154112348Y-64316356D01*
X154109507Y-64313602D01*
X154089770Y-64293865D01*
X154086573Y-64291385D01*
X154077551Y-64283680D01*
X154064122Y-64271069D01*
X154045321Y-64253414D01*
X154038375Y-64249595D01*
X154038372Y-64249593D01*
X154027566Y-64243652D01*
X154011047Y-64232801D01*
X154005048Y-64228148D01*
X153995041Y-64220386D01*
X153987772Y-64217241D01*
X153987768Y-64217238D01*
X153954463Y-64202826D01*
X153943813Y-64197609D01*
X153905060Y-64176305D01*
X153885437Y-64171267D01*
X153866734Y-64164863D01*
X153855420Y-64159967D01*
X153855419Y-64159967D01*
X153848145Y-64156819D01*
X153840322Y-64155580D01*
X153840312Y-64155577D01*
X153804476Y-64149901D01*
X153792856Y-64147495D01*
X153757711Y-64138472D01*
X153757710Y-64138472D01*
X153750030Y-64136500D01*
X153729776Y-64136500D01*
X153710065Y-64134949D01*
X153697886Y-64133020D01*
X153690057Y-64131780D01*
X153660786Y-64134547D01*
X153646039Y-64135941D01*
X153634181Y-64136500D01*
X136018768Y-64136500D01*
X136007585Y-64135973D01*
X136000092Y-64134298D01*
X135992166Y-64134547D01*
X135992165Y-64134547D01*
X135932002Y-64136438D01*
X135928044Y-64136500D01*
X135900144Y-64136500D01*
X135896154Y-64137004D01*
X135884320Y-64137936D01*
X135840111Y-64139326D01*
X135832497Y-64141538D01*
X135832492Y-64141539D01*
X135820659Y-64144977D01*
X135801296Y-64148988D01*
X135781203Y-64151526D01*
X135773836Y-64154443D01*
X135773831Y-64154444D01*
X135740092Y-64167802D01*
X135728865Y-64171646D01*
X135686407Y-64183982D01*
X135679581Y-64188019D01*
X135668972Y-64194293D01*
X135651224Y-64202988D01*
X135632383Y-64210448D01*
X135625967Y-64215110D01*
X135625966Y-64215110D01*
X135596613Y-64236436D01*
X135586693Y-64242952D01*
X135555465Y-64261420D01*
X135555462Y-64261422D01*
X135548638Y-64265458D01*
X135534317Y-64279779D01*
X135519284Y-64292619D01*
X135502893Y-64304528D01*
X135494217Y-64315016D01*
X135474702Y-64338605D01*
X135466712Y-64347384D01*
X133837345Y-65976750D01*
X133775033Y-66010776D01*
X133726154Y-66011702D01*
X133513373Y-65973800D01*
X133513367Y-65973799D01*
X133508284Y-65972894D01*
X133434452Y-65971992D01*
X133290081Y-65970228D01*
X133290079Y-65970228D01*
X133284911Y-65970165D01*
X133064091Y-66003955D01*
X132851756Y-66073357D01*
X132653607Y-66176507D01*
X132649474Y-66179610D01*
X132649471Y-66179612D01*
X132574095Y-66236206D01*
X132474965Y-66310635D01*
X132471393Y-66314373D01*
X132339588Y-66452299D01*
X132320629Y-66472138D01*
X132213201Y-66629621D01*
X132158293Y-66674621D01*
X132087768Y-66682792D01*
X132024021Y-66651538D01*
X132003324Y-66627054D01*
X131922822Y-66502617D01*
X131922820Y-66502614D01*
X131920014Y-66498277D01*
X131769670Y-66333051D01*
X131765619Y-66329852D01*
X131765615Y-66329848D01*
X131598414Y-66197800D01*
X131598410Y-66197798D01*
X131594359Y-66194598D01*
X131398789Y-66086638D01*
X131393920Y-66084914D01*
X131393916Y-66084912D01*
X131193087Y-66013795D01*
X131193083Y-66013794D01*
X131188212Y-66012069D01*
X131183119Y-66011162D01*
X131183116Y-66011161D01*
X130973373Y-65973800D01*
X130973367Y-65973799D01*
X130968284Y-65972894D01*
X130894452Y-65971992D01*
X130750081Y-65970228D01*
X130750079Y-65970228D01*
X130744911Y-65970165D01*
X130524091Y-66003955D01*
X130311756Y-66073357D01*
X130113607Y-66176507D01*
X130109474Y-66179610D01*
X130109471Y-66179612D01*
X130034095Y-66236206D01*
X129934965Y-66310635D01*
X129931393Y-66314373D01*
X129799588Y-66452299D01*
X129780629Y-66472138D01*
X129673201Y-66629621D01*
X129618293Y-66674621D01*
X129547768Y-66682792D01*
X129484021Y-66651538D01*
X129463324Y-66627054D01*
X129382822Y-66502617D01*
X129382820Y-66502614D01*
X129380014Y-66498277D01*
X129229670Y-66333051D01*
X129225619Y-66329852D01*
X129225615Y-66329848D01*
X129058414Y-66197800D01*
X129058410Y-66197798D01*
X129054359Y-66194598D01*
X128858789Y-66086638D01*
X128853920Y-66084914D01*
X128853916Y-66084912D01*
X128653087Y-66013795D01*
X128653083Y-66013794D01*
X128648212Y-66012069D01*
X128643119Y-66011162D01*
X128643116Y-66011161D01*
X128433373Y-65973800D01*
X128433367Y-65973799D01*
X128428284Y-65972894D01*
X128354452Y-65971992D01*
X128210081Y-65970228D01*
X128210079Y-65970228D01*
X128204911Y-65970165D01*
X127984091Y-66003955D01*
X127771756Y-66073357D01*
X127573607Y-66176507D01*
X127569474Y-66179610D01*
X127569471Y-66179612D01*
X127494095Y-66236206D01*
X127394965Y-66310635D01*
X127391393Y-66314373D01*
X127259588Y-66452299D01*
X127240629Y-66472138D01*
X127133201Y-66629621D01*
X127078293Y-66674621D01*
X127007768Y-66682792D01*
X126944021Y-66651538D01*
X126923324Y-66627054D01*
X126842822Y-66502617D01*
X126842820Y-66502614D01*
X126840014Y-66498277D01*
X126689670Y-66333051D01*
X126685619Y-66329852D01*
X126685615Y-66329848D01*
X126518414Y-66197800D01*
X126518410Y-66197798D01*
X126514359Y-66194598D01*
X126318789Y-66086638D01*
X126313920Y-66084914D01*
X126313916Y-66084912D01*
X126113087Y-66013795D01*
X126113083Y-66013794D01*
X126108212Y-66012069D01*
X126103119Y-66011162D01*
X126103116Y-66011161D01*
X125893373Y-65973800D01*
X125893367Y-65973799D01*
X125888284Y-65972894D01*
X125814452Y-65971992D01*
X125670081Y-65970228D01*
X125670079Y-65970228D01*
X125664911Y-65970165D01*
X125444091Y-66003955D01*
X125231756Y-66073357D01*
X125033607Y-66176507D01*
X125029474Y-66179610D01*
X125029471Y-66179612D01*
X124954095Y-66236206D01*
X124854965Y-66310635D01*
X124851393Y-66314373D01*
X124719588Y-66452299D01*
X124700629Y-66472138D01*
X124593201Y-66629621D01*
X124538293Y-66674621D01*
X124467768Y-66682792D01*
X124404021Y-66651538D01*
X124383324Y-66627054D01*
X124302822Y-66502617D01*
X124302820Y-66502614D01*
X124300014Y-66498277D01*
X124149670Y-66333051D01*
X124145619Y-66329852D01*
X124145615Y-66329848D01*
X123978414Y-66197800D01*
X123978410Y-66197798D01*
X123974359Y-66194598D01*
X123778789Y-66086638D01*
X123773920Y-66084914D01*
X123773916Y-66084912D01*
X123573087Y-66013795D01*
X123573083Y-66013794D01*
X123568212Y-66012069D01*
X123563119Y-66011162D01*
X123563116Y-66011161D01*
X123353373Y-65973800D01*
X123353367Y-65973799D01*
X123348284Y-65972894D01*
X123274452Y-65971992D01*
X123130081Y-65970228D01*
X123130079Y-65970228D01*
X123124911Y-65970165D01*
X122904091Y-66003955D01*
X122691756Y-66073357D01*
X122493607Y-66176507D01*
X122489474Y-66179610D01*
X122489471Y-66179612D01*
X122414095Y-66236206D01*
X122314965Y-66310635D01*
X122311393Y-66314373D01*
X122179588Y-66452299D01*
X122160629Y-66472138D01*
X122053201Y-66629621D01*
X121998293Y-66674621D01*
X121927768Y-66682792D01*
X121864021Y-66651538D01*
X121843324Y-66627054D01*
X121762822Y-66502617D01*
X121762820Y-66502614D01*
X121760014Y-66498277D01*
X121609670Y-66333051D01*
X121605619Y-66329852D01*
X121605615Y-66329848D01*
X121438414Y-66197800D01*
X121438410Y-66197798D01*
X121434359Y-66194598D01*
X121238789Y-66086638D01*
X121233920Y-66084914D01*
X121233916Y-66084912D01*
X121033087Y-66013795D01*
X121033083Y-66013794D01*
X121028212Y-66012069D01*
X121023119Y-66011162D01*
X121023116Y-66011161D01*
X120813373Y-65973800D01*
X120813367Y-65973799D01*
X120808284Y-65972894D01*
X120734452Y-65971992D01*
X120590081Y-65970228D01*
X120590079Y-65970228D01*
X120584911Y-65970165D01*
X120364091Y-66003955D01*
X120151756Y-66073357D01*
X119953607Y-66176507D01*
X119949474Y-66179610D01*
X119949471Y-66179612D01*
X119874095Y-66236206D01*
X119774965Y-66310635D01*
X119771393Y-66314373D01*
X119639588Y-66452299D01*
X119620629Y-66472138D01*
X119513201Y-66629621D01*
X119458293Y-66674621D01*
X119387768Y-66682792D01*
X119324021Y-66651538D01*
X119303324Y-66627054D01*
X119222822Y-66502617D01*
X119222820Y-66502614D01*
X119220014Y-66498277D01*
X119069670Y-66333051D01*
X119065619Y-66329852D01*
X119065615Y-66329848D01*
X118898414Y-66197800D01*
X118898410Y-66197798D01*
X118894359Y-66194598D01*
X118698789Y-66086638D01*
X118693920Y-66084914D01*
X118693916Y-66084912D01*
X118493087Y-66013795D01*
X118493083Y-66013794D01*
X118488212Y-66012069D01*
X118483119Y-66011162D01*
X118483116Y-66011161D01*
X118273373Y-65973800D01*
X118273367Y-65973799D01*
X118268284Y-65972894D01*
X118194452Y-65971992D01*
X118050081Y-65970228D01*
X118050079Y-65970228D01*
X118044911Y-65970165D01*
X117824091Y-66003955D01*
X117611756Y-66073357D01*
X117413607Y-66176507D01*
X117409474Y-66179610D01*
X117409471Y-66179612D01*
X117334095Y-66236206D01*
X117234965Y-66310635D01*
X117231393Y-66314373D01*
X117099588Y-66452299D01*
X117080629Y-66472138D01*
X116973201Y-66629621D01*
X116918293Y-66674621D01*
X116847768Y-66682792D01*
X116784021Y-66651538D01*
X116763324Y-66627054D01*
X116682822Y-66502617D01*
X116682820Y-66502614D01*
X116680014Y-66498277D01*
X116529670Y-66333051D01*
X116525619Y-66329852D01*
X116525615Y-66329848D01*
X116358414Y-66197800D01*
X116358410Y-66197798D01*
X116354359Y-66194598D01*
X116158789Y-66086638D01*
X116153920Y-66084914D01*
X116153916Y-66084912D01*
X115953087Y-66013795D01*
X115953083Y-66013794D01*
X115948212Y-66012069D01*
X115943119Y-66011162D01*
X115943116Y-66011161D01*
X115733373Y-65973800D01*
X115733367Y-65973799D01*
X115728284Y-65972894D01*
X115654452Y-65971992D01*
X115510081Y-65970228D01*
X115510079Y-65970228D01*
X115504911Y-65970165D01*
X115284091Y-66003955D01*
X115071756Y-66073357D01*
X114873607Y-66176507D01*
X114869474Y-66179610D01*
X114869471Y-66179612D01*
X114794095Y-66236206D01*
X114694965Y-66310635D01*
X114691393Y-66314373D01*
X114559588Y-66452299D01*
X114540629Y-66472138D01*
X114433201Y-66629621D01*
X114378293Y-66674621D01*
X114307768Y-66682792D01*
X114244021Y-66651538D01*
X114223324Y-66627054D01*
X114142822Y-66502617D01*
X114142820Y-66502614D01*
X114140014Y-66498277D01*
X113989670Y-66333051D01*
X113985619Y-66329852D01*
X113985615Y-66329848D01*
X113818414Y-66197800D01*
X113818410Y-66197798D01*
X113814359Y-66194598D01*
X113618789Y-66086638D01*
X113613920Y-66084914D01*
X113613916Y-66084912D01*
X113413087Y-66013795D01*
X113413083Y-66013794D01*
X113408212Y-66012069D01*
X113403119Y-66011162D01*
X113403116Y-66011161D01*
X113193373Y-65973800D01*
X113193367Y-65973799D01*
X113188284Y-65972894D01*
X113114452Y-65971992D01*
X112970081Y-65970228D01*
X112970079Y-65970228D01*
X112964911Y-65970165D01*
X112744091Y-66003955D01*
X112731532Y-66008060D01*
X112660568Y-66010210D01*
X112603294Y-65977389D01*
X111003652Y-64377747D01*
X110996112Y-64369461D01*
X110992000Y-64362982D01*
X110942348Y-64316356D01*
X110939507Y-64313602D01*
X110919770Y-64293865D01*
X110916573Y-64291385D01*
X110907551Y-64283680D01*
X110894122Y-64271069D01*
X110875321Y-64253414D01*
X110868375Y-64249595D01*
X110868372Y-64249593D01*
X110857566Y-64243652D01*
X110841047Y-64232801D01*
X110835048Y-64228148D01*
X110825041Y-64220386D01*
X110817772Y-64217241D01*
X110817768Y-64217238D01*
X110784463Y-64202826D01*
X110773813Y-64197609D01*
X110735060Y-64176305D01*
X110715437Y-64171267D01*
X110696734Y-64164863D01*
X110685420Y-64159967D01*
X110685419Y-64159967D01*
X110678145Y-64156819D01*
X110670322Y-64155580D01*
X110670312Y-64155577D01*
X110634476Y-64149901D01*
X110622856Y-64147495D01*
X110587711Y-64138472D01*
X110587710Y-64138472D01*
X110580030Y-64136500D01*
X110559776Y-64136500D01*
X110540065Y-64134949D01*
X110527886Y-64133020D01*
X110520057Y-64131780D01*
X110490786Y-64134547D01*
X110476039Y-64135941D01*
X110464181Y-64136500D01*
X106118200Y-64136500D01*
X106050079Y-64116498D01*
X106030853Y-64100157D01*
X106030580Y-64100460D01*
X106025668Y-64096037D01*
X106021253Y-64091134D01*
X105866752Y-63978882D01*
X105860724Y-63976198D01*
X105860722Y-63976197D01*
X105698319Y-63903891D01*
X105698318Y-63903891D01*
X105692288Y-63901206D01*
X105598888Y-63881353D01*
X105511944Y-63862872D01*
X105511939Y-63862872D01*
X105505487Y-63861500D01*
X105314513Y-63861500D01*
X105308061Y-63862872D01*
X105308056Y-63862872D01*
X105221112Y-63881353D01*
X105127712Y-63901206D01*
X105121682Y-63903891D01*
X105121681Y-63903891D01*
X104959278Y-63976197D01*
X104959276Y-63976198D01*
X104953248Y-63978882D01*
X104798747Y-64091134D01*
X104794326Y-64096044D01*
X104794325Y-64096045D01*
X104685203Y-64217238D01*
X104670960Y-64233056D01*
X104575473Y-64398444D01*
X104516458Y-64580072D01*
X104496496Y-64770000D01*
X104497186Y-64776565D01*
X104511500Y-64912757D01*
X104498728Y-64982595D01*
X104450226Y-65034442D01*
X104381393Y-65051836D01*
X104363751Y-65049735D01*
X104360694Y-65048765D01*
X104355398Y-65048171D01*
X104350302Y-65046613D01*
X104257743Y-65037210D01*
X104256607Y-65037089D01*
X104222992Y-65033319D01*
X104210270Y-65031892D01*
X104210266Y-65031892D01*
X104206773Y-65031500D01*
X104203246Y-65031500D01*
X104202261Y-65031445D01*
X104196581Y-65030998D01*
X104167175Y-65028011D01*
X104159663Y-65027248D01*
X104159661Y-65027248D01*
X104153538Y-65026626D01*
X104111259Y-65030623D01*
X104107891Y-65030941D01*
X104096033Y-65031500D01*
X101667904Y-65031500D01*
X101655171Y-65030855D01*
X101619666Y-65027248D01*
X101619661Y-65027248D01*
X101613538Y-65026626D01*
X101571259Y-65030623D01*
X101567891Y-65030941D01*
X101556033Y-65031500D01*
X99121840Y-65031500D01*
X99108232Y-65030763D01*
X99076736Y-65027341D01*
X99076732Y-65027341D01*
X99070611Y-65026676D01*
X99052611Y-65028251D01*
X99020609Y-65031050D01*
X99015784Y-65031379D01*
X99013313Y-65031500D01*
X99010231Y-65031500D01*
X98987763Y-65033703D01*
X98967489Y-65035691D01*
X98966174Y-65035813D01*
X98933913Y-65038636D01*
X98873587Y-65043913D01*
X98868468Y-65045400D01*
X98863167Y-65045920D01*
X98774133Y-65072801D01*
X98773000Y-65073136D01*
X98689578Y-65097373D01*
X98689574Y-65097375D01*
X98683663Y-65099092D01*
X98678934Y-65101543D01*
X98673831Y-65103084D01*
X98591669Y-65146770D01*
X98590627Y-65147317D01*
X98508074Y-65190108D01*
X98503911Y-65193431D01*
X98499204Y-65195934D01*
X98494430Y-65199828D01*
X98494428Y-65199829D01*
X98427105Y-65254737D01*
X98426160Y-65255500D01*
X98387027Y-65286739D01*
X98384536Y-65289230D01*
X98383809Y-65289880D01*
X98379463Y-65293592D01*
X98360588Y-65308987D01*
X98345938Y-65320935D01*
X98342015Y-65325677D01*
X98342013Y-65325679D01*
X98316703Y-65356273D01*
X98308713Y-65365053D01*
X95850621Y-67823145D01*
X95840478Y-67832247D01*
X95810975Y-67855968D01*
X95807008Y-67860696D01*
X95778709Y-67894421D01*
X95775528Y-67898069D01*
X95773885Y-67899881D01*
X95771691Y-67902075D01*
X95744358Y-67935349D01*
X95743696Y-67936147D01*
X95683846Y-68007474D01*
X95681278Y-68012144D01*
X95677897Y-68016261D01*
X95646860Y-68074145D01*
X95634023Y-68098086D01*
X95633394Y-68099245D01*
X95591538Y-68175381D01*
X95591535Y-68175389D01*
X95588567Y-68180787D01*
X95586955Y-68185869D01*
X95584438Y-68190563D01*
X95557238Y-68279531D01*
X95556918Y-68280559D01*
X95528765Y-68369306D01*
X95528171Y-68374602D01*
X95526613Y-68379698D01*
X95519549Y-68449242D01*
X95517218Y-68472187D01*
X95517089Y-68473393D01*
X95511500Y-68523227D01*
X95511500Y-68526754D01*
X95511445Y-68527739D01*
X95510998Y-68533419D01*
X95506626Y-68576462D01*
X90678500Y-68576462D01*
X90678500Y-61594500D01*
X90698502Y-61526379D01*
X90752158Y-61479886D01*
X90804500Y-61468500D01*
X156845500Y-61468500D01*
X156913621Y-61488502D01*
G37*
%TD.AperFunction*%
%TD*%
M02*
